<svg id="Layer_1" data-name="Layer 1" xmlns="http://www.w3.org/2000/svg" width="345.18" height="167.51" viewBox="0 0 345.18 167.51">
  <title>tv2bornholm</title>
  <g>
    <path d="M346,41c-4.76,17.09-17.52,26.49-32.42,33.9-1.51.76-4.17.86-4,3,.1,1.6,2.5,1.91,3.95,2.65,3.85,2,7.88,3.62,11.6,5.82,13.16,7.79,18.76,20.16,16.15,35.16-3.82,21.91-22.36,42-42.82,46.12a42.42,42.42,0,0,1-8.44.66q-64,.06-128,0c-1.61,0-3.75.75-4.68-.78s.81-3.08,1.64-4.42q28.4-45.63,56.84-91.21c3.55-5.73,8.56-8,15.06-8q25.49,0,51-.15c9.24-.07,15.4-6.55,15.07-15.57-.17-4.76-2.5-7.35-7.3-7.83a67.83,67.83,0,0,0-7-.18q-53.76,0-107.5.06c-1.91,0-4.45.9-5.58-1s1-3.65,2-5.28c4.77-7.82,9.8-15.5,14.4-23.41C188.76,5.65,192.37,2.12,198,1H320c14.29,3.58,22.88,12.66,26,27Zm-93,88.63c8.16,0,16.32.11,24.48,0,6.57-.11,12.62-1.78,16.53-7.62,2.7-4,4-8.51,1.68-13.21-2.2-4.52-6.32-5.53-10.9-5.53-13.49,0-27,0-40.46,0a9,9,0,0,0-8.29,4.57q-5.4,8.7-10.88,17.35c-2.32,3.64-.84,4.6,2.86,4.55C236.34,129.53,244.67,129.6,253,129.59Z" transform="translate(-0.82 -0.96)"/>
    <path d="M165,1c-6.29,10.18-12.4,20.49-18.95,30.5-4.59,7-12.11,8.37-19.8,8.49-11.63.18-23.27-.45-34.9-.5-28.26-.13-56.54.46-84.81.7-1.87,0-4.29,1-5.4-1.23-1-2,.67-3.79,1.69-5.45C7.53,25.82,12.39,18.26,17,10.55,19.65,6.09,23,2.64,28,1Z" transform="translate(-0.82 -0.96)"/>
    <path d="M98.36,150.62c5.34-8.38,10.74-16.73,16-25.17C125.11,108.21,136,91,146.4,73.58c4.06-6.77,9.41-9.87,17.18-9.71,9.32.2,18.66.08,28,0,3.64,0,4.51,1.11,2.45,4.41q-27.93,44.73-55.74,89.52c-4.49,7.2-10.73,10.81-19.55,10.57-14-.38-28,0-42-.12C64,168.22,59,162.23,60.36,149.64c2.64-25.15,5.06-50.32,7.46-75.5.82-8.61,2.55-10.33,11.17-10.25,6.66.06,13.33-.07,20,.07,5.23.12,6.64,1.58,6.15,6.75-1.71,18.22-3.59,36.43-5.39,54.64-.81,8.26-1.57,16.52-2.36,24.78Z" transform="translate(-0.82 -0.96)"/>
  </g>
</svg>
