<svg id="Layer_1" data-name="Layer 1" xmlns="http://www.w3.org/2000/svg" width="287.17" height="109.95" viewBox="0 0 287.17 109.95">
  <title>tv2fyn</title>
  <g>
    <path d="M437.88,203.57c-2.15,7.82-4,14.65-5.92,21.47-1.17,4.16-11.1,6.7-14.24,3.66-1.15-1.1-.78-2.46-.44-3.74,3.86-14.25,7.82-28.47,11.54-42.75.84-3.21,2.7-4.27,5.65-4.49,5.65-.44,10.19,2.31,12.56,7.85s3.67,11.85,7.13,18.18c1.6-7.49,3.22-14,4.33-20.63.63-3.74,2.36-5,6-5,10.43.06,12.49-.84,8.85,10.51-3.79,11.83-6.6,24-9.68,36-.8,3.12-2.08,5.3-5.62,5-4.05-.33-8.88,1.58-11-4.19C444.39,218.38,442.1,211.11,437.88,203.57Z" transform="translate(-187.83 -134.88)"/>
    <path d="M355.63,178.2c5.33,0,10.66.08,16,0,3.49-.07,4.26,1.31,3.45,4.62-2.15,8.67-2.39,9-11.31,9-4.49,0-9,.18-13.48,0-3.43-.11-5.1,1.79-5.1,4.72,0,3.41,3,2.32,5,2.37,4.66.13,9.32.1,14,.05,2.63,0,3.77,1,3,3.68-2,7-1,9.5-10.64,9.21-3.82-.11-7.66.08-11.48-.08-2.84-.12-4.32,1.17-4.95,3.79-.47,1.93-1,3.86-1.53,5.78-2.81,9.67-1.17,8.15-12.5,8.29-2.87,0-4.28-1.28-3.42-4.48,3.94-14.55,7.77-29.13,11.66-43.7.66-2.47,2.42-3.3,4.89-3.26,5.5.09,11,0,16.49,0Z" transform="translate(-187.83 -134.88)" fill="#010101"/>
    <path d="M397.38,196c3.46-4.23,6.7-8,9.72-12,3.75-4.91,13.81-8,19.44-5.76,2.35.95,1.21,2.18.16,3.39-5.45,6.26-10.58,12.82-16.39,18.72-6.5,6.61-10.88,14.08-12.72,23.17-1.14,5.65-9.69,8.71-14.57,5.46a2.32,2.32,0,0,1-1-3c6.46-14,1.5-26.85-3.35-39.86-3-7.95-2.6-8.14,5.94-7.95,5.15.11,8.41,2,9.59,7.42C395,188.89,395,192.49,397.38,196Z" transform="translate(-187.83 -134.88)"/>
    <path d="M266.34,244.83c-1.64-.33-3.24.4-4.09-1-1.05-1.67.53-2.81,1.29-3.94q33.68-50,67.44-100c1.68-2.48,3.37-5.12,6.91-5,1.42,0,3.24-.58,4.1,1,.77,1.44-.77,2.42-1.45,3.43q-13.29,19.91-26.7,39.73-19.79,29.34-39.64,58.63C272.15,240.77,270.77,244.89,266.34,244.83Z" transform="translate(-187.83 -134.88)" fill="#010101"/>
    <path d="M253.72,168c-4.82,0-9.64-.05-14.46,0-3,0-3.93-.82-2.33-3.83,2.89-5.44,6.53-8.65,13.35-8s14,.15,20.93.2,11.82,3.14,13.6,8.76c1.57,5-1.08,11.45-6.1,15.2a17.62,17.62,0,0,1-10.51,4q-10,.1-19.93.18c-2.8,0-3.45-.89-2-3.57,3.15-5.9,7.57-9,14.5-8a49.18,49.18,0,0,0,8,0c1.86,0,3.31-.77,3.25-2.92s-1.8-2-3.28-2C263.7,168,258.71,168,253.72,168Z" transform="translate(-187.83 -134.88)" fill="#010101"/>
    <path d="M217,193.87q5.24-7.8,10.48-15.59A13.73,13.73,0,0,1,241,172.87c2.33.49,3.31,1.28,1.7,3.65-4.48,6.58-8.8,13.26-13.29,19.83a11.7,11.7,0,0,1-10.18,5.27c-3.82,0-7.63-.32-11.45-.46-4-.15-5-2.52-4.59-6.06.66-5.95,1.25-11.91,1.81-17.87s5.11-3.92,8.39-4.26c3.49-.37,4.2,1.92,4,4.77-.4,5.29-.85,10.58-1.28,15.86Z" transform="translate(-187.83 -134.88)" fill="#010101"/>
    <path d="M207,168H190.56c-1.61,0-3.09-.06-2.65-2.38.85-4.4,6.46-9.3,10.89-9.31,10.45-.05,20.91.06,31.36-.05,4,0,4.67,1.17,2.69,4.61-2.8,4.87-6.38,7.77-12.42,7.21C216,167.67,211.47,168,207,168Z" transform="translate(-187.83 -134.88)" fill="#010101"/>
    <path d="M252.5,201.28c-5.15,0-10.3,0-15.45,0-2.61,0-3.63-.57-2.05-3.49,3.16-5.87,7.73-9.19,14.42-8.53,8.15.8,16.27.28,24.4.16,1.49,0,3.11-.54,4.11.94,1.15,1.67-.61,2.62-1.18,3.91-2.62,5.84-7.11,7.74-13.29,7-3.61-.4-7.3-.07-11-.07Z" transform="translate(-187.83 -134.88)" fill="#010101"/>
  </g>
</svg>
