<svg id="Layer_1" data-name="Layer 1" xmlns="http://www.w3.org/2000/svg" width="348.3" height="115.81" viewBox="0 0 348.3 115.81">
  <title>tv2nord</title>
  <g>
    <path d="M345.13,183.44c-1.22,12.05-2.4,23.58-3.56,35.11-.48,4.8-1.06,9.59-1.37,14.4-.38,5.77,1.63,8,7.4,8.11,11,.14,22-.38,33,.2,9,.49,14.68-3.61,19.25-10.7,8.28-12.85,16.73-25.58,25.17-38.33,3.66-5.51,7.48-10.92,11.85-17.3-9.27,0-17.82-1-26.26.61-4.1.78-6.48,4.51-8.76,7.79C392,197.51,382.21,211.77,372.37,226c-1.56,2.26-2.94,4.72-6.42,7,.85-7.84,1.54-14.63,2.33-21.4,1-8.93,2.46-17.8,2.93-26.8.39-7.64-1-9.58-8.81-9.78-12.32-.32-24.65-.27-37-.38H321c10.55-16.83,21.12-31.85,41.2-36.86C369.15,136,376,135.7,383,135.7q64.23,0,128.46.1c2.26,0,5.37-.92,6.48,1.23.9,1.74-1.66,3.65-2.8,5.37q-19.83,30.19-39.84,60.28c-6.06,9.13-12,18.34-18.44,27.22-9.65,13.35-23,20.27-39.4,21.31-5.47.34-11,.16-16.48.17H277c-5,0-5-.2-3-4.87s5.43-6.16,10.05-5.24c14.33,2.87,24-3.45,31-15.34,7.66-13.06,16.43-25.4,24.86-38A10.15,10.15,0,0,1,345.13,183.44Z" transform="translate(-169.79 -135.61)"/>
    <path d="M235.86,241c-5.5,0-11,.11-16.48,0-6.83-.17-9.25-2.57-8.51-9.24,1.9-17.18,4.1-34.34,6.21-51.5.35-2.82,1.77-4.61,4.85-4.63,6-.05,12,0,18-.21,3.23-.1,2.42,1.92,2.2,3.65q-2.81,22-5.65,44c-.34,2.64-.72,5.28-1.1,7.91-.14,1-.43,2.11.6,2.7,1.46.84,2.06-.56,2.76-1.38,6.66-7.88,11.92-16.77,17.86-25.17,6.31-8.95,12.26-18.16,18.31-27.3,2.14-3.24,5.09-4.52,8.88-4.43,5.83.13,11.65.08,17.48.19,1.43,0,3.38-.73,4.16.77s-.68,2.72-1.51,3.94Q290.8,199.63,277.71,219c-3,4.4-5.9,8.83-9,13.1-4.26,5.81-9.78,9.27-17.33,9-5.16-.21-10.32,0-15.48,0Z" transform="translate(-169.79 -135.61)"/>
    <path d="M302.91,136c-4.57,6.51-8.67,12.69-13.12,18.6-2.88,3.83-7.16,5.26-11.88,5.26H169.79c4.58-7.34,7.62-14.86,13.45-20.63a10.7,10.7,0,0,1,7.9-3.57q54.42.13,108.84.07C300.75,135.7,301.52,135.83,302.91,136Z" transform="translate(-169.79 -135.61)"/>
  </g>
</svg>
