<svg id="Layer_1" data-name="Layer 1" xmlns="http://www.w3.org/2000/svg" width="350.15" height="111.74" viewBox="0 0 350.15 111.74">
  <title>tvmidtvest</title>
  <g>
    <path d="M307.4,206.5c0-11.32-.18-22.65.05-34,.15-7.33,5.29-11.07,11-8.48.88.4,2.12.91,2.39,1.66,1.87,5.16,4.71,2.94,7.56,1.17,10.16-6.34,29.6-5.45,38.43,5.57,2.05,2.56,3.06,1.57,4.94-.28,13.23-13,36.54-12.17,48.26,1.55a29,29,0,0,1,6.8,18.84c.3,15.81.18,31.64.1,47.46,0,5.83-2.92,9-7.71,9s-7.68-2.92-7.73-8.95c-.12-13,0-26,0-39,0-2-.12-4-.17-6-.48-17.06-15.63-20.8-27-15.82-7.25,3.17-9.14,9.71-9.2,16.89-.13,14.65,0,29.31-.09,44,0,5.7-3.13,9-7.86,8.89-5-.12-7.93-3.62-8-10-.07-12.49,0-25,0-37.47,0-2.16,0-4.33-.05-6.49-.3-11.4-6.62-17.81-17.6-17.87-10.69-.06-18.28,7.11-18.44,18-.23,14.82-.06,29.65-.08,44.47,0,5.91-2.53,9.11-7.3,9.37s-8.17-3.15-8.25-9.09C307.29,228.82,307.4,217.66,307.4,206.5Z" transform="translate(-166.7 -137.41)"/>
    <path d="M251.23,238.15c10.15-23.55,19.91-46.21,29.67-68.88.33-.75.56-1.55.92-2.29,1.15-2.35,2.85-3.89,5.55-2.6,2.53,1.2,3,3.32,1.84,5.87q-6.07,13.63-12.08,27.29-10.15,23-20.3,46c-1.17,2.64-2.5,5.33-5.9,5.27-3.18-.05-4.34-2.65-5.44-5.14Q230.1,208.84,214.73,174c-1.1-2.5-2.52-3.93-5.61-3.87-10,.2-20,.18-30,0-3.19,0-4.27.8-4.24,4.19.18,17,.06,34,.08,51,0,10.72,5.13,15.93,15.83,16.12a29.37,29.37,0,0,0,8.85-1.3c1.91-.56,3.69-.15,4.4,2.1.64,2,0,3.69-1.94,4.52-13.74,5.8-35.42,1.56-35.19-20.07.3-28.16.05-56.32.16-84.49,0-1.75-1.85-4.94,2.64-4.82,3.69.1,5.16,1.87,5.22,5.18.09,5.5.2,11-.05,16.49-.14,3.19,1,3.92,4,3.87,11.16-.18,22.33.07,33.49-.2,4.89-.12,7.41,1.69,9.31,6.28,9.18,22.22,18.74,44.29,28.17,66.41C250.11,236,250.43,236.57,251.23,238.15Z" transform="translate(-166.7 -137.41)"/>
    <path d="M477.63,227.69c8.09-19.28,15.77-37.61,23.47-55.94.51-1.22,1-2.45,1.63-3.63,2-4,6.24-5.58,10-3.82a7.72,7.72,0,0,1,3.56,9.74q-7,16.5-14.25,32.88c-5.29,12-10.75,23.89-16,35.88-1.65,3.75-4.29,5.92-8.32,6s-6.92-2.11-8.54-5.76Q456,213.52,443,183.94c-1.35-3-2.75-6.05-4-9.13-1.8-4.54-.33-8.63,3.64-10.5s8.33-.41,10.39,4.05c2.93,6.31,5.36,12.85,8,19.28C466.43,200.66,471.83,213.69,477.63,227.69Z" transform="translate(-166.7 -137.41)"/>
  </g>
</svg>
