<svg id="Layer_1" data-name="Layer 1" xmlns="http://www.w3.org/2000/svg" width="348.25" height="294" viewBox="0 0 348.25 294">
  <title>tvost</title>
  <g>
    <path d="M169,300c3.26-3.55,6.3-7.35,9.86-10.58s4.13-6.23,2.57-10.62c-6.06-17.07-6.52-34.2.39-51.2,4-9.88,11.28-16.63,21.31-19.6,16.72-4.95,33.46-5.48,49.62,2.56,2,1,4,1.87,6-.06,4.47-4.39,9.9-5,15.76-4,.49.08,1,.06,1.49.14,2.84.47,7.06-1.26,8.16,1.79.88,2.43-2.88,4.63-5,6.17-8.6,6.19-10.81,13-7.23,23.78,4.81,14.45,1.71,29.34-3.36,43.51-3.46,9.65-10.89,15.32-20.38,18.4-15.7,5.07-31.36,5.67-46.88-.76-3.76-1.55-7.32-2.12-10.58,1.23-1.35,1.39-3.36,1.3-5.21,1.3L169,302Zm33.07-32.18c12.4-13,23.62-24.89,34.87-36.7,2.41-2.53,1-3.88-1.51-4.54A36.91,36.91,0,0,0,211,228.23a12.05,12.05,0,0,0-5.79,5.33C199.29,244.12,200.88,255.28,202.07,267.82Zm47.62-13.88c0-1.35.05-3.52,0-5.67,0-1.12.31-2.58-1-3.09s-2.08.78-2.85,1.58q-14.85,15.48-29.65,31c-3,3.16-1,4.4,2,4.7a52.92,52.92,0,0,0,17.34-.66,15.17,15.17,0,0,0,11.11-9.07A38,38,0,0,0,249.69,253.94Z" transform="translate(-169 -46)"/>
    <path d="M516,340c-6.54-6.41-13-12.94-19.68-19.18a13.28,13.28,0,0,1-4.67-10.47q.12-117,0-233.92a12.79,12.79,0,0,1,4.06-9.75C502.58,59.89,509.25,52.91,516,46c2.09,1.11.94,3,.94,4.5q.1,142.5,0,285C516.94,337,518.09,338.89,516,340Z" transform="translate(-169 -46)"/>
    <path d="M320.84,304.09a112.34,112.34,0,0,1-30.93-5.52c-5.44-1.88-6.09-3.6-3.85-9a75.55,75.55,0,0,0,2.87-8c1.15-4,3.35-5.41,7.44-3.86a101.64,101.64,0,0,0,19.72,5.32c5.14.84,9.93,0,14.74-1.36,3.62-1,6.5-3.21,6.61-7.19s-3.1-5.2-6.19-6.24c-8.84-3-17.7-5.85-26.54-8.77-10.2-3.37-17.11-9.75-17.93-20.95-1-13.48,4.59-23.7,15.43-28.86,11.38-5.41,23.52-5.56,35.73-4.63,5,.37,9.91,1.11,14.85,1.82,3.54.5,4.89,2.35,3.48,6-1.21,3.1-2,6.38-3.21,9.45-2.18,5.37-5.08,7-10.61,5.39-6.39-1.83-12.82-1.75-19.32-1.52a12.87,12.87,0,0,0-3,.26c-3.94,1.12-9,1.49-9.5,6.62-.53,5.5,4.51,6.2,8.45,7.44,8.56,2.7,17.22,5.15,25.69,8.12,9.7,3.4,15.35,10.45,16.25,20.74,1,10.81-2.19,20.16-11.4,26.65C341.16,302,331.45,304,320.84,304.09Z" transform="translate(-169 -46)"/>
    <path d="M403.75,151.74c1.53-1.12,1.61-2.87,2.09-4.4q9-28.58,18-57.17c2.12-6.71,2.94-7.35,9.86-7.37,4,0,8,0,12,0,5.73,0,6.51,1.12,4.45,6.59-6.58,17.45-13.27,34.86-19.86,52.31-3.66,9.66-7.17,19.37-10.84,29-2.41,6.35-4.4,7.59-11.26,7.54-4.16,0-8.33-.14-12.49,0s-6.59-1.44-8-5.27c-10.63-28-21.36-56-32-84-1.8-4.75-.79-6.12,4.18-6.18,4.67-.06,9.35.26,14-.07,5.44-.39,8.17,1.9,9.72,7.07,5.72,19.14,11.74,38.2,17.7,57.27C401.82,148.7,401.84,150.7,403.75,151.74Z" transform="translate(-169 -46)"/>
    <path d="M301.39,82.72c10.66,0,21.32.13,32-.07,5.05-.09,8.17,1.62,9.52,6.73a75.38,75.38,0,0,0,3.95,10.24c1.41,3.28.46,4.64-3.08,4.59-5.33-.07-10.66.09-16,0-9.72-.11-9.74-.14-9.73,9.82q.06,27.74.15,55.46c0,8.05-.76,8.75-8.92,8.69-2.66,0-5.33,0-8,0-8.15.1-8.63-.34-8.63-8.27q0-28.48.06-57c0-8.67-.12-8.75-8.57-8.7-5.49,0-11-.11-16.49,0-4.32.12-6-1.87-5.86-6,.13-3,.13-6,0-9-.23-4.74,2.09-6.61,6.64-6.58C279.4,82.77,290.39,82.72,301.39,82.72Z" transform="translate(-169 -46)"/>
    <path d="M410.45,206.65c11.34,0,22.67.09,34,0,4,0,5.65,1.44,5.73,5.56.28,16,.37,15.94-15.6,16.06-15.14.11-13.46-2.5-13.52,13.48-.06,17.5,0,35,0,52.49,0,6.85-1.52,8.47-8.28,7.72a54.55,54.55,0,0,0-10.92.12c-4.45.39-6.31-1.44-6.28-6,.15-20,.06-40,.1-60,0-7.64-.21-7.87-7.8-7.83-6.17,0-12.33,0-18.5,0-4.06,0-5.55-1.77-3.88-5.69.13-.31.2-.64.32-.95,5.35-14.88,5.35-14.88,21.13-14.88Z" transform="translate(-169 -46)"/>
  </g>
</svg>
