<svg id="Layer_1" data-name="Layer 1" xmlns="http://www.w3.org/2000/svg" width="297.31" height="160.62" viewBox="0 0 297.31 160.62">
  <title>tvsyd</title>
  <g>
    <path d="M427.31,265.11c-12.77,0-23.27-.17-33.76.09-3.89.09-4.88-1.29-4.63-4.9a93,93,0,0,0,0-12.49c-.25-3.78,1.24-4.89,4.89-4.87,19.16.13,38.33.06,57.49.06a45.47,45.47,0,0,0,8.93-.77c5.18-1,7.7-4.28,8.41-9.18s-1.24-8.25-5.35-10.87c-10-6.38-21.61-8.4-32.61-12-10-3.24-19.77-7-28.59-12.6-10.81-6.92-14.53-17.45-12.95-29.81,1.44-11.29,6.86-20,17.9-24.37A61.36,61.36,0,0,1,426.39,139c18.65-1,37.32-.26,56-.55,3.14-.05,4.54,1.38,4.45,4.54-.11,4.16-.27,8.34,0,12.49s-1.2,5.6-5.41,5.56c-17.66-.18-35.33-.09-53-.07a36,36,0,0,0-7.93.7c-4.64,1-6.67,4.23-7.33,8.43-.68,4.39,1.17,7.66,5.2,9.82,10.47,5.62,21.9,8.59,33.15,12,9.69,3,19.34,5.9,27.76,11.91,11.93,8.49,16.33,21.14,12.39,36.58-3.37,13.22-13.79,21.85-27.68,23.64C451,265.79,438,264.67,427.31,265.11Z" transform="translate(-195.75 -107.08)"/>
    <path d="M391.93,138.72c-4.11,10.86-7.95,21.05-11.84,31.22q-16.32,42.72-32.7,85.43c-3.58,9.34-7.63,12.27-17,12.33-9.84.06-14.33-2.71-17.88-12-12.63-33.14-25.09-66.34-37.64-99.51q-2.55-6.75-5.29-13.43c-1.11-2.7-.6-4,2.6-4,5.82.08,11.66.09,17.48-.1,3.23-.11,4.29,1.93,5.21,4.35q8.07,21.41,16.13,42.79,8.5,22.56,17,45.13c.42,1.11.65,2.34,2.06,2.49,1.78.18,2.13-1.33,2.58-2.53q13.22-35.41,26.4-70.84c2.19-5.9,4.34-11.82,6.5-17.73.81-2.22,2.12-3.66,4.73-3.63C377.21,138.76,384.19,138.72,391.93,138.72Z" transform="translate(-195.75 -107.08)"/>
    <path d="M195.89,170.39c0-19,.2-38-.13-57-.1-5.3,1.67-6.7,6.56-6.26a85.53,85.53,0,0,0,12,0c3.57-.17,4.67,1.43,4.59,4.78-.17,7.17.13,14.34-.19,21.49-.2,4.22,1.35,5.56,5.42,5.48,10-.22,20,0,30-.23,3.69-.07,5.91,1,7,4.72,1.21,4.12,2.91,8.11,4.49,12.11,2,5.16,2,5.33-3.79,5.37-12.16.06-24.32,0-36.49,0-6.6,0-6.56,0-6.55,6.68,0,19.32,0,38.65.09,58,0,11.56,6,17.46,17.56,17.52,7.66,0,15.33.11,23-.06,3.46-.07,4.81,1.16,4.65,4.66-.22,4.49-.15,9,0,13.5.07,2.68-.76,4-3.7,3.88-11.8-.35-23.63.53-35.43-.93-14-1.73-26.18-13.72-27.93-27.81-2-16.11-.7-32.28-1.06-48.42C195.77,182.05,195.88,176.22,195.89,170.39Z" transform="translate(-195.75 -107.08)"/>
  </g>
</svg>
