<svg id="Layer_1" data-name="Layer 1" xmlns="http://www.w3.org/2000/svg" viewBox="0 0 400 400">
  <title>kort_kbhture_A12-01</title>
  <g style="opacity: 0.47000000000000003">
    <path d="M54.485,92.11l2.1232-2.2564c1.3183-1.4979,1.8354-3.48,3.0775-5.0245l-.1124.1365c1.958-2.03,4.6026-3.42,5.6279-6.321A2.449,2.449,0,0,1,68.9628,77.3c4.7609,2.595,8.8473.8046,12.7613-1.7844a6.1527,6.1527,0,0,1,5.2063-1.09c8.6074,2.0579,16.3749.7,22.7876-5.8136l-.1247.1243a47.7067,47.7067,0,0,0,4.1956-6.2224l-.1122.137c4.5745-5.4409,5.781-12.7285,10.1528-18.28a18.1168,18.1168,0,0,0,4.3043-6.1782c.51-.9325,1.2334-1.8589,2.3386-1.6187,9.6011,2.0866,15.94-3.5153,22.26-9.2005a10.0228,10.0228,0,0,1,.7391-.6939c1.1472-.8366,2.2453-2.99,3.6929-1.68,1.61,1.4569-.8217,2.3911-1.4856,3.5427a17.4265,17.4265,0,0,1-1.1691,1.651l.1118-.1369c-2.74,4.26-5.6529,8.5069-1.0209,13.3244l-.1117-.1377c2.6306,2.7247,4.1176,5.738,2.6348,9.6029a6.1542,6.1542,0,0,0-.0426,2.0155c-.1314,10.1991-.2066,10.1632-5.0515,20.129-1.8368,3.7782-1.5149,8.2777-3.6631,12.0061l.1092-.1276c-1.1586,1.3633-2.5186,2.6092-2.6857,4.5525-2.2766,6.074-.6353,11.9206,1.1339,17.7234.3628,1.19,1.094,2.8139-.6765,2.547-5.0124-.7554-6.048,3.3907-8.31,6.0195a11.7633,11.7633,0,0,1-3.2145,3.181,8.1456,8.1456,0,0,1-1.4179.59c-2.1585.4172-4.207,1.2195-6.3294,1.7472-4.29,1.0665-7.7.145-9.473-4.2919-3.5641-3.1821-8.0143-3.6468-12.5016-4.2866-3.8428-.548-8.8815.4575-9.3787-5.8064-.0723-.9106-1.7545-.6989-2.7054-.9733a3.1136,3.1136,0,0,1-1.2116-.7212c-1.2547-1.4981-1.2566-3.2169-.9554-5.0232.3116-1.8676-.36-2.8143-2.4055-2.262-2.559.3829-5.1948.5951-6.5441,3.3233A10.841,10.841,0,0,1,79.892,104.3c-1.9488,2.36-2.5379,5.5769-4.78,7.7126-2.26,2.1525-4.5516,4.2552-7.7071.9551-2.2579-2.361-5.0213-.625-7.0152.347-3.373,1.6441-5.4782.8338-8.0866-1.4744a7.6492,7.6492,0,0,1-2.4765-8.6033C50.9221,99.3511,53.0046,95.85,54.485,92.11Z" style="fill: #fefefe"/>
    <path d="M196.3378,262.3353c1.0069-.5316,2.0457-1.0125,3.009-1.6132.6058-.3776-.6586-2.3653,1.2562-1.6235a3.694,3.694,0,0,1,1.6794,1.8148c.5474,1.1468-.3656,1.3829-1.275,1.4872-1.296.1487-1.9054.7011-1.0065,1.9385.7887,1.0855,2.0631,1.6377,3.0488.7406,1.7314-1.5758,4.5114-2.4552,3.8879-5.5378,2.2564-.1248,2.65,1.9853,4.4006,2.3665.1145-.3477.1327-.816.3762-1.0759,1.7885-1.9088-4.0177-2.6781-.7917-4.4478,2.3951-1.3138,5.2194-2.4771,7.7433.1594a3.0719,3.0719,0,0,0,3.7377.4611c.9125-.4179.7119-1.5516.287-2.2337-.9787-1.5712-2.1212-2.3127-3.1.0659-.3978-.1851-1.0229-.2685-1.16-.5705-2.3993-5.2964-7.9195-6.0034-12.8316-8.0571,1.31-1.91,5.0162.279,4.4138-3.4107-.4951-3.0322-2.4959-3.2452-4.9075-3.8147-4.8467-1.1448-9.7122-.8353-14.5865-.953a6.2891,6.2891,0,0,0-4.5743,1.6016c-.6.506-.045,3.0621-2.0444,1.6072-1.0751-.7824-.7572-1.7716.0409-2.5761,2.02-2.0363.26-5.3684,3.0169-7.4835,1.5735-1.2074-1.1551-2.1376-2.0753-3.1215-1.9554-2.09-5.9268-3.7476-.1948-6.591,2.9413-1.4591,1.7475-4.95.5338-7.6467-.2512-.5583-.5765-.7884-.9274-.2839-1.01,1.4519-2.9694,2.7529-3.42.8254-.2879-1.2314-1.3165-4.6791,1.9258-5.7837,2.39-.8142,1.4549-2.5765.77-4.0768-1.84-4.03-5.391-5.3973-9.763-5.4542,1.1686-2.7067,3.3811-.6906,4.7291-2.1768-1.3039-2.3863-3.6332-3.7187-8.0119-4.1794,2.8965-1.2554,4.219-1.9505,6.1658-1.4708,3.87.9538,7.8021-.6883,11.7734.0895,3.0472.5968.8349-3.152,2.5813-3.7943,1.956-.006.7877,2.0506,2.0507,2.6169,1.4314-2.2478,3.2415-4.1123-1.5324-5.0119-2.8151-.53-5.4171-2.456-7.9593-4.0062-1.0873-.663-3.5924-1.2723-2.2781-3.0919,1.5931-2.2057,2.3017.7008,3.39,1.2742,3.9872,2.1,7.7858,4.5144,12.6608,4.0964,2.5206-.2162,4.2907-.5829,4.18-3.6724-.1038-2.8862-1.4874-4.3857-4.2965-4.5249a10.37,10.37,0,0,1-6.4506-2.2254c-.9458-.8105-.6389-2.1624-.3162-2.9975.7494.6184,1.7365,2.0168,2.3817,1.8754,6.8136-1.4936,13.1336,5.4637,20.3614.7905,2.1168-1.3686.9963,2.1831,1.5681,3.3818-.6677,2.6735-3.52,4.336-1.7625,8.2054,2.6873,5.9152,5.3956,8.6091,11.8418,8.3655.8625-.0326,1.8463-.0195,2.2645-.8421,1.169-2.3,2.732-2.1509,4.5818-.9454,1.9729,1.2856,2.6542,2.9875,1.7541,5.2219a14.1,14.1,0,0,0-.695,1.9034c-.5727,2.3506-.3952,3.9607,2.8092,3.7214,2.41-.18,4.8067.2849,5.7459,3.0954-2.1822,2.3622-5.5331,2.9528-6.5989,7.2457-1.2769,5.1435,1.2218,7.0308,4.5864,7.5495,5.0124.7728,6.8483,4.1986,6.8326,7.8192-.0182,4.1835-3.3793,6.6183-7.9062,6.643-3.1216.017-5.2634,2.6234-8.22,3.079-.7161-2.6509,1.1237-3.5951,3.0456-4.4425a22.7392,22.7392,0,0,1,4.4515-1.0425c2.4309-.5306,4.6879-1.4786,5.0717-4.2585.3823-2.7689-1.8389-3.62-3.8764-4.6183-8.2936-4.0652-9.5344-9.3252-3.6587-16.9029-3.3157.0407-6.47.0451-7.5566-3.759a2.1442,2.1442,0,0,0-2.5885-1.1981c-3.5834,1.2621-6.6332-3.1232-10.3369-.7879-.8184.516-1.9566-.3616-2.1861-1.5367a3.05,3.05,0,0,0-2.6348-2.6539c-1.8576-.4065-3.307-1.3959-2.0489-3.54.6445-1.0982-.041-.9426-.64-1.1459-3.0237-1.0264-1.9826-2.94-1.08-4.86,1.8239-3.88,1.8088-3.8875.1247-7.9269-5.8019,8.4924-10.9341,18.0984-24.497,16.1008,6.3614,8.7817,8.0044,18.4616,7.443,28.595-.2169,3.9158,2.6518,6.4677,3.5916,9.8324.1595.5712-.2075.3677.2958.3135,4.95-.5323,9.3675,2.8872,14.35,1.8583,2.0668-.4267,4.5615-2.9775,6.0178-1.0413,1.5777,2.0975,3.3066,5.0092,3.0705,7.7439-.4149,4.8084,2.4064,7.0915,5.7866,9.2048,4.3462,2.7173,5.1948,2.4013,7.54-2.4485.8675-.8354,1.5828-.5064,2.2152.2666a.9922.9922,0,0,1,.322.7472c.3922-.06.29-.0967-.063-.3942-.5127-.4315.21.1646-.2055-.3969-.4581-2.7082-1.8025.1464-2.5937-.431-2.5667-1.1514-1.3283-5.1623-5.0559-6.0115-1.7035-.388-1.2808-3.5967.9621-4.8252,1.4663-.8031,3.1044-1.3649,4.8219-.5305-.024,2.16.1223,3.7394,2.34,5.4789,4.341,3.4048,7.0881,8.8222,14.1021,7.9992,2.2-.2581,4.0514,2.2245,3.9,4.9039-.2025,3.5794-3.635,2.2584-4.59,1.7878-6.9815-3.44-9.2116,4.5394-14.2442,5.5047.55,8.6049-10.2773,12.47-8.84,21.7749.9732,6.3021-4.319,2.0536-6.5062,3.2553-.9114-2.2811,1.0679-2.2383,1.8143-2.5714,2.57-1.1469.9877-2.8367.0879-3.1605-5.0154-1.8048-10.1557-.7262-15.2507-.0846-.1325.0168-.2185.2781-.3632.3393-1.4621.6194,1.4774,5.0064-2.6615,3.1791-1.6386-.7235-2.9293-2.1863-4.4848-3.1415-5.2244-3.2082-10.4244-6.4687-15.79-9.43a8.1293,8.1293,0,0,1-4.0188-4.1884c-.2395-.6036-.3957-1.24-.59-1.8612,5.1023-.8258,2.0652-5.5218,3.834-8.0827,2.4574-3.5578,5.9384-3.2069,9.2692-3.31,2.1563-.0668,2.3812-1.6084,3.0368-2.7631,1.1151-1.9644,2.0582-3.8982,5.1609-3.0822l-3.7179,4.1652c2.8992,2.3324,5.3425-.2878,7.9584-.3409,1.3255-.0269,3.8727-1.3816,3.8783,1.5165.0039,1.9883-1.0258,2.5694-3.4176,1.7841-2.2682-.7447-5.2723,3.4341-4.6031,5.7521-2.1811,1.364-3.0362-.6655-4.126-1.7211-2.3968-2.3217-5.1143-2.43-8.0267-1.4328-1.9579.6706-2.5879,1.8744-1.5859,3.9228,2.0478,4.1865,1.98,4.2195-1.9017,7.34,5.7624,2.47,11.2138,5.0635,15.8075,9.0747,1.4548,1.27,3.1867,1.0245,4.7292-.0218a13.0134,13.0134,0,0,1,9.2355-2.113c2.8052.3716,3.2469-.8686,3.6153-3.2509.5105-3.3008-1.3784-5.4762-2.9617-7.7685-.917-1.3276-2.6608-1.4733-2.8575.5954-.3315,3.4872-2.2339,2.7432-4.1979,1.8368C200.9766,267.41,196.59,267.2867,196.3378,262.3353Z" style="fill: #6db5cd"/>
    <path d="M145.2581,202.5967l1.19-1.1628c2.3315-.159,2.8642,1.9444,4.0732,3.1972l-.0766-.0986c.7029,1.3309.9527,2.8787,1.9684,4.06q.6543.7376,1.3085,1.4753c-.7892,4.6976,2.5579,5.3287,5.8615,5.5084,1.7376.0945,3.3071.1192,4.6728,1.2791,6.8716,7.9909,7.8752,15.8454,2.9564,25.0156a13.7717,13.7717,0,0,1-13.1857,7.1526c-6.2875-.4216-12.8895-2.23-15.9058-9.3058-1.3529-3.1736-4.9532-3.9081-7.5548-5.6982-2.0312-1.3977-4.1234-2.4855-3.1486-5.511a2.9983,2.9983,0,0,0-.5264-2.89c-3.8523-3.19-2.2575-9.0854-6.3864-12.1819-1.7138-1.2853-.8754-3.1329.6057-4.3026,2.3245-1.8358,3.6635-.1521,4.91,1.5836l-.0916-.0841c1.8127.99,3.7466,1.0418,5.0575-.5264C134.7387,205.6189,139.9452,204.0505,145.2581,202.5967Z" style="fill: #fefefe"/>
    <path d="M147.4238,112.11c1.8452,2.1152,2.9142,4.0634.9845,6.9988-1.3635,2.074.4148,4.1816,1.9037,5.8648a7.24,7.24,0,0,0,7.4226,2.2417c2.2309-.7076,4.5456-.8142,6.7675-1.4664,6.8436-2.0087,12.7224,4.9063,11.1976,11.82a25.7462,25.7462,0,0,1-8.0718,14.0036c-1.6326,1.49-.05,3.7056-1.25,5.1931-.9119,1.13-.1281,4.5825-3.2153,2.85-1.8157-1.019-3.8827-2.64-1.498-5.1909a11.3611,11.3611,0,0,0,.9686-1.5392c-3.8163.3873-5.3778,2.3244-4.9318,5.6865.2229,1.68,1.8024,3.526-.9975,4.3381-.6041.1752-1.2846,1.4679-2.0055.3305-.9967-1.5727-1.7067-3.2673-.822-5.1721.1123-.2418.2043-.4929.4037-.9783-2.4317.2434-4.9324,2.2441-6.7485-1.347-.9531-1.8846-2.6453-.9257-3.63.993a4.7127,4.7127,0,0,0-.4742,3.8714c2.5792,5.4478.0894,11.3044,1.6378,16.78.2634.9315.3694,1.6842-.8141,1.7828-2.0466.17-3,.7637-2.0928,3.0783.368.9388-1.077,2.2082-1.8066,1.91-4.2589-1.7417-4.0834,3.2106-6.5478,4.107a1.1813,1.1813,0,0,0-.42,1.7274c1.7232,3.1327-.0523,6.27-3.9279,6.4167-2.7843.1056-4.7248,2.5841-7.5557,2.2569-3.6417.9009-5.2119-1.4394-5.3724-4.2493-.1607-2.8152-1.5126-3.82-3.8163-4.4042-4.4543-2.5552-5.5115-7.68-8.6333-11.2428-1.7417-2.7735-4.6115-3.1137-7.4812-3.408a5.758,5.758,0,0,0-.9159.7669c-.9056,1.171-1.2816,2.6343-2.1581,3.8208a12.11,12.11,0,0,1-5.6057,4.0717,6.162,6.162,0,0,1-4.8213-1.0741c-3.2844-2.5017-4.8573-.63-6.007,2.3248-2.3729,2.2236-4.37-.0016-6.5114-.5329a15.5912,15.5912,0,0,0-4.6109-.0313c-1.7622.4169-1.8693,2.1232-2.6175,3.3271a2.313,2.313,0,0,1-1.0132.8249c-2.7619.5371-4.5314-2.7793-7.39-1.8649a8.4849,8.4849,0,0,1-1.3315.2078,4.6162,4.6162,0,0,1-3.2061-.9249c-1.4775-1.18-2.8053-1.8584-4.0518.2169-1.3314-10.2366-5.58-20.3216-2.7853-30.76,1.0407-3.8872-.177-7.2256-.196-10.8143-.06-11.396-.7891-22.8717,4.1694-33.6532,2.7657-1.9442,5.08-.4335,6.6351,1.51,1.3794,1.7243,2.355,1.4045,4.1761,1.1031,3.4143-.5651,6.8183-3.7766,10.5783.2812,1.1692,1.2619,4.36-.49,5.9871-2.4436,2.1757-2.6126,3.2015-5.8891,5.1525-8.6253l-.0884.1c1.4951-3.9343,5.5675-3.0749,8.4263-4.4735,2.7244-.2666,2.7528,1.6078,2.05,3.1517a4.4638,4.4638,0,0,0,.8718,5.38l-.1-.0989c1.104.8949,3.7767.6757,3.3827,2.36-1.0868,4.6441,2.3449,3.7817,4.6076,4.0766,5.9218.7719,11.5911,2.7405,17.51,3.4818.2505,5.4132,1.5575,6.5835,7.0042,6.1674,3.3565-.2563,6.4035-1.5563,9.43-2.8993l-.1054.0857a2.9622,2.9622,0,0,1,2.9218-.3135c.9219,1.4721-.3317,2.1628-1.1582,2.8874-5.6256,4.9323-16.8487,4.8346-22.8059.3168-5.0439-3.8252-11.1688-5.1525-17.4007-5.1284-4.5045.0174-5.9725-.8913-5.5939-5.2446a5.5585,5.5585,0,0,0-1.0032-4.2774,3.1765,3.1765,0,0,0-3.0407-1.47,2.23,2.23,0,0,0-2.04,2.5012c.2774,4.2679-2.6875,5.1028-5.8973,6.3-7.8328,2.9213-15.6745,4.5262-23.8587,1.7554-1.7031-.5766-1.7373.45-2.4427,1.4821-4.0608,5.9427-2.7869,12.6181-2.6644,19.0437a83.0059,83.0059,0,0,1-.0731,9.0422,87.9645,87.9645,0,0,0,2.2652,30.1166c1.2111,4.6532,6.9489,6.8807,11.2207,4.3381,3.24-1.9285,6.4936-2.86,10.16-2.1371a3.115,3.115,0,0,0,3.5065-1.3956c2.0215-2.9351,4.8122-3.5235,8.0843-2.6376a7.0215,7.0215,0,0,0,8.1039-2.7439c2.6331-3.5414,5.8352-3.3286,9.5168-1.7844,4.5,1.8874,8.37,4.1845,10.1142,9.1463.9248,2.63,3.36,4.2045,5.6632,5.6713,2.0659,1.3157,3.8574,2.79,4.3794,5.3271.5081,2.4694,1.6611,4.0441,4.5568,3.4565,2.8162-.5715,5.4361-1.3393,5.38-4.9213-.0445-2.8311,1.09-5.2571,2.3923-7.6515.9195-1.69,2.0688-3.061,4.1254-3.4574,3.6692-.707,4.0292-2.853,3.7089-6.3537-.51-5.5788-2.6442-11.3123.282-16.884,2.9136-5.5476,6.98-7.1794,12.521-4.302,1.8452.9582,2.6866.8036,4.3412-.0814,3.5168-1.881,5.2114-.7289,6.0184,3.8457-.3428-4.23,2.6-6.6833,4.8551-8.988,3.807-3.89,2.4838-8.5514,2.6405-12.8.091-2.4666-2.4426-4.7851-5.7976-4.4944a34.7436,34.7436,0,0,0-8.4919,1.6142c-4.5814,1.5915-13.6685-2.9239-15.2494-7.3719-.8874-2.4965,2.16-3.7526,1.67-6.2373-3.2372.0231-3.7809,5.8174-7.8845,3.6708C138.7169,112.7437,140.9729,111.1226,147.4238,112.11Z" style="fill: #850041"/>
    <path d="M112.75,189.2465c3.4708-.05,5.8356.4929,4.8343,5.1042-.5382,2.4783,2.0187,3.6873,4.3166,4.3156,1.0213,3.438-2.9766,5.9357-1.7748,9.598,3.2569-2.1721,5.9277-2.8381,5.8947,2.4533a21.711,21.711,0,0,1-2.6885-1.2891c-1.6713-1.0905-1.9024.3007-2.4625,1.2617-.6885,1.1813-.5637,1.8513.8572,2.4443.9542.3981,2.4811.6413,2.3838,2.216-.3075,4.9815,4.3282,8.5163,3.9294,13.5357-.4,5.0348,4.6834,4.5649,7.1971,6.3009,2.7459,1.8964,5.5783,2.8555,4.6547,6.8821a4.3213,4.3213,0,0,0-.0366.7909c5.4437-.0841,8.6912,5.6013,14.2057,5.3358,6.88-.3313,12.2393-5.4586,13.8768-11.9475,1.8582-7.3633.7864-13.7449-4.1348-19.5084.31-.4014.5949-.4053.85.0543,6.8637,5.0765,8.8359,10.4282,6.7632,18.2435-1.5528,5.855-2.429,11.9289-8.2921,15.7113-1.479.954,2.5273.3539,1.9431,2.668-.2906,1.1512,1.005.1277,1.8483-.1841,5.0873-1.8813,4.0823-7.0305,5.8008-10.5986.8412-1.7466,2.396-4.2629.7262-6.6509-.5965-.8529-.5917-1.5881.5275-1.8774a1.6314,1.6314,0,0,1,2.0635.9218,7.608,7.608,0,0,1,1,4.3077c-.37,4.3151-.821,8.6293-.9868,12.9535-.0915,2.3846-2.78,1.506-3.6242,3.6642a82.0939,82.0939,0,0,0-4.4776,14.0443c-.4355,2.2259-1.1047,4.2864-3.3117,4.2945-2.1853.0081-2.0231-2.3434-1.88-3.9827.2716-3.1132-3.471-3.6941-4.0168-5.9783,1.0371-2.2426,3.4684,2.0344,3.9633-1.2715.3369-2.2508,1.42-4.7028.32-6.743-.9587-1.7773-2.4962.6127-4.0076.2622.9432,1.2889,3.569,1.4064,2.17,3.7559-1.2237,2.0554-2.6627.0014-3.9191.14-1.23,1.1025.0659,1.8062.2733,2.6813.5468,2.3065-1.5264,3.1608-2.6808,4.51-1.5437,1.804-3.1405.1617-3.9174-.5533-3.3017-3.039-7.1493-5.667-8.7768-10.2-.3915-1.0906-1.4313-2.2-.4839-3.1544,1.0025-1.01,2.7378-.8081,3.8595-.2911a15.0807,15.0807,0,0,1,4.8735,3.3818c2.23,2.4811,3.3517.9656,5.2674-1.4629-5.8456.5582-8.8923-3.3877-12.6935-5.98-.3967-.2706-.9388-.9116-1.1283-.817-6.1342,3.0631-4.2524-3.515-6.3678-5.246-.11-.09.1427-.6195.2266-.9443-7.5266,1.0678-2.4847-9.5481-8.991-9.57-.9087-.0031-.9564-1.4713-.6822-2.1454,1.4807-3.6393-.8448-5.18-2.8981-7.742-1.5058-1.8788-1.8453-5.3272-4.0781-7.6472-.4843,3.4028-.9955,7.0077,2.6242,8.7089,5.9853,2.8128,1.1318,5.5088-.2251,7.4439-.9571,1.3652-2.8515,2.0424-2.6828,4.24.1274,1.66-1.8,1.2423-2.4163,2.1855-2.6286-1.7045-4.4125,1.1225-6.7026,1.2334a1.6256,1.6256,0,0,1-.23-1.3672c.8116-1.6666,2.4039-2.203,3.9785-2.9062,4.17-1.8625,5.5268-6.97,4.0533-11.2335a31.035,31.035,0,0,1-1.1572-17.4386c1.4974-6.2881,1.6565-6.2635-4.2191-8.9438-2.5647-1.17-3.8042-2.5219-.7726-4.5813a2.1263,2.1263,0,0,0,.8609-2.206A1.9078,1.9078,0,0,1,112.75,189.2465Z" style="fill: #8aa80c"/>
    <path d="M46.3571,186.4948c1.0785-1.9457,2.265-3.7336,4.503-1.2387,1.0779,1.2017,2.3758,1.0683,3.7171,1.0532a1.4105,1.4105,0,0,1-.4692,1.8059c-6.5572,2.9173-5.84,9.4817-7.4908,14.8024a3.0819,3.0819,0,0,0,3.0779,4.25c6.5145.1251,10.8574,5.06,16.5289,7.113,4.1335,1.496,6.9056,5.0867,6.3226,10.4188-.9524,8.7118.8144,17.4664-.2623,26.2532-.6024,4.9155.87,5.7919,6.1164,6.7582,7.0936,1.3065,14.5434,1.4258,20.67,6.12,1.9138,1.4664,3.9088.0927,5.789-.6068,2.3065-.8582,3.94-2.6126,5.6206-4.2825,3.5819-3.56,3.57-3.5721,8.3293-2.3221-2.1975-3.5986-5.8166-4.6918-9.17-6.1724a1.2087,1.2087,0,0,1,.0586-1.3473c4.0315.9889,4.88-5.07,8.9945-4.0175.5338.1365,1.237-.5057,1.8289-.4492,4.0143.3835,13.9857,9.3948,14.4567,13.63.1306,1.1747,2.9031,2.7954-.0333,4.1289-2.3895,1.085-4.3477,3.5621-7.4129,1.1106-1.7343-1.387-3.9311-2.2029-7.3788-4.0635,2.1292,3.6521,1.6564,6.25-.8686,6.6529-3.2313.5159-4.1667-2.4538-4.8514-5.42-2.2458,2.0432-4.2457,4.1252-6.5125,5.8633-3.4358,2.6345-8.8339,2.0348-12.0779-1.0422a7.7376,7.7376,0,0,0-5.4607-2.109c-5.8653-.0889-11.4731-2.1421-17.402-2.1986-2.4619-.0235-4.491-1.7517-4.24-5.1064.3144-4.1973.055-8.4358.0824-12.6562.0094-1.4428-.2724-3.1109-1.8256-3.0619-2.0433.0645-1.4305,2.1357-1.04,3.0991,1.0773,2.6542-1.324,3.7416-2.4869,4.0758-1.6609.4773-2.9591-1.5631-2.9635-3.103-.0073-2.5467-.2586-5.1667.7964-7.6869.6622-1.5816,1.7052-1.6927,3.1333-1.7708,2.1984-.12,3.2037.8656,3.2812,3.2413,1.8165-3.3316.6663-6.53,1.2627-10.15-1.031.5735-1.4526.77-1.8328,1.0272-.9266.6266-1.4277,2.0735-2.8882,1.6045-.28-.09-.4573-.8378-.4868-1.2945-.124-1.9234,1.5527-1.3533,2.52-1.6727,3.385-1.1172,3.0218-3.95,2.2522-6.1574-.9575-2.746-2.38-5.9978-6.11-5.7347-4.0881.2883.8162,3.4283-1.2052,4.9239-.562.4158,2.5519,2.9576-.2,3.8223-1.8048.5669-2.78-1.4085-3.48-2.9524-2.8288-6.2412-6.421-11.7415-13.5868-13.727-2.53-.701-1.084-2.0434-.7389-3.3918C44.7391,198.593,47.0058,192.79,46.3571,186.4948Z" style="fill: #8aa80c"/>
    <path d="M241.3448,204.7469c-1.7549-.937-3.3332-2.2855-5.5225-2.1674-4.69.253-6.3236-2.075-3.8446-6.2077,1.3885-2.3145,1.3605-3.3537-.9479-4.6919-1.6411-.9513-2.9876-2.6463-2.6106,1.0811.0372.3681-1.863,1.3873-2.7952,1.3079a29.6863,29.6863,0,0,1-7.8875-1.4305c-3.2011-1.2048-6.594-2.7417-5.1745-7.394.1084-.3551-.2636-.9789-.583-1.32-4.17-4.4559-.1154-5.9785,2.8264-7.9027.6185.0548,1.8589.2144,1.6489-.3406-1.3742-3.632,1.27-3.9935,3.59-4.69,2.1267,2.7759,2.6858-.9806,4.1491-.9836,2.6567-1.6379,5.3392-2.31,7.8524.162,2.2953,2.2573,2.7,4.3132-.9688,5.5613-.5354-.2966-1.05-.477-.9453.5576-2.5182,2.8048-3.1248,6.782-6.1575,9.2633-3.2426,2.6531-3.9753,2.536-5.0083-1.6192a6.8822,6.8822,0,0,0-2.43-3.8632,19.3063,19.3063,0,0,0-.0756,3.7631,6.1886,6.1886,0,0,0,8.4213,5.3351c8.01-2.76,11.9141-.2051,11.9233,7.857.0042,3.6747,2.9309,3.2439,5.0773,3.3821,3.1827.2049,7.0014-2.3413,8.83,2.6525.279.7618,1.5412.2169,1.8791-.7262.39-1.0888.2263-2.4651,1.3848-3.1513,2.6788-1.5872,1.225-2.7806-.4855-3.4744-3.2166-1.3047-4.06-3.7642-4.1123-6.8611a16.1429,16.1429,0,0,0-1.34-5.9c-1.6273-3.9373-1.9311-7.768.4163-11.642,1.8628-3.0743.462-4.8162-2.6644-6.1841-6.0439-2.6447-11.5905-3.29-16.8374,1.7484a14.538,14.538,0,0,1-5.0863,3.2985c-1.2549.57-2.2149,2.3533-3.9452.9392a43.56,43.56,0,0,1,15.497-11.0644c3.8824-1.751,15.5485,2.6536,17.75,6.2383.9006,1.4668.0354,2.3488-.748,3.5363-2.1876,3.3158-4.3274,6.5728-1.2906,10.81.9877,1.3781.3512,3.9238.41,5.9368.096,3.303,1,5.8929,4.6153,7.1128,3.9816,1.3434,4.3408,5.3355,5.4218,8.6315a2.8317,2.8317,0,0,1-1.0443,2.5717c-1.6617.6734-1.93-1.8565-3.4453-1.9513-1.8064,5.1371-4.7571,5.9672-9.137,2.6695C245.9593,204.0988,243.8938,202.3337,241.3448,204.7469Z" style="fill: #003460"/>
    <path d="M360.888,251.2823a2.3039,2.3039,0,0,1-2.206-1.1661,11.84,11.84,0,0,0-1.7626-1.0076c-2.7521-.8947-6.4762-1.6363-6.7345-4.6033-.3656-4.1956-1.3424-8.7369,1.0973-12.8319.8834-1.4827,1.4963-2.4733,3.3882-.8506,4.0743,3.4944,8.81,6.1114,13.1728,9.2352,2.9151,2.0873,2.9326,10.8426-.1925,12.3916C365.2892,253.62,363.1956,251.4475,360.888,251.2823Z" style="fill: #fefefe"/>
    <path d="M158.545,169.8131c-.5731,6.1236,3.1242,6.1765,6.8075,4.9657,2.0488-.6735,2.9394-.2667,3.3867,1.3476.3884,1.402.3716,2.7477-1.6815,3.5191-3.415,1.2832-5.4838,3.6557-5.0351,7.7719.136,1.2467-.1166,3.3437-2.7929,3.04-2.1214-.2411-4.0188-.649-3.5359-3.0613.4326-2.1617-2.2574-5.5606,2.31-6.4255,1.0819-.2049.7032-1.7723.5585-2.6968a2.477,2.477,0,0,0-2.4621-2.096c-2.2218-.2786-5.8412,1.1438-6.2185-1.563-.3143-2.2543,3.8512-1.9528,5.6484-3.4634A14.87,14.87,0,0,1,158.545,169.8131Z" style="fill: #850041"/>
    <path d="M360.888,251.2823c1.335.7109,3.2976-2.95,4.308.6119.0724.2557,1.7311.4341,1.808.2665,1.0538-2.2995,2.3645-4.6087,2.714-7.0428a4.0568,4.0568,0,0,0-1.8208-4.2088c-5.0159-3.4731-10.66-6.1181-15.0532-10.3656-1.0171,2.1957-2.26,4.3666-2.4,7.2094-.2734,5.5251.3546,9.9708,7.07,10.84a15.3344,15.3344,0,0,1,3.3748,2.6894,26.1739,26.1739,0,0,1-7.7042-2.9572c-2.5506-1.5484-5.9959-1.82-3.9876-6.9145,1.1687-2.965-.19-7.0907,1.2794-10.6683,1.29-3.1412,1.8386-3.8674,4.7955-.9684,3.7135,3.6409,8.33,6.4409,12.7962,9.2257,2.2023,1.3732,4.4165,2.0827,2.9709,5.3533-.5077,1.1483-.0942,2.5521-.5051,3.9059C368.5852,254.6775,366.8731,255.2755,360.888,251.2823Z" style="fill: #003460"/>
    <path d="M80.0743,103.0931c-1.2227,5.3718-3.5279,9.9008-9.2685,11.7564-.4645.15-1.1508.5817-1.3583.4166-4.3919-3.4954-8.7306-.9327-13.0948.0037-.8328.1786-1.41-.1436-1.91-1.093-1.4459-2.7479-4.1343-3.0115-6.8978-2.9091,1.1-6.82,2.4448-13.5523,6.94-19.1581.2411,3.84-2.7639,6.5208-3.6077,10.0124-1.0417,4.3107,1.3725,11.2012,5.094,11.6076,2.4043.2625,4.7006-2.4133,7.6716-2.5731,2.2414-.1206,4.8009-2.5646,5.2442,1.9725.0795.8125,3.1436.4864,4.3444-.7412A15.562,15.562,0,0,0,77.1,106.2147C77.5119,104.9366,77.6189,102.72,80.0743,103.0931Z" style="fill: #822434"/>
    <path d="M109.718,68.6121c-5.87,8.7538-14.8175,7.3515-23.3529,6.6708-1.574-.1255-2.5364-.2479-3.96.5765-4.1312,2.3924-8.2361,5.388-13.4378,2.076a2.29,2.29,0,0,0-3.5119,1.5158c-.848,2.8816-3.1851,4.4472-5.8819,5.514,1.4709-3.1036,5.2737-4.6954,5.5135-8.7445.0451-.7621,2.4794-.7834,3.651.02,4.2727,2.93,8.3025,1.5479,12.0278-.8671,2.903-1.8818,5.1194-2.3818,8.8448-1.1483,5.5794,1.8473,11.4252.1956,16.34-3.4537C107.1276,69.8971,107.874,68.3256,109.718,68.6121Z" style="fill: #822434"/>
    <path d="M184.6131,58.3369c1.1211.8648,2.684.2674,3.0142,2.6942.5207,3.8265-1.69,1.1962-2.6361,1.6412-2.7887,1.3113-3.1035,4.5937-4.836,6.8079-.57.7281-1.0273,1.5562-1.7677,1.14a48.9739,48.9739,0,0,1-7.3444-4.7549c-.7221-.5985.6994-1.6791,1.2821-2.5611C175.3908,58.6645,180.7854,60.6608,184.6131,58.3369Z" style="fill: #822434"/>
    <path d="M147.366,86.9962c1.26-6.95,1.764-14.2313,8.2594-18.9138a2.5585,2.5585,0,0,0,.8967-3.1582c-1.4724-3.2115-.83-6.5415-.9122-9.8209-.1023-4.0731.4552-8.2346-2.1215-11.8606,2.8319,2.4351,6.6226,4.0334,3.436,9.2858-1.3419,2.2118-.7653,6.1026.2424,9.2574,1.0366,3.2451.9194,6.2858-2.0165,9.0045a14.2911,14.2911,0,0,0-4.6972,9.876A9.9959,9.9959,0,0,1,147.366,86.9962Z" style="fill: #822434"/>
    <path d="M154.5092,30.193c-.4269-2.3527,2.313-2.9506,3.0854-5.874-3.452,2.9154-6.1513,5.212-8.8859,7.5985-3.8647,3.3728-8.5,6.1389-14.299,5.3735-2.0695-.2731-4.3622-.5838-6.2759.9014.1418-2.0684.3863-3.0856,3.25-2.3607,6.8229,1.7269,12.2651-1.31,17.1413-5.9519,3.0594-2.9123,6.231-5.8078,10.2615-7.4946,1.2064-.5049,2.2556-.6528,3.1494.43,1.287,1.5585-.5368,2.0269-1.1809,2.59C158.7853,27.1275,156.6067,28.6144,154.5092,30.193Z" style="fill: #822434"/>
    <path d="M147.4238,112.11c-6.8614-1.4058-7.9345,4.9545-11.2637,8.2879l.0771-.0765-3.1738.1024c2.7012-1.7111,4.2865-4.7476,5.5856-7.1409,2.0833-3.838,4.1162-3.1513,7.0445-2.0565-1.7655-6.6844-4.3837-13.286-1.1619-20.1943l.6722-.0026C142.9012,98.3728,145.8753,105.1674,147.4238,112.11Z" style="fill: #822434"/>
    <path d="M164.6528,216.7943q-.4257-.0128-.85-.0543c-1.2848.9825-3.9831-2.2562-4.359,1.441-1.8055-3.0156-6.0791-.7-7.63-3.2916-.5445-.91,1.205-3.1754,1.9071-4.8218,1.56,1.9861,2.9516,3.9206,6.12,3.5972C161.888,213.4559,163.4784,215.079,164.6528,216.7943Z" style="fill: #8aa80c"/>
    <path d="M149.3626,186.3908c-.7693,1.134-.6724,2.8571-1.1473,4.3936-.6347,2.0529-2.6849,1.6052-4.3632,1.6182-1.4506.0113-1.9912-1.5991-1.4277-1.87,3.0821-1.4845,2.4693-5.8519,5.7023-6.8883C148.6484,183.4766,149.6643,184.8526,149.3626,186.3908Z" style="fill: #850041"/>
    <path d="M200.7582,110.5744c2.8359-1.1071,5.62-2.2715,8.9089-2.1053C205.8336,115.4549,204.3456,115.7833,200.7582,110.5744Z" style="fill: #850041"/>
    <path d="M145.2581,202.5967a4.8165,4.8165,0,0,1-4.1863,1.9884c-3.1362-.0948-5.1276,1.8636-6.89,4.025-2.2822,2.799-4.773,4.2735-8.2526,2.0234,2.8629.8108,4.4386-1.1086,6.1232-2.83C135.6679,204.1094,140.3407,203.0419,145.2581,202.5967Z" style="fill: #8aa80c"/>
    <path d="M128.1338,38.1924s-8.9083,19.5519-14.4571,24.4586C115.5494,50.4217,128.1338,38.1924,128.1338,38.1924Z" style="fill: #822434"/>
    <path d="M109.6563,238.3253q.0042.39.006.78c.8338,2.2663,5.646,3.9872.9733,7.0085-.2236-.0906-.4472-.1813-.6741-.2655C104.8668,242.1417,104.8077,240.6675,109.6563,238.3253Z" style="fill: #8aa80c"/>
    <path d="M153.6,43.38c-4.6229-3.8022-4.2942-8.0924,1.0209-13.3244C153.1758,34.4139,150.3228,38.6653,153.6,43.38Z" style="fill: #822434"/>
    <path d="M109.6979,249.1q-.006.6261-.0122,1.2521c-.4452,2.194-2.0732,1.9015-3.5436,1.507a2.5388,2.5388,0,0,1-2.0094-2.6077c.0864-1.5676,1.4356-2.1713,2.6881-2.71,1.2465-.536,2.5257-1.0258,3.8931-.34l-.0784-.0879C110.9768,247.3119,110.0861,248.1282,109.6979,249.1Z" style="fill: #8aa80c"/>
    <path d="M113.7889,62.514a7.81,7.81,0,0,1-4.1956,6.2224C110.0527,66.0371,111.7485,64.1609,113.7889,62.514Z" style="fill: #822434"/>
    <path d="M59.6857,84.8287c-.3713,2.0706-.8072,4.1022-3.0775,5.0245C56.9607,87.7713,57.4727,85.7858,59.6857,84.8287Z" style="fill: #822434"/>
    <path d="M150.5215,204.6311l-4.0732-3.1972C149.8173,199.97,149.922,202.6118,150.5215,204.6311Z" style="fill: #8aa80c"/>
    <path d="M145.2038,91.03l-.3361-.0047-.336.0069c.5294-1.7028-.1141-4.2247,2.9435-4.1633C147.9873,88.94,145.7927,89.552,145.2038,91.03Z" style="fill: #822434"/>
    <path d="M152.4133,208.5923c-2.064-.6793-1.9767-2.3885-1.9684-4.06A4.5,4.5,0,0,1,152.4133,208.5923Z" style="fill: #8aa80c"/>
    <path d="M161.0692,45.2023c.675,1.221-.2873,1.1043-.52,1.0817-.6208-.06-1.4989-.1553-1.7557-.5609a.842.842,0,0,1,.876-1.3A4.1116,4.1116,0,0,1,161.0692,45.2023Z" style="fill: #822434"/>
    <path d="M176.4966,224.8614l1.2473.4239c-.3825.716-.7749,1.5014-1.715,1.4656a1.2635,1.2635,0,0,1-.8915-.81C174.9643,225.0328,175.7446,225.0023,176.4966,224.8614Z" style="fill: #6db5cd"/>
    <path d="M116.6743,117.4092c-2.669-.8387-5.6345,1.0626-8.3141-1.46-1.4068-1.3242-1.1641,2.4064-2.3754,2.3236-4.1681-4.9889-8.978-4.7573-15.233-2.3914,3.0955-3.5973,4.7814-6.4033.4823-8.73,2.5571.1345,6.885-1.813,4.8366,3.8533-.541,1.4965.2734,1.1907,1.0446,1.2707,3.7774.3918,7.3659,1.5117,11.3548,1.349,2.9872-.1218,6.0833,2.3929,9.1309,3.7336C117.3193,117.8675,117.0091,117.8616,116.6743,117.4092Z" style="fill: #822434"/>
    <path d="M116.6743,117.4092q.4627-.0356.9266-.05c1.1451,4.862,3.1909,6.2208,7.893,4.7906,2.5342-.7709,4.9213-2.0042,7.6749-1.811-3.288,3.1612-11.3011,5.0818-14.3862,3.5592C115.78,122.4155,114.4171,120.5231,116.6743,117.4092Z" style="fill: #822434"/>
    <path d="M91.3343,107.251c-2.6233-1.1425-2.4806-3.0343-1.528-5.2451.62-1.4377,1.1123-2.9811-1.4763-2.8643a.75.75,0,0,1-1.2558-.0891c3.7724-1.5448,4.8005-1.0862,4.0723,2.3063A14.0281,14.0281,0,0,0,91.3343,107.251Z" style="fill: #822434"/>
    <path d="M87.0742,99.0525l1.2558.0891c-2.826,1.26-6.2147,1.3754-8.3441,4.0515C80.4214,98.5557,83.9276,99.1081,87.0742,99.0525Z" style="fill: #822434"/>
    <path d="M229.99,248.0606c.1291,1.814,2.0718,3.6321-1.1554,5.2131-2.376,1.164-3.6243,1.8084-5.8378-.267-2.0962-1.9656-5.3743-2.4569-6.6812-5.6557-.7253-1.775-4.1684-2.8381-.6382-5.2345.64-.4344.0395-2.1371-.98-2.531-2.92-1.1288-2.0658-3.222-1.4372-5.9606-6.9952,7.5122-14.31-.7458-21.326,1.3232-1.1978.3531-1.26-.4965-.8207-1.4546.1963-.428.3449-1.1751.116-1.4549-6.2719-7.6649-1.8725-17.3414-4.9354-25.661-1.7493-4.7516-3.4821-9.3072-9.0487-12.9514,4.601,0,7.774.17,10.9209-.0428,3.994-.27,7.61-1.33,8.25-6.1533.11-.8317.031-1.8359,1.1989-1.84,7.1366-.0262,5.9362-5.2862,6.0062-9.9923a8.1193,8.1193,0,0,1,4.9063,1.6312c-2.5509,2.7491,3.4456,6.4069-1.0256,9.1122-.9359.5662-1.87,2.4729-1.586,3.3882.4615,1.487,2.2209.9659,3.4393.5122.939-.35,1.8739-1.2011,2.2737.4333.2842,1.1615-.1811,1.9058-1.5642,1.9491-.8993.0281-2.45-.3378-2.2266,1.176.2979,2.0194,1.8363,1.1354,3.1071.9058,1.685-.3046,2.8942-.0438,2.9358,2.24.0151.8342-1.9832,2.1178.2322,2.696,1.1858.3094,1.7893-.639,2.5246-1.3493,1.957-1.89,2.7173-1.7512,3.3588.9575.3468,1.4641.5464,1.39,1.8568.93,4.0394-1.4174,6.0217-.5424,7.194,3.2074.4391,1.4043,1.252,1.3617,2.2333,1.3786,2.0377.035,4.0763.0105,6.4463.0105-2.6706,3.0459-6.05,5.5887-5.1426,9.9573.9071,4.365,3.9745,6.5444,8.2689,7.5942a4.4534,4.4534,0,0,1,3.4551,5.3171,6.4339,6.4339,0,0,1-6.1591,5.4669c-3.3837.289-6.6711.3321-8.1114,4.1709l.0888-.09c-1.0433.4348-1.9251,1.21-3.213,1.0924-1.4933-.1364-2.94.5886-2.7119,2.1057.2136,1.4215.79,3.26,3.1213,2.9594a10.0341,10.0341,0,0,1,2.9764.1593c.2657.0469.4973.6836.59,1.085.033.1423-.3681.4277-.6129.5823-1.6079,1.0155-1.6116,1.01-.2149,3.1705Z" style="fill: #fefefe"/>
    <path d="M196.3378,262.3353c2.02,4.8829,7.582,3.9563,10.9543,7.0795.75-1.94-3.2567-3.538.7473-5.3305,3.7794-1.6921,3.8713,1.272,5.2893,2.5608,3.8088,3.4615,1.0269,8.2309,2.1394,12.241-5.1531-.3218-10.5184-1.2894-15.0521,2.7338-.7086.6287-1.7289,1.6043-3.1113.4582-2.9426-2.44-5.797-5.154-9.1411-6.8964-3.1941-1.6644-6.7161-2.7359-10.1117-4.9955l5.9383-3.2826c.2456-1.6688-1.3292-1.3672-1.9379-2.0621-3.1145-3.5556-2.5237-5.522,2.0627-6.9963,4.1407-1.331,7.758-.83,10.0736,3.1237.6341,1.0826,1.1566,1.4727,2.2427,1.4494Z" style="fill: #fefefe"/>
    <path d="M222.0164,282.6653c-3.61-2.1793-1.663-4.7033-2.1376-6.7138A36.575,36.575,0,0,0,213.69,262.94c-1.3083-1.7992-.8556-3.8984-.6354-5.3175.3061-1.9724,2.5606.1686,4,.0971,4.0422-.2009,6.9175,3.7595,11.3986,4.2175,2.0211.2065,2.7139,4.5752-.3,6.9684C223.9118,272.2744,221.1126,276.4087,222.0164,282.6653Z" style="fill: #fefefe"/>
    <path d="M236.8946,256.8561c-1.0617,1.3748-2.0028,3-3.9009,3.4388-1.2961.3-2.7519-.5381-2.3955-1.652.4214-1.3167.0008-3.9781,3.0233-3.3905C234.8876,255.4985,236.2621,255.2107,236.8946,256.8561Z" style="fill: #fefefd"/>
    <path d="M232.2273,249.1271q-1.1169-.5313-2.2356-1.0647l.0724.0879c1.1374-.7263,2.2764-1.4506,4.59-2.9217l-2.513,3.9763Z" style="fill: #fdfefe"/>
    <path d="M232.1407,249.2049c1.7617.7773,2.663,1.885,1.5457,3.8028-1.7718-.8587-1.61-2.3711-1.46-3.88Z" style="fill: #fefdfe"/>
    <path d="M136.16,120.3981c2.7674.0934,3.4346-2.1535,4.6086-3.9453,1.2-1.831,3.268-3.2181,5.0717-1.7087,1.5593,1.3048.633,3.4392-1.0468,4.6943-3.0494,2.2783-2.2648,3.6538.8252,5.1148,2.8726,1.358,4.2506,4.6117,8.2273,5.1274,2.6752.3469,4.0928-1.4466,6.2945-1.6783a43.2165,43.2165,0,0,0,7.2354-1.1358c4.0006-1.1373,4.0771,4.2438,6.9261,5.893,1.9219,1.1126-.4125,2.2728-1.7061,2.9934-.31.1723-.6184,1.0584-.4788,1.211,5.4918,6.0057-2.18,8.6151-3.96,12.1676-1.1892,2.3738-2.9373,4.974-4.3473,7.8176-.1136-2.4193.7807-5.42-2.5876-5.8977-3.3445-.4742-3.8459,2.8922-5.9661,5.6166.3715-7.2369-5.6325-5.573-8.2326-5.5677-3.7034.0075-5.3751,4.9628-5.4807,8.2292-.1509,4.6653-.5076,9.5636,1.4542,14.1927,1.4665,3.46-1.2886,5.1242-3.7446,6.6644-1.2023.754-2.9433-1.9733-3.8473.36-1.1292,2.9141-3.5706,5.2809-3.3379,8.7871.3128,4.7166-5.8042,8.8356-10.2111,7.1073a2.5822,2.5822,0,0,1-1.5736-2.3084c.4657-4.3908-2.3856-6.3314-5.6-8.1233a11.25,11.25,0,0,1-5.7887-7.0053c-1.51-5.5074-7.147-5.514-11.0446-7.7191a3.4138,3.4138,0,0,0-5.0006,1.6655c-2.087,4.4214-6.1206,5.5127-10.5441,3.7934-3.3408-1.2985-4.9713-.0346-6.4219,2.714-.9549,1.8091-1.2448,4.4976-4.715,1.375-1.6828-1.5141-6.7745-1.0014-8.8612,2.4621-1.144,1.8986-1.8361,2.6936-3.5187.72a2.0052,2.0052,0,0,0-1.2932-.6684c-2.5015-.0732-6.2691,1.46-7.13-1.0582-1.29-3.7718-3.0337-7.5408-3.0871-11.823-.0874-7.0205-1.6553-14.0358-.8477-21.0591.9176-7.9808-.11-15.904.03-23.8476.028-1.5962-.1045-3.4758,2.4526-4.5762,2.5675-1.105-.7364-4.575,1.1788-6.6389,7.216,5.0326,14.8136,4.3488,22.5437,1.652,1.4147-.4935,2.755-1.4321,4.1913-1.582,3.1576-.3295,5.8622-.4682,4.4508-5.0048-.2787-.8957.1151-3.5937,1.8658-4.0489,1.48-.3849,3.2339.267,4.8666.46-.71,2.8458,4.9913,2.7526,2.9157,6.4752-.5751,1.0317-3.1546,2.5881-.7162,4.0034,1.5982.9277,3.4194,2.3155,5.5373-.3786,2.02-2.57,2.977,2.1562,5.6959,1.8364,2.0643-.2429,4.3318,1.9191,7.3744,1.3053,2.3308-.47,3.38,3.2558,5.55,4.3631,7.9936,4.0788,15.2542,2.6223,21.8713-3.1025Z" style="fill: #fefefe"/>
    <path d="M110.7139,246.2018c-.91.3856-2.4211.5819-2.6166,1.1932-.5371,1.68-4.463-.3976-3.0248,2.58.887,1.8365,2.9238,1.9217,4.6132.3776,4.2279-.6634,9.444,2.676,10.3877,6.5859.1577.6531,1.4308,1.3732.1792,1.7931a2.0032,2.0032,0,0,1-2.4551-.3217c-2.3278-2.8974-3.834-2.3213-5.759.8774-2.2041,3.6627-6.48,5.1427-10.2261,6.9883a2.66,2.66,0,0,1-2.35-.3737c-6.9812-6.0939-15.7-5.9937-24.1662-7.0575-2.4665-.31-4.7115-1.9846-4.4343-5.1882.2706-3.1278.2672-6.2444.6807-9.4029,1.0029-7.6591-1.44-15.3606-.229-23.2549.2933-1.9122-3.5427-6.2763-7.7158-6.5518-1.1336-.0748-2.4965.6187-3.198-.5547-2.65-4.4308-7.1109-4.6213-11.5033-5.3439-2.914-.4793-4.5576-1.4694-3.8511-5.6177.8865-5.2046,4.6041-9.6832,3.3169-15.4959,2.428.2912,4.9669,2.26,6.215-1.1253l-.0947.046c2.0389-.64,3.4008.7071,4.7844,1.7416,1.1882.8883,2.2277,1.3611,3.4658.2209l-.0778.0795c.952-1.5411,1.1536-3.394,2.081-4.9453l6.1224,0c1.832,1.59,3.3385,5.1188,6.1262,1.0152-.7689-2.18.1715-3.7485,2.2217-4.1043,1.474-.2558,3.9007-1.158,4.0735,1.9069,1.3765,1.8275,2.845,3.1238,4.9332.8437l5.1029-4.055c1.2592-1.0152,1.33-2.65,2.0772-3.9325l-.0711.076c3.8715-.617,6.8522.9746,9.3622,3.725,2.2265,4.1514,4.3649,8.368,7.9824,11.5778.3318,1.6138,2.85.04,2.9718,2.1735-1.3437,1.8694-4.4977-.5325-5.6572,2.3833a18.5529,18.5529,0,0,0,3.3614,1.3592c5.71,1.134,6.9192,3.2394,4.5675,8.6688-2.5685,5.93.4238,11.8049-.0008,17.7068-.0752,1.0432,1.1647,1.0185,1.8128,1.459,2.7844,1.8922,2.3762,3.67-.1642,5.39-.1383.0936-.4342.1318-.4423.2161-.5483,5.7032-5.9152,6.0791-9.4592,8.4638-2.3865,2.2627-3.8692,4.4037.5829,6.0779C110.5773,244.53,110.5639,245.5807,110.7139,246.2018Z" style="fill: #fefefe"/>
    <path d="M112.6665,190.5049c-5.1852-1.9419-6.9043-6.3871-8.1659-11.1627a.7.7,0,0,1,.0888-1.2463c3.8815,2.8779,4.455,8.1459,8.1608,11.1506Z" style="fill: #8aa80c"/>
    <path d="M104.59,178.0959q-.0444.6233-.0889,1.2463a23.6485,23.6485,0,0,0-9.1787-4.14l.1688-1.4988C98.6835,174.8405,103.0964,173.4828,104.59,178.0959Z" style="fill: #8aa80c"/>
    <path d="M62.7327,188.3174c-.8613,1.7259-1.8925,3.012-3.682.9514a11.8729,11.8729,0,0,0-4.5682-2.9139c1.562-2.5052,3.0863-.2841,4.5112.1521C60.2922,186.9045,60.95,188.76,62.7327,188.3174Z" style="fill: #8aa80c"/>
    <path d="M76.9845,184.4673c.0927,2.1715-1.915,3.6385-3.7377,2.5211-1.2082-.7405-2.5957-1.6977-2.3885-3.5363C73.0278,183.0316,74.3819,187.4684,76.9845,184.4673Z" style="fill: #8aa80c"/>
    <path d="M88.2129,183.1136c-.7144,2.1205-1.19,2.2849-3.1316,2.2314-2.5005-.069-1.9765-1.609-1.8016-3.0751C84.9887,182.1783,86.37,183.9756,88.2129,183.1136Z" style="fill: #8aa80c"/>
    <path d="M64.7359,183.4516a5.3548,5.3548,0,0,1-2.081,4.9453C62.6922,186.4757,62.7889,184.5793,64.7359,183.4516Z" style="fill: #8aa80c"/>
    <path d="M95.393,175.1261c-.0737,1.6336.2589,3.479-2.0773,3.9326A4.9043,4.9043,0,0,1,95.393,175.1261Z" style="fill: #8aa80c"/>
    <path d="M224.1922,170.3047c2.4347-4.9444,7.586-6.5113,11.812-9.1522,1.6508-1.0316,13.5241,4.1458,14.8466,5.6317,1.5684,1.7622-.03,3.0684-.6774,3.93-3.33,4.4311-2.71,8.861-.3289,13.2477.908,1.6728.468,3.27.6845,4.8951.3607,2.7086.0772,5.5924,4.3278,5.8,1.5827.0772,3.0565,1.9538,2.8228,4.2159-.3559,3.4434-2.0917.4527-3.12.7143-1.2026.306-.9948.9854-.55,1.8576a2.5711,2.5711,0,0,1-1.8713,3.97c-1.5436.23-3.6448-.3026-3.6857-2.9219-.0765-4.8984-2.0751-.5162-3.13-.5523a28.5109,28.5109,0,0,1-11.1119-2.13,14.5134,14.5134,0,0,1,1.0834-2.7181c1.3192-2.0355,1.895-5.0067-.032-5.7841-2.6489-1.0686-5.5344-4.2189-8.7863-1.6717-2.2348,1.7507-4.4714,2.7737-6.7323.9373-2.5994-2.1112-6.6776-3.7946-4.2443-8.5755.8738-1.7167-1.3487-2.762-1.36-4.3643,5.7922,2.119,6.843,3.7294,5.9184,9.0717,4.6292-2.834,6.1564-4.0273,6.7932-8.6177.3606-2.6,2.9851-1.1525,3.2345-2.912l-.1225.1149c1.6422-.2623,3.87-.5867,2.8024-2.7669-.9975-2.0377-3.08-3.9481-5.776-2.6824-1.0887.5111-1.828.9565-2.9016.3554Z" style="fill: #fefefe"/>
    <path d="M221.7254,175.94c.0855.49-.0056,1.198.2874,1.433,1.215.9744,2.4814,1.8945,2.5231,3.6013.0081.3329-.807,1.0406-.9741.9678-1.7539-.7643-2.308-2.7451-3.9212-3.8836-.995-.7022,1.6119-1.0567,2.1949-1.9951Z" style="fill: #fdfefe"/>
    <path d="M219.9207,171.1056c1.5737.524,2.6187-1.7,4.2671-.8053.0044.0044-.109-.1128-.1046-.1081-1.1356,2.24-2.4991,4.1642-5.9824,3.8665.7333-1.1587,1.3361-2.1115,1.9411-3.0661Z" style="fill: #fefefe"/>
    <path d="M230.0853,175.1759c-.8936-.1086-2.2607.2852-1.871-1.3676.1666-.7068.7409-1.6375,1.71-1.228,1.85.7816.2068,1.7918.0409,2.7086Z" style="fill: #fefefe"/>
    <path d="M221.8355,176.0634c.7071-.6534.9033-2.5113,2.5182-1.0113.562.5221.892,1.2482.4009,1.714-1.3221,1.2539-1.9427-.7408-3.0245-.821C221.7254,175.94,221.8355,176.0634,221.8355,176.0634Z" style="fill: #fdfefd"/>
    <path d="M173.1148,65.052c2.5462-2.8906,5.666-4.1825,9.8417-4.7771C178.1222,66.6722,178.1222,66.6722,173.1148,65.052Z" style="fill: #fefefe"/>
  </g>
</svg>
