<svg id="Layer_1" data-name="Layer 1" xmlns="http://www.w3.org/2000/svg" viewBox="0 0 3779.3 630.21">
  <title>cs_infografik_opacity_radius</title>
  <g id="ture">
    <g id="tur1">
      <g>
        <path d="M732.59,658.21H116.22a46.14,46.14,0,0,1-46.14-46.14V74.13A46.13,46.13,0,0,1,116.22,28H732.59a46.13,46.13,0,0,1,46.13,46.13V612.07A46.13,46.13,0,0,1,732.59,658.21Zm-609-3.64H725.26a46.13,46.13,0,0,0,46.14-46.13V77.77a46.14,46.14,0,0,0-46.14-46.14H123.55A46.14,46.14,0,0,0,77.41,77.77V608.44A46.13,46.13,0,0,0,123.55,654.57Z" transform="translate(-70.08 -28)" fill="#0a070c"/>
        <path d="M77.41,608.44V77.77a46.14,46.14,0,0,1,46.14-46.14H725.26A46.14,46.14,0,0,1,771.4,77.77V608.44a46.13,46.13,0,0,1-46.14,46.13H123.55A46.13,46.13,0,0,1,77.41,608.44ZM123,638.37h605.3c-.77-1.31-1.42-2.29-2-3.33l-24-46.29c-7.82-15.19-15.53-30.45-23.4-45.61-7.21-13.92-14.61-27.74-21.83-41.65-7.86-15.17-15.58-30.45-23.41-45.61q-9.07-17.64-18.31-35.23c-4.83-9.23-9.72-18.46-14.55-27.68q-6.06-11.61-12-23.25l-15.52-30c-4-7.82-8.22-15.58-12.09-23.5-.86-1.75-1.74-2.29-3.53-2.28q-26.64.18-53.27.24l-63.19.24-113.23.38q-48.21.12-96.4.15H229ZM523,77.52H264v231.6H523Z" transform="translate(-70.08 -28)" fill="#018cc5" opacity="0"/>
        <path d="M123,638.37,229,315h2.54l96.41-.15q56.61-.15,113.22-.38l63.19-.24q26.64-.11,53.27-.24c1.84,0,2.66.52,3.53,2.28,3.88,7.91,8,15.69,12.09,23.5l15.52,30q6,11.63,12,23.24c4.83,9.23,9.72,18.46,14.55,27.69q9.23,17.58,18.32,35.22c7.83,15.19,15.54,30.45,23.41,45.61,7.21,13.92,14.61,27.74,21.83,41.66,7.86,15.16,15.57,30.44,23.4,45.6q11.94,23.19,24,46.3c.53,1,1.18,2,2,3.33ZM240.85,321.88,139.35,631.49H709.59a6.43,6.43,0,0,0-.26-1.74q-3.23-6.33-6.53-12.64c-6.66-12.7-13.4-25.37-20-38.12-8.44-16.3-16.74-32.67-25.15-49q-12.93-24.92-25.84-49.83c-7.24-13.89-14.63-27.68-21.85-41.63s-14.39-28.09-21.6-42.06c-5.67-11-11.5-21.85-17.21-32.8-7-13.51-14.13-27-21-40.6-.92-1.8-1.85-2-3.49-2q-24.43.1-48.9.18l-56.29.21q-54.44.21-108.88.39-33.09.09-66.19.07Z" transform="translate(-70.08 -28)" fill="#050406"/>
        <path d="M523,77.52v231.6H264V77.52Zm-245.24,7V299.26c0,3,0,3,3,3H508.4V84.57Z" transform="translate(-70.08 -28)" fill="#040304"/>
        <path d="M240.85,321.88H266.5q33.09,0,66.2-.07,54.44-.17,108.88-.39l56.28-.21,48.9-.18c1.61,0,2.59.23,3.49,2,6.87,13.6,13.94,27.09,21,40.6,5.72,10.94,11.54,21.83,17.21,32.8,7.25,14,14.34,28.07,21.6,42.06s14.61,27.74,21.85,41.63q13,24.92,25.84,49.83c8.41,16.31,16.71,32.69,25.15,49,6.6,12.74,13.34,25.41,20,38.11q3.32,6.3,6.52,12.64a6.06,6.06,0,0,1,.26,1.74H139.43ZM515.59,542.27c1.13-.47,2.09-.92,3.07-1.27,16.25-6,30-15.83,42-28.23,7.23-7.52,13.9-15.57,20.95-23.27,5.2-5.68,10.62-11.17,16-16.83a37.28,37.28,0,0,1-6.1-1.85c-4.37-2.11-7.33-.67-10.36,2.77q-15.48,17.36-31.38,34.34c-10.3,11-22,20.16-36,26.05-1.69.71-2.54.78-3.69-1.17a87.13,87.13,0,0,0-17.94-21.53C481.78,502.42,470,495.72,458.28,489s-23.5-13.55-35.25-20.3a2.84,2.84,0,0,0-1.85-.54c-3.5,1.12-7,2.39-10.44,3.62l-.2.85c10.65,6,21.22,12.17,32,18.13,12,6.71,24.14,13.26,35,21.86,9.22,7.3,16.11,16.42,21.89,26.76-1.13.43-2.12.78-3.08,1.2-8.62,3.69-17.43,6.92-25.84,11.07-12.22,6.05-22.14,15.25-31.28,25.18-8.45,9.14-16.61,18.46-25,27.68-2.77,3-5.61,5.93-8.42,8.88,3,.86,6.17,1.66,9.23,2.77a3.25,3.25,0,0,0,4-1c9.45-10.26,19.2-20.3,28.41-30.72,15.39-17.47,33.12-31.28,56.16-37.54.29.45.73,1.13,1.15,1.85a99.42,99.42,0,0,0,14.35,18.69c9.43,9.32,20.61,16.2,32,22.8,14,8.1,28,16.08,42,24.09a2.38,2.38,0,0,0,1.66.38c3.49-1.15,6.93-2.42,10.66-3.76-2.19-1.47-4-2.87-6-4-13-7.38-26-14.66-39-22.07-9.7-5.54-19.1-11.54-27.34-19.2C525.9,559,520.56,551,515.56,542.28Zm-188.93-58.2c4.81,1.28,9.23,2.89,12.54,6.58,1.77,2,1.78,5.16.53,7.63-1.58,3.08-4.35,3.86-7.39,4a66.47,66.47,0,0,1-43.93-12.69c-2.27-1.54-2.2-3.09-.12-5,1.71-1.53,3.75-2.72,5.6-4.11s1.93-3.09-.21-4.4a9.87,9.87,0,0,0-8.4-.93c-5,1.57-8.81,4.84-12,8.75a5.32,5.32,0,0,0-.25,6.54c2.53,4.06,6.46,6.46,10.53,8.47a99.48,99.48,0,0,0,51.05,10.7c4.74-.24,9.42-1.15,13.57-3.69,7.83-4.85,10.09-14.09,1.67-20.91A43.09,43.09,0,0,0,336,477.87c-3.51-1.17-7-2.43-10.52-3.54-3-.92-6.09-1.15-9,.27a5.56,5.56,0,0,0-2.7,2.77,31.92,31.92,0,0,0-1.92,14.33,13.53,13.53,0,0,0,1.55,4.36c2.16,4.13,10,4.41,13.76,1.58a3.06,3.06,0,0,0,.77-2.85c-1.84-3.4-1.46-6.9-1.27-10.71Zm20-42.58c2.38-.27,6.15-.46,9.84-1.16,6.45-1.23,12.57-3.5,17.6-7.95,7.11-6.26,7.47-14.89-1.14-20.53a59.53,59.53,0,0,0-18.75-8c-12.72-3.11-25.55-4.47-38.5-1.67-6.46,1.39-12.07,4.39-15.36,10.41-3.14,5.72-3.44,8.63.61,13.84a21.73,21.73,0,0,0,5.81,4.82c11.79,7.31,24.91,9.7,39.9,10.29ZM364.68,392c1.05-1,1.56-1.48,2.09-1.94a69.27,69.27,0,0,1,18.11-11c2.16-.92,4.42-1.68,6.46-2.77.93-.51,2.14-1.68,2.14-2.55a3.65,3.65,0,0,0-2.14-2.51c-1.84-.66-3.94-1.39-5.72-1a60.59,60.59,0,0,0-11.07,3.5c-3.69,1.53-7.15,3.56-10.81,5.42a16.61,16.61,0,0,0-12.29-9.68c-14-2.92-26.57.53-37.88,9-3.41,2.54-5,6.35-6.59,10.15-1.13,2.67-1.08,3.48,1.44,4.62a15.47,15.47,0,0,0,5,1.44q31.37,2.83,62.85,5.48a36.3,36.3,0,0,0,7.51-.42,3.28,3.28,0,0,0,3.16-3.05c0-1.7-1.44-2.62-3-2.89-2.18-.39-4.39-.7-6.59-.92C373.39,392.6,369.37,392.36,364.68,392ZM340.3,465l-.11-.38,1.43-.61c6.77-2.77,13.63-5.26,20.3-8.3,2.7-1.23,5-3.47,7.32-5.37,1.51-1.19.8-2.47-.39-3.38-2.87-2.21-9.46-1.93-12.39.21a35.51,35.51,0,0,1-6.45,3.95c-5.43,2.4-11.08,4.34-16.45,6.82-3.69,1.71-6.92,2.07-9.84-1.28a6.77,6.77,0,0,0-1.67-1.14c-7-4.35-14-8.78-21.14-13a9.53,9.53,0,0,0-9.47-.1c-3.18,1.61-3.21,3.32-.45,5.15,4,2.66,8.1,5.19,12.13,7.81,3.55,2.29,7.07,4.61,11.08,7.3h-2.07c-7.11-.72-14.2-1.58-21.32-2.1a20.43,20.43,0,0,0-6.89,1.07,3.33,3.33,0,0,0-1.78,2.48c-.06.75.92,1.85,1.69,2.3a10.44,10.44,0,0,0,3.89,1.2c5.35.56,10.71.92,16.06,1.47,11.92,1.15,23.84,2.37,35.76,3.52,5.54.55,11.16,1.22,16.75,1.43a23.16,23.16,0,0,0,7.6-1.34,3.82,3.82,0,0,0,2.16-2.76c.08-.71-1.31-1.85-2.27-2.31a10.33,10.33,0,0,0-3.74-.92q-9.89-.79-19.73-1.67Zm-85,84.27a41.48,41.48,0,0,0,4.71,3c11.25,5.33,22.54,10.57,33.82,15.85.74.35,1.84.64,2.07,1.22.83,2.36,2.72,2.34,4.62,2.52a18.69,18.69,0,0,1,3.56.62c4.45,1.38,8.82,3,13.31,4.23a9,9,0,0,0,8.24-1.65,2.28,2.28,0,0,0,.64-3.15h0a2.33,2.33,0,0,0-.64-.65,9.09,9.09,0,0,0-2.39-1.25c-4.08-1.52-8.13-3.13-12.28-4.42-1.84-.59-2.38-1.58-2.13-3.31.45-3.24.92-6.46,1.36-10,3.24-.23,6.53-.31,9.78-.75,4.46-.59,8.92-1.34,13.34-2.25a3.87,3.87,0,0,0,2.47-2.14c.53-1.63-1-2.56-2.27-2.85a25.25,25.25,0,0,0-6.76-.83c-13.42.53-26.83,1.31-40.25,1.84-7.52.29-15.06.14-22.59.39-3.05.14-6.31.18-8.6,3.54ZM294,596.65a15.31,15.31,0,0,1-2.12.54c-15.19.83-30.38,1.61-45.56,2.49a46.92,46.92,0,0,0-8.58,1.21,3.7,3.7,0,0,0-2.29,2.77c0,.92,1.4,2.3,2.47,2.7a13.71,13.71,0,0,0,5.39.82c10.89-.45,21.79-.92,32.67-1.62,12.64-.81,25.27-1.85,37.89-2.87a17.89,17.89,0,0,0,5.48-1.48,2.53,2.53,0,0,0,.12-4.82,15.27,15.27,0,0,0-1.84-.84c-8.95-2.84-17.91-5.65-26.86-8.5-12.13-3.87-24.25-7.78-36.38-11.64a11.48,11.48,0,0,0-9.35.6c-2.65,1.46-2.77,3.55-.14,5.1a25.12,25.12,0,0,0,5.34,2.47c9.13,2.77,18.29,5.47,27.45,8.19l16.31,4.9Zm45.29-252.91a10.79,10.79,0,0,1,.42-2.39c1.29-2.83,2.65-5.64,4-8.45,1.07-2.23.49-4.12-1.84-4.95-2.94-1.06-6-1.45-9-.15a6.52,6.52,0,0,0-3.1,2.63,92.87,92.87,0,0,0-4.12,9.57c-1.32,3.49-2.31,7.1-3.69,10.57a52.74,52.74,0,0,1-4,8.39c-.93,1.44-.23,2.2.47,2.9,2.88,2.92,10.79,2.56,13.18-.79a43.84,43.84,0,0,0,4.07-7.84c.59-1.35,1.11-2.11,2.77-2,8.13.44,16.27.63,24.4,1.14,9.81.61,19.59,1.55,29.39,2.11a18.66,18.66,0,0,0,6.66-1.17,3.51,3.51,0,0,0,2.09-2.52c0-.86-1.26-2-2.23-2.43a18.69,18.69,0,0,0-5.73-1.52c-10-.73-20.08-1.31-30.12-1.84-7.78-.46-15.63-.82-23.7-1.22ZM330.65,525h-.36v4.61c0,1.55-.68,2.13-2.26,1.9-4.26-.58-8.52-1.11-12.79-1.55q-17.4-1.86-34.81-3.56c-4.8-.47-9.63-.92-14.46-1a11.6,11.6,0,0,0-5.53,1.61,2.21,2.21,0,0,0,0,4,12.9,12.9,0,0,0,4.94,1.58c7.1.75,14.22,1.25,21.32,2,11.07,1.12,22.14,2.39,33.22,3.48,5.4.52,10.83,1,16.24,1.08a7.71,7.71,0,0,0,7.65-5.33,35.45,35.45,0,0,0,.67-3.56,28.84,28.84,0,0,0-.53-14.47,4.61,4.61,0,0,0-4.19-3.61,42.79,42.79,0,0,0-7.92.39c-1.85.28-2.83,1.6-2.47,3.69.46,2.88.84,5.82,1.29,8.74Z" transform="translate(-70.08 -28)" fill="#018cc5" opacity="0"/>
        <path d="M277.78,84.57H508.4V302.26H280.8c-3,0-3,0-3-3V84.57ZM448.24,253.69V247H336v6.66Zm25-63.05h12.55c5.84-.07,11.69-.16,17.54-.36.66,0,1.84-.84,1.84-1.28a47.66,47.66,0,0,0-.73-5.71L472.2,184ZM392.09,143h6.29v-6.66h-6.29Z" transform="translate(-70.08 -28)" fill="#018cc5" opacity="0"/>
        <path d="M515.59,542.28c5,8.75,10.31,16.76,17.53,23.42,8.24,7.66,17.63,13.64,27.34,19.19,12.92,7.38,26,14.69,39,22.07,2,1.12,3.77,2.5,6,4-3.69,1.33-7.19,2.59-10.66,3.75a2.39,2.39,0,0,1-1.67-.37c-14-8-28-16-42-24.1-11.36-6.59-22.54-13.47-32-22.8a98.69,98.69,0,0,1-14.35-18.69c-.42-.68-.87-1.37-1.15-1.85-23.07,6.26-40.77,20.07-56.16,37.54-9.23,10.46-19,20.47-28.42,30.73a3.24,3.24,0,0,1-4,1c-3.1-1.07-6.31-1.84-9.23-2.77,2.77-3,5.68-5.85,8.41-8.87,8.31-9.23,16.53-18.59,25-27.68,9.17-9.93,19.07-19.14,31.29-25.18,8.38-4.15,17.19-7.39,25.84-11.08.92-.4,2-.75,3.08-1.2-5.79-10.33-12.7-19.46-21.9-26.75-10.85-8.6-22.95-15.16-35-21.86-10.7-6-21.31-12.09-32-18.14l.21-.84c3.47-1.23,6.93-2.5,10.44-3.63a2.92,2.92,0,0,1,1.85.54c11.75,6.76,23.46,13.6,35.24,20.3s23.51,13.39,33.86,22.25a87.36,87.36,0,0,1,17.94,21.54c1.17,2,2,1.84,3.69,1.17,14-5.91,25.7-15.09,36-26.06q15.91-17,31.37-34.33c3.05-3.42,6-4.86,10.37-2.77a39.29,39.29,0,0,0,6.09,1.84c-5.39,5.66-10.81,11.15-16,16.83-7.05,7.7-13.71,15.76-21,23.28-11.92,12.4-25.71,22.14-41.95,28.22C517.68,541.38,516.72,541.81,515.59,542.28Z" transform="translate(-70.08 -28)" fill="#fe0203"/>
        <path d="M326.66,484.08c-.19,3.81-.49,7.31,1.3,10.68a3,3,0,0,1-.77,2.85c-3.82,2.83-11.6,2.55-13.76-1.58a13.3,13.3,0,0,1-1.55-4.36c-.63-4.92.36-9.71,1.92-14.33a5.56,5.56,0,0,1,2.7-2.77,11.83,11.83,0,0,1,9-.27c3.52,1.11,7,2.38,10.52,3.55A42.86,42.86,0,0,1,349.84,485c8.42,6.82,6.16,16.06-1.67,20.91-4.14,2.56-8.83,3.46-13.57,3.69a99.43,99.43,0,0,1-51.06-10.7c-4-2.05-8-4.41-10.53-8.47a5.33,5.33,0,0,1,.25-6.54c3.23-3.91,7.08-7.18,12-8.75a9.9,9.9,0,0,1,8.4.93c2.15,1.31,2.2,2.89.21,4.4s-3.88,2.58-5.6,4.11c-2.09,1.85-2.14,3.41.13,4.95a66.41,66.41,0,0,0,43.93,12.7c3-.11,5.79-.93,7.38-4,1.25-2.47,1.24-5.65-.53-7.62C335.89,487,331.47,485.36,326.66,484.08Z" transform="translate(-70.08 -28)" fill="#030203"/>
        <path d="M346.63,441.5c-15-.59-28.1-3-39.9-10.25a21.77,21.77,0,0,1-5.81-4.83c-4-5.22-3.69-8.14-.61-13.84,3.3-6,8.93-9,15.36-10.4,12.92-2.77,25.79-1.44,38.5,1.67a59.51,59.51,0,0,1,18.75,8c8.61,5.65,8.24,14.28,1.14,20.54-5,4.45-11.14,6.72-17.6,7.95C352.78,441,349,441.23,346.63,441.5Zm-17-33.89c-3.56.78-7.33,1-10.62,2.44-7.76,3.34-8.58,11.64-1.52,16A50.3,50.3,0,0,0,351,433.34c4.52-.58,8.77-2.3,11.88-6,2.76-3.27,3.15-5.78.92-8.35a17.73,17.73,0,0,0-4.57-3.84C350.13,409.93,340,408.62,329.59,407.61Z" transform="translate(-70.08 -28)" fill="#020203"/>
        <path d="M364.68,392c4.69.33,8.7.57,12.7.92,2.21.19,4.4.51,6.59.92,1.61.29,3,1.32,3,2.89a3.39,3.39,0,0,1-3.16,3.05,36.3,36.3,0,0,1-7.51.42q-31.44-2.61-62.86-5.47a15.24,15.24,0,0,1-5-1.45c-2.51-1.16-2.56-2-1.43-4.61,1.59-3.79,3.18-7.6,6.58-10.15,11.32-8.46,23.9-11.91,37.89-9a16.6,16.6,0,0,1,12.29,9.68c3.69-1.85,7.12-3.91,10.81-5.43a61.92,61.92,0,0,1,11.07-3.5c1.78-.36,3.91.36,5.72,1a3.68,3.68,0,0,1,2.14,2.51c0,.87-1.19,2-2.14,2.55-2.07,1.1-4.33,1.84-6.46,2.76a69.26,69.26,0,0,0-18.21,10.94C366.24,390.55,365.74,391.08,364.68,392Zm-42.24-3.75c7.76.65,15.46,1.23,23.15,2,2.27.22,3.48.32,4.49-2.61,2.41-7.05-3.76-12.85-9.38-11.59a50.14,50.14,0,0,0-9.92,3.2C327,380.93,323.66,383.56,322.44,388.26Z" transform="translate(-70.08 -28)" fill="#030203"/>
        <path d="M340.31,465c6.57.58,13.15,1.13,19.72,1.77a10.33,10.33,0,0,1,3.74.92c.93.48,2.35,1.6,2.27,2.31a3.82,3.82,0,0,1-2.16,2.76,23.16,23.16,0,0,1-7.6,1.34c-5.59-.21-11.17-.92-16.75-1.43-11.92-1.16-23.84-2.37-35.76-3.52-5.35-.52-10.71-.92-16.06-1.47a10.31,10.31,0,0,1-3.89-1.2c-.79-.44-1.74-1.56-1.69-2.3a3.35,3.35,0,0,1,1.78-2.48,20.43,20.43,0,0,1,6.89-1.07c7.13.51,14.21,1.39,21.32,2.11h2.07c-4.05-2.66-7.56-5-11.08-7.31-4-2.62-8.13-5.15-12.13-7.81-2.77-1.84-2.77-3.55.45-5.15a9.53,9.53,0,0,1,9.47.1c7.1,4.26,14.1,8.68,21.14,13a7.06,7.06,0,0,1,1.67,1.14c2.92,3.36,6.12,3,9.84,1.28,5.39-2.48,11-4.42,16.45-6.82a35.37,35.37,0,0,0,6.46-3.95c2.92-2.14,9.51-2.42,12.38-.21,1.19.92,1.9,2.18.39,3.39-2.37,1.89-4.61,4.13-7.32,5.36-6.64,3-13.5,5.53-20.3,8.3l-1.43.61Z" transform="translate(-70.08 -28)" fill="#020203"/>
        <path d="M255.34,549.25c2.3-3.35,5.53-3.4,8.6-3.5,7.53-.25,15.07-.1,22.59-.39,13.42-.52,26.83-1.29,40.25-1.84a25.25,25.25,0,0,1,6.76.83c1.25.29,2.77,1.21,2.27,2.85a3.87,3.87,0,0,1-2.47,2.14c-4.41.92-8.87,1.66-13.34,2.25-3.25.42-6.54.51-9.78.75-.47,3.48-.92,6.71-1.36,9.95-.24,1.74.24,2.77,2.13,3.32,4.16,1.29,8.21,2.89,12.28,4.42a8.8,8.8,0,0,1,2.39,1.25,2.27,2.27,0,0,1,.64,3.14h0a2.17,2.17,0,0,1-.64.64,9,9,0,0,1-8.24,1.65c-4.49-1.23-8.86-2.85-13.31-4.22a17.94,17.94,0,0,0-3.56-.62c-1.91-.18-3.79-.17-4.62-2.52-.2-.58-1.32-.92-2.07-1.23-11.28-5.27-22.57-10.52-33.82-15.84A43.83,43.83,0,0,1,255.34,549.25Zm42.26,3.58H281.42c4.56,2.37,9.23,4.35,13.84,6.32,1.36.57,1.59-.35,1.73-1.34C297.19,556.25,297.37,554.68,297.6,552.83Z" transform="translate(-70.08 -28)" fill="#020203"/>
        <path d="M294,596.67c-5.83-1.75-11.07-3.34-16.33-4.9-9.15-2.76-18.32-5.39-27.44-8.19a25,25,0,0,1-5.35-2.47c-2.61-1.54-2.51-3.63.14-5.1a11.48,11.48,0,0,1,9.35-.6c12.13,3.87,24.25,7.78,36.38,11.64,8.95,2.85,17.91,5.66,26.86,8.5a16.16,16.16,0,0,1,1.85.84c2.37,1.1,2.19,3.85-.12,4.82a18,18,0,0,1-5.48,1.48c-12.63,1-25.26,2.06-37.9,2.87-10.88.7-21.78,1.17-32.67,1.62a13.71,13.71,0,0,1-5.39-.82c-1.07-.4-2.42-1.73-2.47-2.7a3.7,3.7,0,0,1,2.29-2.77,46.92,46.92,0,0,1,8.58-1.21c15.18-.92,30.37-1.66,45.56-2.49A14.51,14.51,0,0,0,294,596.67Z" transform="translate(-70.08 -28)" fill="#030204"/>
        <path d="M339.28,343.76c8.12.4,15.93.75,23.74,1.19,10,.57,20.08,1.15,30.11,1.84a18.36,18.36,0,0,1,5.73,1.53c.93.4,2.21,1.57,2.24,2.42a3.51,3.51,0,0,1-2.07,2.51,18.65,18.65,0,0,1-6.65,1.18c-9.81-.57-19.59-1.51-29.4-2.12-8.12-.51-16.27-.7-24.4-1.13-1.66-.1-2.18.66-2.77,2a44.46,44.46,0,0,1-4.06,7.84c-2.39,3.36-10.31,3.69-13.19.8-.7-.72-1.35-1.47-.47-2.9a52.39,52.39,0,0,0,4-8.4c1.35-3.47,2.33-7.08,3.69-10.56a94.29,94.29,0,0,1,4.12-9.58,6.63,6.63,0,0,1,3.1-2.63c3-1.29,6-.92,9,.16,2.29.83,2.87,2.76,1.85,4.94-1.36,2.77-2.72,5.61-4,8.45A11.48,11.48,0,0,0,339.28,343.76Z" transform="translate(-70.08 -28)" fill="#030204"/>
        <path d="M330.66,525c-.45-2.93-.83-5.86-1.33-8.78a2.88,2.88,0,0,1,2.46-3.69,42.94,42.94,0,0,1,7.93-.39,4.62,4.62,0,0,1,4.19,3.61,29,29,0,0,1,.52,14.47,32.84,32.84,0,0,1-.67,3.56,7.7,7.7,0,0,1-7.64,5.33c-5.43-.08-10.85-.55-16.25-1.08-11.07-1.09-22.15-2.37-33.22-3.48-7.09-.71-14.22-1.21-21.31-2a13,13,0,0,1-4.95-1.58,2.22,2.22,0,0,1,0-4,11.64,11.64,0,0,1,5.54-1.61c4.82.09,9.65.55,14.46,1q17.4,1.71,34.8,3.55,6.4.69,12.79,1.56c1.59.23,2.33-.23,2.26-1.9s0-3.06,0-4.61Z" transform="translate(-70.08 -28)" fill="#030204"/>
        <path d="M448.24,253.7H336V247H448.24Z" transform="translate(-70.08 -28)" fill="#0a080c"/>
        <path d="M473.21,190.64l-1-6.63,32.21-.71a47.69,47.69,0,0,1,.74,5.71c0,.43-1.2,1.25-1.84,1.27-5.84.21-11.68.29-17.54.36C481.69,190.68,477.63,190.64,473.21,190.64Z" transform="translate(-70.08 -28)" fill="#040305"/>
        <path d="M392.09,143V136.3h6.29V143Z" transform="translate(-70.08 -28)" fill="#0d0a10"/>
        <path d="M329.59,407.61c10.41,1,20.54,2.32,29.68,7.56a17.9,17.9,0,0,1,4.57,3.84c2.21,2.57,1.84,5.09-.93,8.35-3.11,3.69-7.38,5.4-11.87,6a50.28,50.28,0,0,1-33.57-7.27c-7.06-4.38-6.25-12.68,1.52-16C322.26,408.62,326,408.39,329.59,407.61Z" transform="translate(-70.08 -28)" fill="#018cc5" opacity="0"/>
        <path d="M322.44,388.26c1.18-4.7,4.49-7.28,8.31-9a50.23,50.23,0,0,1,9.93-3.2c5.61-1.26,11.78,4.54,9.37,11.59-1,2.93-2.21,2.83-4.49,2.61C338,389.49,330.25,388.91,322.44,388.26Z" transform="translate(-70.08 -28)" fill="#018cc5" opacity="0"/>
        <path d="M297.6,552.83c-.23,1.84-.41,3.42-.61,5-.13,1-.37,1.92-1.73,1.34-4.61-2-9.28-3.95-13.84-6.32Z" transform="translate(-70.08 -28)" fill="#018cc5" opacity="0"/>
      </g>
    </g>
    <g id="tur2">
      <g>
        <path d="M1500.67,658.21H884.22a46.14,46.14,0,0,1-46.14-46.14V74.14A46.14,46.14,0,0,1,884.22,28h616.45a46.14,46.14,0,0,1,46.14,46.14V612.07A46.14,46.14,0,0,1,1500.67,658.21Zm-7.34-626.6H891.55a46.14,46.14,0,0,0-46.14,46.14V608.47a46.14,46.14,0,0,0,46.14,46.14h601.78a46.14,46.14,0,0,0,46.14-46.14V77.75A46.13,46.13,0,0,0,1493.33,31.61Z" transform="translate(-70.08 -28)" fill="#0a070c"/>
        <path d="M1539.47,77.71V608.43a46.14,46.14,0,0,1-46.14,46.14H891.55a46.14,46.14,0,0,1-46.14-46.14V77.71a46.14,46.14,0,0,1,46.14-46.14h601.78A46.14,46.14,0,0,1,1539.47,77.71ZM1289.14,349.84c-3.69,2.93-7.71,5.93-11.52,9.16a7.34,7.34,0,0,1-5.14,1.84q-141.2,0-282.39,0h-2.52a6,6,0,0,0,2.16,1.54L1060,394.46c27.61,12.65,55.16,25.42,82.84,37.89a32.31,32.31,0,0,1,12.38,10c1.43,1.85,2.94,3.69,2,6.53a25.36,25.36,0,0,0-1.53,7.5,95.79,95.79,0,0,0,.76,13.65c.54,4,1.85,7.9,2.63,11.89a10.23,10.23,0,0,1-.07,4.54c-.59,2.22-1.71,4.28-2.48,6.46-3.35,9.4-8.17,18.07-13.4,26.5a276.82,276.82,0,0,1-27.28,36.38,5.08,5.08,0,0,1-4.24,2q-45.33-.16-90.65-.18h-2.86v7c97.28-.11,194.4,1,291.45.1v-6.76H1297l-72,.19a4.54,4.54,0,0,1-4-1.71c-1.57-2-3.28-3.8-4.94-5.69-16.61-19-31.11-39.33-40.95-62.75a13.32,13.32,0,0,1-.92-6.33c.5-4.79,1.68-9.51,2.22-14.29.26-2.28-.44-4.61-.54-7a31.57,31.57,0,0,0-2.71-11.35c-.69-1.62-1.66-3.29-.16-5.2,2-2.54,2.76-6,6-7.58Q1198,427,1217,418q35.83-17.13,71.67-34.22,20.52-9.79,41.09-19.57c2-.92,3.93-2,5.89-3l-.13-.46H1292c2.21-1.84,4.09-3.14,5.74-4.72,2.44-2.33,4.86-2.77,8.3-2a167.6,167.6,0,0,0,65.2,1.85c14.18-2.29,27.85-6.26,40.3-13.68,8.24-4.91,15.58-10.77,19.3-20a23.07,23.07,0,0,0-.93-19.72c-4.27-8.44-11.41-14-19.44-18.54-16-9-33.41-13-51.45-14.6a170.23,170.23,0,0,0-45.47,1.76c-14.5,2.58-28.52,6.65-41,14.76-8.88,5.74-16.39,12.56-18.7,23.69a21.85,21.85,0,0,0,1.73,13.42c3,7.14,8.39,12.49,14.84,16.52C1276.48,343.22,1282.84,346.37,1289.14,349.84ZM1124.94,167c1.43-.73,2.9-1.36,4.22-2.2a18.52,18.52,0,0,0,3.7-2.83c4.26-4.57,4.61-9.78-1-13.67a32.55,32.55,0,0,0-5.94-3.24c-13.18-5.47-26.86-4.68-40.61-3a3,3,0,0,0-2.77,3.09c-.25,3.57-.49,7.13-.92,10.68-.51,4.9-1.35,9.77-1.65,14.68-.32,5.28-.25,10.6-.2,15.89a3.09,3.09,0,0,0,1.47,2,8.48,8.48,0,0,0,3.74,1.49c4.61.18,9.23.19,13.78.05,9.82-.32,19.62-1,29.1-3.84,4.35-1.29,8.69-2.77,12.13-6,2.33-2.16,2.32-4.62,0-6.73a9.73,9.73,0,0,0-2.77-1.85C1133.32,170,1129.23,168.55,1124.94,167ZM997,115.59c2.3,0,4.61.16,6.9,0,10.74-.92,20.75-3.78,29.29-10.73,4.76-3.87,8.61-8.47,9.59-14.58,1.19-7.38-1.11-13.09-8.24-17-7.29-4-15.4-4.73-23.53-5.2-11.66-.68-23.18-.21-34.09,4.49-7.81,3.36-14.95,7.74-19.19,15.5-3.75,6.88-3.45,12.61,2.41,17.85a28.69,28.69,0,0,0,6.89,4.23C976.46,114.61,986.64,115.68,997,115.59Zm287.13,57.53c3.09-.66,5.54-1.11,7.93-1.72,4.8-1.23,9.56-2.71,13.52-5.82,2-1.55,3.84-3.69,2.77-6.37a16.52,16.52,0,0,0-4.13-5.88c-4.13-3.76-9.44-5.35-14.6-7.17-9.23-3.25-18.73-3.87-28.34-4a71.49,71.49,0,0,0-10.75.4,5,5,0,0,0-3.5,2.92,11.73,11.73,0,0,0,.18,6.59c1.43,3.85-.24,7.38-.5,11-.25,3.44-1.41,6.84-1.49,10.28a121.38,121.38,0,0,0,.87,13.2,3.23,3.23,0,0,0,1.24,2c2.36,1.84,8.24,1.73,10.46-.11a3,3,0,0,0,1-1.85c.06-2.68,0-5.38-.16-8.06a24.11,24.11,0,0,0-.71-3.5,14.12,14.12,0,0,1,1.84,0,142.4,142.4,0,0,1,31.44,8.25c4,1.59,7.9,3.57,11.93,5.16,4.19,1.65,8.25.52,10.31-2.88a19.71,19.71,0,0,0-3.45-2.57c-5-2.24-10-4.42-15.08-6.39-3.33-1.3-6.79-2.17-10.81-3.43Zm-127-79.66c6.89-3.62,13.51-6.92,19.94-10.54,5.63-3.17,11.13-6.59,16.54-10.16,2.34-1.52,2-3.15-.58-4.17a10.83,10.83,0,0,0-9.72.73q-14.34,8.25-28.74,16.37c-1.91,1.08-4,1.92-6.45,3.1.33-2.26.61-3.81.77-5.36.34-3.39.66-6.8.92-10.2.15-2.06.28-4.19-2.16-5.21a9.52,9.52,0,0,0-8.21,0,4.46,4.46,0,0,0-2.16,3c-.48,8.4-.68,16.8-1,25.2-.2,4.56-.54,9.12-.74,13.68a9.12,9.12,0,0,0,.3,3.37c.93,2.62,3.75,4,7.51,4,4,0,5-.92,5-4.9V98c2.38,1.15,4.34,2.06,6.29,3,8.75,4.37,17.26,9.34,26.76,11.94a76.11,76.11,0,0,0,13.07,2c1.92.19,4-.92,4.18-3,.12-1.76-1.85-2.53-3.44-2.77-7.06-1-13.37-4.12-19.73-7.06C1169.33,99.39,1163.37,96.46,1157.07,93.46Zm203.31,21.44a19.34,19.34,0,0,0,2.39-.33c3.44-.84,4.11-2.59,2.21-5.54-1.67-2.6-3.44-5.17-4.87-7.9q-2.2-4.34-4-8.89-2.57-6.18-5-12.41c-1-2.56-1.79-5.23-2.94-7.72-1.55-3.36-6.94-4.42-10.66-1.85-6.9,4.87-13.55,10.08-20.37,15.08-5.2,3.86-8.89,9.79-15.83,11.34a1.83,1.83,0,0,0-1.55,2.09,1.74,1.74,0,0,0,.4.92c.24.35-.14,1.38-.54,1.85-2.33,2.77-4.77,5.44-7.11,8.21-1.09,1.3-1.26,2.59.46,3.69a9.56,9.56,0,0,0,11.19-1.18,42.67,42.67,0,0,0,5.36-5.66c2.87-4.17,6.54-5.95,11.65-6.14,7.73-.31,15.43-1.39,23.14-2.12a1.84,1.84,0,0,1,2.29,1.25h0a1.89,1.89,0,0,1,.05.23,45.73,45.73,0,0,0,3.69,8.31C1352.48,111.83,1355.32,114.85,1360.38,114.9Zm-196.56,60.44c-.12.18-.24.36-.37.52-2.5,2.82-5,5.61-7.5,8.47-1,1.2-1.61,2.49.13,3.74,2.83,2,8.72,1.78,11.13-.73,3.09-3.21,6-6.6,9.07-9.82a5.48,5.48,0,0,1,3-1.61q14.19-1.54,28.42-2.77a3.05,3.05,0,0,1,2.22,1.54c1.67,3.2,2.85,6.7,4.77,9.74,3.11,4.94,8.48,6.52,12.91,4.33,2.05-1,2.44-2.17,1.08-4.1a61.22,61.22,0,0,1-7.25-12.92c-2.82-7.26-5.86-14.44-8.7-21.71-1.78-4.54-2.9-6.66-8.22-6.27a9.68,9.68,0,0,0-4.76,2c-7.71,5.76-15.3,11.69-23,17.54-3.69,2.85-6.46,7.11-11.72,7.89-2.09.26-2.36,2-1.22,4.18Zm236.31-67.24c-4.51.2-8.64.31-12.77.6a16.58,16.58,0,0,0-4.87,1,3.23,3.23,0,0,0-1.68,2.28,2.8,2.8,0,0,0,1.68,2,26.89,26.89,0,0,0,6.73.92c4.83-.07,9.66-.61,14.49-.72,9.06-.22,18.12-.22,27.17-.45a13.59,13.59,0,0,0,5.25-1.23c2-.92,2-2.54.16-3.69a8.53,8.53,0,0,0-4-1.27c-4.68-.13-9.37,0-14,0h-5.29c.25-11-1.69-21.84,1.16-32.5,5.69.31,11.29.68,16.89.88a19.55,19.55,0,0,0,5.9-.55c1.09-.3,1.85-1.63,2.83-2.5-.92-.92-1.76-2.21-2.9-2.77a11.36,11.36,0,0,0-4.29-.64l-45.37-1a15.12,15.12,0,0,0-5.22.62c-1.1.39-1.85,1.72-2.77,2.62.87.86,1.6,2.15,2.63,2.49a18.47,18.47,0,0,0,5.43.67c4.61.09,9.14,0,14.26,0-3,11-1.15,21.92-1.32,33.23ZM926.32,68.42A52.56,52.56,0,0,0,898.63,76c-6.72,3.92-13.22,8.17-17.47,15-3.89,6.26-3.55,12.25,2.88,16.61a35.66,35.66,0,0,0,10.51,5.14c16.22,4.29,31.73,1.19,46.76-5.35.85-.37,2-1.67,1.85-2.38A4.09,4.09,0,0,0,941,102.6c-3.25-1.59-6.39-.33-9.57.6-5.78,1.69-11.53,3.63-17.43,4.69-6.66,1.19-13.29.53-19.16-3.42-3.38-2.27-4.17-5.93-2.58-9.69a22.86,22.86,0,0,1,7.73-9c8.3-6.22,17.07-11.37,28.06-10.83a9.26,9.26,0,0,1,6.87,2.85c2.4,2.53,7.55,2.9,10.32.84.67-.5,1.53-1.45,1.45-2.1A28.07,28.07,0,0,0,945.27,70a3.46,3.46,0,0,0-2.45-2,46.38,46.38,0,0,0-7,.35,27.23,27.23,0,0,1-2.85.44c-2.23-.08-4.45-.3-6.66-.46ZM1081,114.67c12.8,0,25.14-2.63,34.47-7.07a4,4,0,0,0,2.16-2.66c.06-.74-1.25-1.84-2.2-2.37-3.26-1.63-6.38-.27-9.56.66-5.78,1.69-11.54,3.6-17.45,4.61-6.24,1.12-12.47.5-18.2-2.88-5-3-5.34-7.3-2.77-11.7,2.91-5.06,7.65-8.3,12.42-11.36,7.38-4.81,15.3-7.94,24.33-6.9a7.06,7.06,0,0,1,4.19,1.84c2.59,2.86,5.69,3.32,9.13,2.77,2.23-.39,4.27-1.67,3.84-5.14-.71-5.76-3.69-7.9-9.38-6.46-.67.17-1.3.46-2,.6a8.31,8.31,0,0,1-2.43.3c-19-2.13-34.82,4.69-48.37,17.61a21.75,21.75,0,0,0-5.87,10c-1.07,3.79,1.39,8.63,5.89,11.73C1066.39,113.29,1074.61,114.56,1081,114.67Zm156.18-39.75c.81,5.15,1.71,9.92,2.28,14.71s.72,9.43,1.07,14.13c.08,1,.27,2,.32,3a7.66,7.66,0,0,1-.1,2.48c-.56,1.84-.48,3.5,1.61,4a19.09,19.09,0,0,0,6.28.79c3.31-.28,5-2.36,4.8-5.67-.29-5.64-.76-11.26-1.15-16.9a5.66,5.66,0,0,0-.13-.92L1250,74.91h3c9.06.2,18.11.48,27.17.53a17.35,17.35,0,0,0,6.41-1.19c1.93-.77,2-2.66.16-3.69a9.48,9.48,0,0,0-4.28-1.28c-7-.33-14-.52-21-.67q-24.4-.51-48.83-.87a13.91,13.91,0,0,0-5.09,1.09,2.86,2.86,0,0,0-1.32,2.28,3.34,3.34,0,0,0,1.58,2.07,6.43,6.43,0,0,0,2.83.82c4.29.37,8.57.78,12.86.92,4.61.13,9.23,0,13.57,0Zm224,35.73a19.28,19.28,0,0,1,0-2.15c.8-5.77,1.94-11.51,2.35-17.3.46-6.73.2-13.52.43-20.3a3.05,3.05,0,0,0-2.3-3.41c-2.77-.93-5.61-1.08-8.21.47a3.53,3.53,0,0,0-1.57,2.41c-.35,6.17-.47,12.35-.8,18.53-.3,5.53-.78,11.07-1.21,16.66,0,.44-.31.85-.38,1.28-1,5.44-1,8.77,6.28,9.64a34.06,34.06,0,0,0,6.46.35q18.15-1.29,36.29-2.77a54.45,54.45,0,0,0,8.09-1.64c1.22-.3,2.48-.68,2.56-2.42s-1.22-2.48-2.5-2.77a20.42,20.42,0,0,0-5.89-.35c-8.24.92-16.46,2.08-24.7,2.92-4.88.59-9.8.63-14.89.92Z" transform="translate(-70.08 -28)" fill="#018cc5" opacity="0"/>
        <path d="M1289.14,349.84c-6.3-3.47-12.66-6.62-18.65-10.38-6.46-4-11.81-9.38-14.84-16.52-1.79-4.21-2.77-8.57-1.74-13.41,2.31-11.14,9.82-17.94,18.7-23.69,12.5-8.1,26.52-12.17,41-14.77a170.63,170.63,0,0,1,45.47-1.76c18,1.63,35.48,5.54,51.44,14.6,8,4.54,15.18,10.1,19.45,18.54a23.07,23.07,0,0,1,.92,19.72c-3.69,9.23-11.07,15.12-19.29,20-12.45,7.39-26.14,11.39-40.3,13.68a167.4,167.4,0,0,1-65.2-1.85c-3.47-.81-5.89-.36-8.31,2-1.65,1.58-3.53,2.92-5.74,4.72h43.47l.13.47c-2,1-3.91,2-5.89,3l-41.1,19.56L1217,418q-19,9.1-38,18.23c-3.17,1.53-4,5-6,7.57-1.49,1.91-.52,3.59.17,5.2A31.57,31.57,0,0,1,1176,460.3c.09,2.34.79,4.71.54,7-.54,4.79-1.71,9.51-2.23,14.29a13.42,13.42,0,0,0,.92,6.33c9.85,23.37,24.4,43.71,41,62.75,1.65,1.85,3.36,3.69,4.94,5.7a4.55,4.55,0,0,0,4,1.7q36-.15,72-.19h12.55v6.76c-97,.93-194.17-.2-291.45-.1v-7H1021q45.35.07,90.66.18a5.08,5.08,0,0,0,4.24-2,276.75,276.75,0,0,0,27.27-36.38c5.24-8.43,10-17.1,13.4-26.5.78-2.17,1.85-4.24,2.49-6.46a10.38,10.38,0,0,0,.07-4.54c-.77-4-2.09-7.88-2.63-11.88a96,96,0,0,1-.77-13.66,25.37,25.37,0,0,1,1.54-7.5c.92-2.76-.59-4.7-2-6.53a32.38,32.38,0,0,0-12.38-10c-27.68-12.47-55.23-25.24-82.84-37.89q-35.07-16.06-70.24-32.08a6,6,0,0,1-2.15-1.53h284.91a7.43,7.43,0,0,0,5.14-1.85C1281.42,355.77,1285.42,352.77,1289.14,349.84Zm11.94,18.28-.11-.33h-278.2c1.16.59,1.77.93,2.41,1.23q12.52,5.78,25.06,11.52l69.47,31.8q22,10.05,44,20a3.9,3.9,0,0,0,2.89,0q14.58-6.76,29.07-13.72,32.08-15.33,64.12-30.68l41.27-19.84ZM1167.17,501.8a183.55,183.55,0,0,1-17.1,29.2c-6.56,8.93-13.32,17.73-20.08,26.76h77.09C1191.74,540.56,1178.06,522.42,1167.17,501.8Zm156.94-225.17c-4.89,1-9.58,1.72-14.17,2.86-12.09,3-23.56,7.38-33.09,15.74-5.18,4.57-8.7,10.15-9.53,17.46l67.72-2.46Zm30.29,37.58c13.4,6.93,26.25,13.59,39.14,20.19,2.41,1.23,5.08,3.27,7.38,3,2.48-.31,4.76-2.77,7-4.55,5-3.94,9.06-8.86,10.41-15.12,1.44-6.74-.4-13-5-18.38a2.61,2.61,0,0,0-3.23-1c-9.3,2.7-18.63,5.29-27.94,7.94Zm51-22.49c-20.93-13.2-43.54-16.43-67.52-16.09l10.53,32.3Zm-84.08,57.9c23.69,3.22,46.49,1.72,69.21-6.73-4.88-2.5-9.16-4.67-13.42-6.88q-15-7.77-30-15.57c-1.17-.61-1.84-.49-2.77.7-3.06,4-6.38,7.74-9.54,11.63-4.36,5.47-8.77,11-13.48,16.85Zm11.07-32.38-63.67,2.33c1.29,4.7,4.08,8.11,7.28,11.13,8.61,8.11,19.19,12.48,30.36,15.68a2.68,2.68,0,0,0,3.4-1.05c5.69-7.09,11.51-14.08,17.26-21.14,1.77-2.15,3.43-4.41,5.36-7Z" transform="translate(-70.08 -28)" fill="#030203"/>
        <path d="M1124.94,167c4.3,1.57,8.38,3,12.41,4.56a9.7,9.7,0,0,1,2.77,1.84c2.35,2.1,2.37,4.62,0,6.73-3.44,3.19-7.78,4.66-12.14,6-9.48,2.77-19.27,3.53-29.09,3.84-4.62.15-9.23.13-13.78,0a8.53,8.53,0,0,1-3.69-1.49,3.08,3.08,0,0,1-1.48-2c0-5.3-.13-10.61.2-15.89.31-4.91,1.14-9.79,1.66-14.69.36-3.55.62-7.11.92-10.67a3,3,0,0,1,2.77-3.1c13.71-1.67,27.39-2.46,40.6,3a32.55,32.55,0,0,1,5.94,3.24c5.63,3.88,5.27,9.1,1,13.67a18.37,18.37,0,0,1-3.69,2.83C1127.83,165.62,1126.37,166.25,1124.94,167Zm-31.47-2.43h8c6.39-.1,12.7-.72,18.3-4.13a8.32,8.32,0,0,0,3.4-3.83c1-2.94-.3-4.51-4.26-6.3-7.73-3.5-15.86-3.36-24-2.82Zm-1.74,19.07c2.63,0,4.84.1,7,0,8.3-.42,16.54-.84,24.47-3.51a68.13,68.13,0,0,0,6.63-3l-.16-.92c-11.83-4.83-24.29-5.42-37.23-5.06Z" transform="translate(-70.08 -28)" fill="#030204"/>
        <path d="M997,115.59c-10.33.1-20.51-1-30-5.47a28.69,28.69,0,0,1-6.89-4.23c-5.86-5.24-6.16-11-2.41-17.85,4.24-7.77,11.38-12.14,19.19-15.5,10.92-4.69,22.44-5.17,34.09-4.49,8.13.47,16.24,1.2,23.53,5.2,7.13,3.93,9.43,9.61,8.24,17-1,6.12-4.83,10.72-9.59,14.58-8.54,7-18.55,9.86-29.29,10.73C1001.58,115.75,999.27,115.59,997,115.59Zm10.21-42c-5.78.68-10.91.81-15.79,1.93-9.13,2.12-17.09,6.4-21.76,15-1.6,2.93-2.58,6.39-.42,9.47a14.1,14.1,0,0,0,5.06,4.55,49.24,49.24,0,0,0,38.61,2.15c7.51-2.6,13.9-7,16.53-15.24,1.91-6,.42-12.28-5.64-14.26C1018.22,75.45,1012.33,74.69,1007.18,73.6Z" transform="translate(-70.08 -28)" fill="#030204"/>
        <path d="M1284.1,173.12c4,1.26,7.48,2.14,10.79,3.42,5.09,2,10.15,4.15,15.08,6.39a20,20,0,0,1,3.44,2.57c-2.05,3.4-6.11,4.53-10.31,2.88-4-1.59-7.9-3.57-11.92-5.16a142.4,142.4,0,0,0-31.44-8.25,14.28,14.28,0,0,0-1.85,0,24.39,24.39,0,0,1,.71,3.5c.15,2.68.22,5.38.17,8.06a2.92,2.92,0,0,1-1,1.85c-2.23,1.84-8.11,1.91-10.46.11a3.23,3.23,0,0,1-1.24-2,121.38,121.38,0,0,1-.87-13.2c.08-3.43,1.24-6.83,1.49-10.28.27-3.64,1.93-7.15.5-11a11.73,11.73,0,0,1-.18-6.59,5,5,0,0,1,3.5-2.92,71.48,71.48,0,0,1,10.75-.39c9.61.16,19.16.78,28.34,4,5.16,1.84,10.47,3.41,14.6,7.17a16.67,16.67,0,0,1,4.14,5.88c1.07,2.66-.79,4.83-2.77,6.37-4,3.1-8.72,4.62-13.53,5.82C1289.63,172,1287.18,172.46,1284.1,173.12Zm-24-24.53-1.08,19a1,1,0,0,0,.42.12c7.58-.34,15.18-.46,22.73-1.1a25.27,25.27,0,0,0,12.15-4.32c1.73-1.18,2.21-2.7.6-4a31.06,31.06,0,0,0-6.92-4.78c-8.86-4.09-18.37-4.9-27.88-4.88Z" transform="translate(-70.08 -28)" fill="#030204"/>
        <path d="M1157.07,93.46c6.27,3,12.25,5.93,18.29,8.73,6.36,3,12.67,6,19.73,7.06,1.58.23,3.55,1,3.43,2.77-.14,2.12-2.25,3.22-4.17,3a78,78,0,0,1-13.07-2c-9.51-2.59-18-7.58-26.77-11.94-1.93-.93-3.9-1.85-6.28-3v14.43c0,3.93-.92,4.84-5,4.9-3.76.06-6.59-1.34-7.51-4a9.2,9.2,0,0,1-.3-3.38c.2-4.56.54-9.12.74-13.68.35-8.4.55-16.81,1-25.2a4.4,4.4,0,0,1,2.15-3.09,9.55,9.55,0,0,1,8.22-.09c2.44,1,2.31,3.15,2.16,5.21q-.36,5.11-.92,10.21c-.16,1.56-.44,3.1-.78,5.36,2.47-1.18,4.53-2,6.46-3.1q14.42-8.11,28.74-16.35a10.83,10.83,0,0,1,9.72-.73c2.61,1,2.91,2.64.58,4.18-5.41,3.54-10.91,6.95-16.54,10.15C1170.58,86.52,1164,89.84,1157.07,93.46Z" transform="translate(-70.08 -28)" fill="#030204"/>
        <path d="M1360.38,114.9c-5.09-.05-7.9-3.07-10-6.74a45.64,45.64,0,0,1-3.69-8.3,1.84,1.84,0,0,0-2.1-1.55h0l-.23,0c-7.71.74-15.42,1.85-23.14,2.13-5.11.2-8.77,2-11.65,6.13-1.46,2.12-3.54,3.81-5.36,5.67a9.54,9.54,0,0,1-11.19,1.18c-1.72-1.09-1.55-2.36-.46-3.69,2.34-2.77,4.78-5.44,7.11-8.21.4-.47.77-1.5.54-1.85a1.85,1.85,0,0,1,.24-2.6,1.8,1.8,0,0,1,.91-.41c6.91-1.55,10.61-7.48,15.83-11.32,6.81-5,13.47-10.21,20.37-15.08,3.69-2.62,9.11-1.57,10.66,1.85,1.15,2.49,1.93,5.15,2.94,7.72,1.64,4.14,3.3,8.31,5,12.4,1.26,3,2.48,6,4,8.9s3.21,5.29,4.87,7.9c1.91,3,1.24,4.71-2.21,5.54A21.33,21.33,0,0,1,1360.38,114.9Zm-38.76-21,21.23-2.15a6.42,6.42,0,0,0-.11-1.39c-1.23-3-2.46-6-3.82-9-.11-.24-1.32-.31-1.72,0-1.76,1.23-3.43,2.6-5.11,4l-10.43,8.61Z" transform="translate(-70.08 -28)" fill="#030203"/>
        <path d="M1163.83,175.34c-1.14-2.21-.87-3.88,1.22-4.19,5.27-.78,8-5,11.72-7.89,7.66-5.83,15.25-11.75,23-17.54a9.77,9.77,0,0,1,4.76-2c5.31-.39,6.46,1.73,8.22,6.27,2.84,7.26,5.88,14.44,8.7,21.71a61,61,0,0,0,7.25,12.92c1.37,1.94,1,3.08-1.08,4.1-4.44,2.2-9.81.62-12.92-4.33-1.91-3-3.08-6.53-4.76-9.74a3.05,3.05,0,0,0-2.22-1.54q-14.23,1.22-28.42,2.77a5.43,5.43,0,0,0-3,1.62c-3.09,3.2-6,6.59-9.07,9.81-2.41,2.51-8.3,2.77-11.13.73-1.75-1.25-1.18-2.54-.13-3.74,2.45-2.86,5-5.65,7.5-8.47A6.13,6.13,0,0,0,1163.83,175.34Zm37.83-20.3-16.76,13.62,21.73-2.21Z" transform="translate(-70.08 -28)" fill="#030203"/>
        <path d="M1400.14,108.1c.17-11.27-1.69-22.15,1.3-33.13-5.11,0-9.68.06-14.26,0a18.47,18.47,0,0,1-5.43-.67c-1-.34-1.76-1.63-2.63-2.49.93-.93,1.69-2.24,2.77-2.63a15.35,15.35,0,0,1,5.22-.61q22.7.41,45.37,1a11.37,11.37,0,0,1,4.29.65c1.15.53,2,1.85,2.9,2.77-.92.87-1.74,2.19-2.82,2.5a19.61,19.61,0,0,1-5.91.54c-5.6-.19-11.19-.56-16.89-.92-2.85,10.66-.92,21.48-1.16,32.5h5.29c4.68,0,9.37-.14,14,0a8.53,8.53,0,0,1,4,1.27c1.9,1.17,1.85,2.77-.16,3.69a13.77,13.77,0,0,1-5.24,1.23c-9.07.24-18.13.24-27.18.45-4.84.12-9.66.64-14.49.72a26.89,26.89,0,0,1-6.73-.92,2.8,2.8,0,0,1-1.68-2,3.23,3.23,0,0,1,1.68-2.27,16.65,16.65,0,0,1,4.87-1C1391.5,108.41,1395.63,108.3,1400.14,108.1Z" transform="translate(-70.08 -28)" fill="#040305"/>
        <path d="M926.34,68.4c2.21.16,4.43.38,6.66.43a24.82,24.82,0,0,0,2.85-.44,46.36,46.36,0,0,1,7-.32,3.49,3.49,0,0,1,2.42,2,29.15,29.15,0,0,1,1.43,6.46c.07.65-.79,1.6-1.45,2.1-2.77,2.07-7.93,1.69-10.33-.84A9.26,9.26,0,0,0,928,74.89c-11-.54-19.73,4.61-28.06,10.83-3.22,2.41-6.08,5.18-7.72,9s-.81,7.39,2.57,9.69c5.87,4,12.51,4.62,19.16,3.42,5.91-1,11.66-3,17.43-4.69,3.19-.92,6.33-2.19,9.57-.6a4,4,0,0,1,2.15,2.44c.1.71-1,2-1.84,2.38-15,6.53-30.55,9.63-46.76,5.35A35.43,35.43,0,0,1,884,107.62c-6.46-4.36-6.77-10.34-2.88-16.61,4.24-6.83,10.75-11.07,17.47-15A52.63,52.63,0,0,1,926.34,68.4Z" transform="translate(-70.08 -28)" fill="#030204"/>
        <path d="M1081,114.67c-6.35-.11-14.57-1.43-21.79-6.46-4.5-3.1-7-7.94-5.89-11.74a21.76,21.76,0,0,1,5.88-10c13.56-12.92,29.32-19.77,48.37-17.64a7.68,7.68,0,0,0,2.43-.3c.67-.13,1.3-.43,2-.6,5.67-1.4,8.67.75,9.38,6.46.44,3.47-1.6,4.77-3.84,5.14-3.45.6-6.54.14-9.12-2.76a7.06,7.06,0,0,0-4.2-1.85c-9-1-16.93,2.1-24.33,6.9-4.77,3.1-9.5,6.31-12.42,11.36-2.54,4.41-2.25,8.72,2.77,11.7,5.72,3.38,12,4,18.21,2.88,5.9-1,11.66-3,17.44-4.61,3.17-.92,6.3-2.29,9.56-.66.92.48,2.26,1.63,2.2,2.38a4,4,0,0,1-2.16,2.65C1106.1,112,1093.76,114.67,1081,114.67Z" transform="translate(-70.08 -28)" fill="#030204"/>
        <path d="M1237.14,74.93c-4.38,0-9,.12-13.55,0-4.29-.14-8.57-.54-12.86-.92a6.43,6.43,0,0,1-2.83-.82,3.3,3.3,0,0,1-1.58-2.07,2.86,2.86,0,0,1,1.32-2.28,13.91,13.91,0,0,1,5.09-1.09q24.42.34,48.83.87c7,.15,14,.34,21,.67a9.48,9.48,0,0,1,4.28,1.28c1.85,1.07,1.77,3-.16,3.69a17.56,17.56,0,0,1-6.41,1.19c-9.06-.06-18.11-.33-27.17-.53h-3l2.09,15.62c0,.3.1.6.13.92.4,5.63.87,11.26,1.14,16.9.17,3.31-1.48,5.39-4.79,5.67a19,19,0,0,1-6.28-.79c-2.09-.54-2.18-2.19-1.61-4a7.71,7.71,0,0,0,.1-2.49c0-1-.24-2-.32-3-.36-4.7-.53-9.44-1.08-14.13S1238,80.06,1237.14,74.93Z" transform="translate(-70.08 -28)" fill="#040304"/>
        <path d="M1461.11,110.66c5.1-.26,10-.32,14.88-.82,8.25-.84,16.46-2,24.7-2.91a20.42,20.42,0,0,1,5.89.35c1.28.24,2.59.92,2.5,2.77s-1.34,2.12-2.56,2.41a55.78,55.78,0,0,1-8.09,1.65q-18.14,1.56-36.29,2.77a34.06,34.06,0,0,1-6.46-.35c-7.26-.93-7.29-4.2-6.28-9.64a11.71,11.71,0,0,0,.38-1.28c.43-5.54.93-11.08,1.21-16.67.33-6.17.45-12.36.81-18.53a3.51,3.51,0,0,1,1.56-2.41c2.6-1.56,5.43-1.4,8.21-.47a3.08,3.08,0,0,1,2.3,3.42c-.23,6.75,0,13.53-.43,20.3-.4,5.79-1.55,11.53-2.35,17.29A18.74,18.74,0,0,0,1461.11,110.66Z" transform="translate(-70.08 -28)" fill="#030204"/>
        <path d="M1301.07,368.13l-41.27,19.81-64.12,30.68q-14.51,6.93-29.07,13.73a4,4,0,0,1-2.89,0q-22-9.92-44-20.07l-69.48-31.8q-12.54-5.73-25-11.51c-.64-.3-1.26-.64-2.41-1.23H1301Z" transform="translate(-70.08 -28)" fill="#fc071c"/>
        <path d="M1167.17,501.8c10.89,20.6,24.58,38.76,39.91,55.91H1130c6.76-9,13.51-17.78,20.08-26.76A183.09,183.09,0,0,0,1167.17,501.8Z" transform="translate(-70.08 -28)" fill="#018cc5" opacity="0"/>
        <path d="M1324.11,276.63,1335,310.19l-67.69,2.43c.83-7.32,4.34-12.92,9.53-17.46,9.52-8.38,21-12.76,33.09-15.75C1314.53,278.32,1319.22,277.55,1324.11,276.63Z" transform="translate(-70.08 -28)" fill="#fcfc00"/>
        <path d="M1354.4,314.21c9.59-2.76,18.67-5.33,27.76-7.91,9.31-2.65,18.64-5.25,27.94-7.94a2.61,2.61,0,0,1,3.23,1c4.62,5.38,6.46,11.64,5,18.38-1.34,6.27-5.38,11.18-10.41,15.12-2.22,1.73-4.5,4.24-7,4.55-2.31.28-5-1.77-7.38-3C1380.66,327.8,1367.81,321.13,1354.4,314.21Z" transform="translate(-70.08 -28)" fill="#fcfc00"/>
        <path d="M1405.37,291.72l-57,16.16-10.53-32.3C1361.84,275.29,1384.45,278.47,1405.37,291.72Z" transform="translate(-70.08 -28)" fill="#fbfb00"/>
        <path d="M1321.29,349.62c4.71-5.88,9.1-11.38,13.54-16.85,3.15-3.89,6.46-7.66,9.54-11.63.92-1.19,1.6-1.31,2.77-.7q15,7.8,30,15.57c4.25,2.21,8.53,4.38,13.42,6.88C1367.78,351.38,1345,352.84,1321.29,349.62Z" transform="translate(-70.08 -28)" fill="#fbfb00"/>
        <path d="M1332.34,317.23c-1.94,2.54-3.59,4.8-5.37,7-5.74,7.06-11.57,14-17.26,21.14a2.7,2.7,0,0,1-3.4,1c-11.16-3.24-21.75-7.6-30.36-15.69-3.2-3-6-6.46-7.28-11.12Z" transform="translate(-70.08 -28)" fill="#fbfb00"/>
        <path d="M1093.47,164.56l1.43-17.13c8.13-.53,16.26-.68,24,2.82,4,1.8,5.28,3.36,4.26,6.3a8.27,8.27,0,0,1-3.4,3.83c-5.59,3.41-11.91,4-18.3,4.13C1098.94,164.6,1096.42,164.56,1093.47,164.56Z" transform="translate(-70.08 -28)" fill="#018cc5" opacity="0"/>
        <path d="M1091.73,183.63l.75-12.57c12.92-.36,25.4.23,37.23,5.05l.16.93a68.05,68.05,0,0,1-6.63,3c-7.93,2.68-16.21,3.09-24.47,3.52C1096.57,183.73,1094.36,183.63,1091.73,183.63Z" transform="translate(-70.08 -28)" fill="#018cc5" opacity="0"/>
        <path d="M1007.18,73.6c5.15,1.08,11.07,1.85,16.61,3.61,6.06,2,7.55,8.31,5.64,14.26-2.63,8.19-9,12.65-16.53,15.25a49.28,49.28,0,0,1-38.61-2.16,14,14,0,0,1-5.06-4.55c-2.16-3.09-1.18-6.54.41-9.47,4.68-8.61,12.64-12.92,21.76-15C996.27,74.41,1001.39,74.28,1007.18,73.6Z" transform="translate(-70.08 -28)" fill="#018cc5" opacity="0"/>
        <path d="M1260.13,148.58c9.51,0,19,.79,27.9,4.87a31.39,31.39,0,0,1,6.92,4.78c1.61,1.35,1.13,2.87-.6,4.05a25.31,25.31,0,0,1-12.15,4.32c-7.55.65-15.16.77-22.73,1.1a.89.89,0,0,1-.42-.12Z" transform="translate(-70.08 -28)" fill="#018cc5" opacity="0"/>
        <path d="M1321.66,93.91c3.69-3.06,7.1-5.84,10.5-8.59,1.67-1.36,3.34-2.77,5.11-4,.41-.29,1.63-.23,1.73,0,1.35,3,2.58,6,3.81,9a6,6,0,0,1,.11,1.4Z" transform="translate(-70.08 -28)" fill="#018cc5" opacity="0"/>
        <path d="M1201.68,155l5,11.41-21.73,2.22Z" transform="translate(-70.08 -28)" fill="#018cc5" opacity="0"/>
      </g>
    </g>
    <g id="tur3">
      <g>
        <path d="M1652.05,30.28h614.14a46,46,0,0,1,46,46v536a46,46,0,0,1-46,46H1652.05a46,46,0,0,1-46-46v-536A46,46,0,0,1,1652.05,30.28Zm652.81,578.34V79.87a46,46,0,0,0-46-46H1659.35a46,46,0,0,0-46,46V608.62a46,46,0,0,0,46,46h599.54A46,46,0,0,0,2304.86,608.62Z" transform="translate(-70.08 -28)" fill="#0a070c"/>
        <path d="M2258.89,654.59H1659.35a46,46,0,0,1-46-46V79.87a46,46,0,0,1,46-46h599.53a46,46,0,0,1,46,46V608.62A46,46,0,0,1,2258.89,654.59ZM1766.11,275.4c3.68.71,6.86,1.21,10,2,2.12.54,3.31.1,4.71-1.71,16.42-21.1,33-42.08,49.42-63.16a3.58,3.58,0,0,1,3.18-1.55h47.34c.65,0,1.3.07,2.48.15L1833,275.38c4,.78,7.64,1.45,11.28,2.24a2.36,2.36,0,0,0,2.75-1.14c4.38-5.7,8.89-11.3,13.33-17,12-15.3,24.09-30.58,36-46a5.53,5.53,0,0,1,5-2.56q102.39.08,204.77,0a4.77,4.77,0,0,1,1.6,0,5.16,5.16,0,0,1,2.19,1.22c6.2,7.84,12.32,15.73,18.49,23.59q16,20.38,32,40.69c.43.55,1.32,1.21,1.89,1.12,4-.65,7.89-1.46,12-2.26l-50.16-64.06a9.4,9.4,0,0,1,1.17-.26h36.32a4.78,4.78,0,0,1,2.57,1.09q38.63,29,77.18,57.92c.62.47,1.56,1.1,2.15.92,3.6-1,7.15-2.28,11-3.54-.47-.4-.63-.56-.8-.69q-39-29.37-78.15-58.71a4.91,4.91,0,0,1-2.26-4.45q.11-47.1,0-94.23a4.85,4.85,0,0,0-1.22-3.31q-28.58-24.83-57.24-49.48a5.77,5.77,0,0,0-4-1.49l-347.25.09a6.38,6.38,0,0,0-3.83,1.42q-28.6,24.72-57.21,49.48a4.24,4.24,0,0,0-1.68,3.59c0,30.34-.06,60.68.13,91a9.27,9.27,0,0,1-4.25,8.48c-23.75,17.64-47.36,35.45-71,53.22-2.09,1.58-4.12,3.24-6.54,5.14,3.25,1.08,6.09,1.84,8.82,3a4.26,4.26,0,0,0,4.72-.68q37.89-28.62,75.89-57.11a8.61,8.61,0,0,1,4.74-1.6c11.26-.14,22.52-.07,33.79-.07h2.57l-50.38,64.35c4.09.82,7.53,1.47,11,2.21a3,3,0,0,0,3.39-1.37c2.21-3,4.51-6,6.82-8.91q21.35-27.19,42.66-54.41a4.4,4.4,0,0,1,3.94-1.94c15.47,0,30.94,0,46.41,0,.74,0,1.47.07,2.94.14Zm321.78,329.94c3.6.62,7,1.15,10.36,1.84,2.09.41,3.26-.16,4.48-2.12,8.77-14.09,17.7-28.08,26.66-42a6.25,6.25,0,0,1,2.76-1.94c3.44-1.52,7-2.76,10.4-4.4,1.38-.64,1.9-.43,2.28.92.92,3.3,1.84,6.61,3,9.88,2.31,6.89,4.78,13.73,7.05,20.64,2,6.07,3.8,12.22,5.78,18.32.19.59,1,1.41,1.51,1.38,4.18-.22,8.34-.62,12.68-.92-1.28-4.14-2.41-7.91-3.62-11.66-1.4-4.31-2.88-8.59-4.29-12.87-1.35-4.11-2.63-8.27-4-12.37-1.41-4.29-2.88-8.56-4.31-12.87s-2.75-8.34-4.15-12.52c-.78-2.4-1.91-4.8-2.1-7.26a19.31,19.31,0,0,0-6.43-13.51,102.7,102.7,0,0,0-8.83-6.33c24.82-11.24,35.94-33.69,32.3-56.08-3.76-23.11-19.13-36.6-40.68-43.78a1.5,1.5,0,0,1,.27-.29c1-.66,2-1.29,3-2,8.48-5.93,13.52-13.69,13.91-24.37.33-9-2.6-16.63-9.11-22.64-12.1-11.2-26.34-12.87-41.61-8.28-13.87,4.2-26.09,18.75-22.19,35.95a29.26,29.26,0,0,0,8,14.79c2.6,2.56,5.65,4.66,8.49,7-.47.17-1,.38-1.61.56-12.7,4.25-23.23,11.45-30.82,22.63a49,49,0,0,0-8.64,26.37,75.52,75.52,0,0,0,.73,9.5,42,42,0,0,0,6.17,17.47c9.14,15.27,22.9,23.81,40,27.4,3,.61,6,.92,9.29,1.44-6.2,6.44-8.44,13.79-5.72,22.17s9.19,12.87,17.39,15.35ZM1775.3,402.56a61.46,61.46,0,0,0-19.92,10c-14,10.79-21.2,25-21.15,42.71,0,3.28.92,6.57,1.49,9.82a44.12,44.12,0,0,0,8,17.85c10,13.79,23.74,21.23,40.27,24,2,.34,4.09.58,6.56.92-6.27,6.73-8.66,14.17-5.72,22.44,2.85,8,9.19,12.69,17.41,15.1l-28.44,44.73c4.13.67,7.75,1.2,11.33,1.83a2.65,2.65,0,0,0,3.08-1.5q13.44-21.35,27-42.62a7.38,7.38,0,0,1,3.15-2.15c3.23-1.44,6.52-2.76,9.78-4.09.66-.27,1.32-.58,2-.92l17.07,51.93,13.72-1.17c-.4-1.09-.7-1.84-.92-2.62q-1.7-5.08-3.37-10.19-2-6.24-4-12.5c-1-3.2-2-6.44-3.07-9.59q-2.13-6.47-4.3-12.87c-1.08-3.23-2.25-6.44-3.25-9.69-1.2-3.85-2.47-7.7-3.31-11.64-1-4.6-2-9.31-5.52-12.69-3-2.85-6.43-5.12-9.75-7.66,21.3-10.72,34.57-27.68,32.32-52.66-2.21-24.71-18.13-39.26-41.06-47.11.52-.37.79-.6,1.1-.79,11.87-7.41,18-17.62,15.78-32a28.36,28.36,0,0,0-10.75-18.13c-11-8.91-23.73-10.62-37.25-7.3-14,3.45-27.9,16.8-24.93,35.27a28.23,28.23,0,0,0,8,16c2.65,2.59,5.65,4.77,8.65,7.28Zm148.66,174c4.32.72,8.28,1.44,12.27,2,.53.07,1.4-.71,1.78-1.31q13.8-21.59,27.58-43.21a4.11,4.11,0,0,1,1.71-1.62c4.27-1.61,8.58-3.1,13.1-4.71.53,1.73,1.18,4,1.94,6.29,1.71,5,3.53,10,5.21,15.12,1.4,4.25,2.61,8.56,4,12.81q2.57,7.94,5.32,15.82c.19.54.92,1.29,1.43,1.27,4.09-.24,8.17-.64,12.59-1-.92-2.91-1.63-5.52-2.48-8.16-1.67-5.06-3.44-10.11-5.11-15.14-1.41-4.26-2.76-8.54-4.11-12.8s-2.82-8.59-4.23-12.87-2.76-8.27-4.16-12.49c-.79-2.4-2-4.81-2.16-7.28-.59-7.73-4.31-13.41-10.58-17.6-1.62-1.09-3.42-1.91-5.22-2.89,19.05-9.31,31.9-23.47,33-45,1.44-29.07-15.38-45.66-41-55.17a7.85,7.85,0,0,1,.92-.57c11.58-6.27,19.17-19.62,15.57-34a29.61,29.61,0,0,0-9.83-15.88c-10-8.47-21.75-10.7-34.23-8.38-14.71,2.75-25.14,10.91-28.36,26A27.57,27.57,0,0,0,1913.8,378a36.45,36.45,0,0,0,12.1,10.63,2.56,2.56,0,0,1-.48.33l-1.71.62c-12.36,4.22-22.65,11.25-30.21,22.06a47.32,47.32,0,0,0-8.52,21.76c-.6,5.29.09,10.79.64,16.14.69,6.6,3.48,12.49,7.1,18,8.62,13.11,20.9,20.91,35.91,24.65,3.95,1,8,1.47,12,2.17-5.83,6.3-8.27,13.39-5.6,21.86s9,12.78,17.34,15.63Zm70.19-335v3c0,7.89.08,15.78-.06,23.66,0,2.11.72,2.61,2.63,2.53,3.14-.12,6.29-.15,9.42,0,2.18.12,2.66-.71,2.64-2.75-.11-7.81,0-15.63,0-23.44,0-.8.08-1.59.13-2.67,1.08.61,1.84,1,2.62,1.49l44.86,29.8a2.54,2.54,0,0,0,1.84.49c3.42-1.21,6.79-2.56,10.35-3.93-.41-.32-.61-.51-.84-.66l-35.92-23.9c-7.66-5.1-15.31-10.21-23-15.24a6.29,6.29,0,0,0-3.07-.76c-2.91-.13-5.82-.12-8.74-.11a4.09,4.09,0,0,0-2,.36c-2.69,1.65-5.34,3.39-8,5.14q-20.43,13.6-40.85,27.24l-11.95,8c3.62,1.32,6.81,2.55,10,3.68a3,3,0,0,0,2.24-.24q12.42-8.09,24.73-16.3c7.42-5,14.92-10,23-15.39Zm-56.63,76c3.57,1.33,6.53,2.52,9.57,3.47a4,4,0,0,0,3-.28c12.49-8.18,24.92-16.47,37.37-24.73,3.28-2.18,6.58-4.35,10.3-6.8v29.18h13.85v-29c1.25.67,2.21,1.08,3.06,1.64q22.5,15,45,29.93c.46.3,1.17.66,1.6.51,3.54-1.21,7-2.55,10.78-3.93-1.48-1-2.58-1.83-3.67-2.54l-32.82-21.73c-7.85-5.21-15.63-10.48-23.54-15.63a4,4,0,0,0-2.91-.75,12.75,12.75,0,0,1-8.7,0,3.38,3.38,0,0,0-2.33.35,38.29,38.29,0,0,0-3.37,2.28l-46.55,30.89C1944.77,312.7,1941.36,315,1937.52,317.58Z" transform="translate(-70.08 -28)" fill="#018cc5" opacity="0"/>
        <path d="M1766.15,275.4l50.27-64.23c-1.47-.08-2.2-.14-2.94-.14h-46.42a4.35,4.35,0,0,0-3.93,1.94q-21.26,27.25-42.66,54.41c-2.31,2.94-4.6,5.88-6.82,8.9a2.94,2.94,0,0,1-3.39,1.37c-3.42-.75-6.87-1.38-11-2.2l50.38-64.36h-2.57c-11.27,0-22.53-.06-33.79.08a8.56,8.56,0,0,0-4.73,1.6q-38,28.5-75.89,57.12a4.31,4.31,0,0,1-4.73.68c-2.75-1.11-5.51-1.9-8.81-3,2.41-1.91,4.45-3.57,6.54-5.14,23.65-17.77,47.26-35.59,71-53.22a9.25,9.25,0,0,0,4.25-8.49c-.19-30.34-.09-60.68-.14-91a4.24,4.24,0,0,1,1.69-3.58q28.66-24.69,57.28-49.42a6.38,6.38,0,0,1,3.83-1.42q173.63-.11,347.25-.1a5.76,5.76,0,0,1,4.05,1.5q28.62,24.76,57.24,49.47a4.84,4.84,0,0,1,1.22,3.32q.1,47.12,0,94.23a4.93,4.93,0,0,0,2.25,4.46q39.09,29.31,78.15,58.71c.17.13.32.27.8.69-3.81,1.26-7.36,2.5-11,3.54-.59.16-1.53-.46-2.15-.92q-38.61-29-77.17-57.92a4.9,4.9,0,0,0-2.58-1.1c-12.1-.06-24.2,0-36.31,0a9.59,9.59,0,0,0-1.18.27l50.17,64.1c-4.14.8-8.06,1.63-12,2.26-.57.09-1.46-.57-1.9-1.12q-16.07-20.31-32-40.68c-6.17-7.86-12.28-15.76-18.49-23.59a5,5,0,0,0-2.19-1.23,4.77,4.77,0,0,0-1.6,0H1901.39a5.54,5.54,0,0,0-5,2.56c-11.88,15.42-24,30.7-36,46-4.44,5.65-9,11.25-13.32,16.95a2.38,2.38,0,0,1-2.76,1.14c-3.68-.79-7.3-1.45-11.28-2.23l50.22-64.36c-1.17-.07-1.84-.15-2.47-.15h-47.34a3.56,3.56,0,0,0-3.18,1.56c-16.45,21.07-33,42.07-49.42,63.16-1.4,1.84-2.61,2.24-4.71,1.7C1773,276.61,1769.77,276.11,1766.15,275.4Zm120.36-135.87H2121v64.41h38.48v-92H1714.75v92H1886.5Zm-166.17-34.94H2154c-.1-.34-.1-.52-.19-.6L2107.1,63.72a6,6,0,0,0-4.2-1.71q-165.48.08-331,.11a6.68,6.68,0,0,0-4,1.48Q1749,79.68,1730.22,96c-3.24,2.82-6.44,5.64-9.89,8.67Zm276.73,98.94c-.33-3.24-.8-6.38-.92-9.54q-.57-13.38-.92-26.75c-.17-6.12-.23-12.25-.3-18.39,0-1.84-.65-2.76-2.69-2.76q-44.7.07-89.4,0a22.13,22.13,0,0,0-2.3.24v57.46H2107v-57.4h-98.13a2.22,2.22,0,0,0-.18.67c.25,6.62.57,13.24.78,19.87.15,4.9.15,9.79.25,14.71,0,2.67.07,5.36.22,8,.24,4.6.58,9.2.92,13.9Z" transform="translate(-70.08 -28)" fill="#020203"/>
        <path d="M2087.85,605.34l28.45-44.7c-8.2-2.5-14.71-7-17.4-15.36s-.48-15.7,5.72-22.16c-3.31-.51-6.33-.82-9.29-1.45-17.11-3.58-30.89-12.12-40-27.39a41.73,41.73,0,0,1-6.17-17.47,73.85,73.85,0,0,1-.74-9.51,49,49,0,0,1,8.64-26.37c7.6-11.18,18.12-18.38,30.82-22.62l1.61-.56c-2.84-2.3-5.89-4.41-8.49-7a29.3,29.3,0,0,1-8-14.79c-3.89-17.22,8.28-31.75,22.19-35.95,15.27-4.6,29.51-2.92,41.61,8.27,6.51,6,9.44,13.63,9.11,22.65-.39,10.68-5.43,18.45-13.91,24.37-1,.69-2,1.3-3,2a1.16,1.16,0,0,0-.26.28c21.54,7.18,36.91,20.68,40.67,43.78,3.68,22.37-7.44,44.82-32.3,56.08,2.86,2,6.09,3.91,8.83,6.34a19.29,19.29,0,0,1,6.43,13.5c.2,2.47,1.32,4.87,2.1,7.27,1.35,4.18,2.76,8.34,4.16,12.52s2.89,8.56,4.3,12.87c1.35,4.11,2.63,8.27,4,12.36,1.41,4.31,2.9,8.58,4.29,12.88,1.22,3.75,2.35,7.53,3.62,11.65-4.34.36-8.5.75-12.67.92a2.27,2.27,0,0,1-1.52-1.38c-2-6.08-3.78-12.23-5.77-18.32-2.27-6.9-4.75-13.79-7.06-20.64-1.09-3.25-2-6.57-3-9.87-.4-1.35-.92-1.57-2.28-.92-3.42,1.6-7,2.88-10.41,4.39a6.41,6.41,0,0,0-2.76,1.94c-9,14-17.91,27.95-26.66,42-1.22,2-2.4,2.53-4.48,2.13C2094.85,606.49,2091.45,606,2087.85,605.34ZM2062.11,469.2c.36,25.18,21.14,46.88,47.12,46.88,25.26,0,46.95-20.84,47-47,.08-25.69-21.27-47.21-47.15-47.17-25.5.05-46.82,21.47-47,47.24Zm67-66.41c1.1-3.06,2.43-5.43,2.75-7.93.92-7.18.13-14.07-4.46-20.1-4.72-6.21-10.74-10.43-18.68-10-13.25.64-21.58,12.17-22.56,23.15a24.14,24.14,0,0,0,5.42,17.56c5.51,6.93,12.46,10.87,21.65,9.09a19.19,19.19,0,0,0,10-5.24l-10.86-5.84a29.73,29.73,0,0,0,4-1.92c4.29-3,8.43-3.15,12.78,1.27Zm9.39,135.61c.48-3.9-1.34-7.36-3.84-10.55-5.05-6.35-12.61-6.76-18.17-.92a16.76,16.76,0,0,0,.19,23.7,14.45,14.45,0,0,0,1.16,1c5.07,4.18,10.25,4.07,15.1-.37a15.68,15.68,0,0,0,5.52-12.91Z" transform="translate(-70.08 -28)" fill="#040304"/>
        <path d="M1775.27,402.57c-3-2.51-6-4.69-8.64-7.28a28.23,28.23,0,0,1-8-16c-3-18.47,10.87-31.82,24.93-35.27,13.51-3.31,26.19-1.61,37.25,7.3a28.41,28.41,0,0,1,10.65,18.18c2.23,14.41-3.92,24.6-15.78,32-.31.19-.58.42-1.1.79,22.93,7.85,38.84,22.41,41.06,47.12,2.23,25-11,41.93-32.32,52.65,3.28,2.55,6.79,4.82,9.75,7.67,3.5,3.36,4.51,8,5.52,12.69.84,3.93,2.11,7.78,3.31,11.64,1,3.25,2.18,6.43,3.25,9.69,1.44,4.3,2.89,8.59,4.29,12.87,1,3.19,2,6.43,3.07,9.59q2,6.25,4,12.5,1.66,5.1,3.37,10.19c.25.77.55,1.52.92,2.62l-13.72,1.16L1830,540.77c-.66.29-1.31.6-2,.92-3.26,1.36-6.55,2.65-9.78,4.09a7.2,7.2,0,0,0-3.14,2.15q-13.62,21.24-27,42.61a2.64,2.64,0,0,1-3.08,1.51c-3.58-.66-7.19-1.19-11.33-1.84l28.44-44.73c-8.2-2.41-14.56-7.07-17.41-15.09-2.93-8.28-.55-15.71,5.72-22.44-2.46-.34-4.52-.58-6.56-.92-16.54-2.76-30.34-10.23-40.26-24a43.91,43.91,0,0,1-8-17.84c-.59-3.25-1.48-6.55-1.48-9.82,0-17.7,7.19-31.93,21.14-42.71A61.65,61.65,0,0,1,1775.27,402.57ZM1824,527.23a7.53,7.53,0,0,0,0-7.41,17,17,0,0,0-6.87-10c-2.07-1.46-4.59-2.69-7.35-2.09-7.82,1.63-11.59,8.08-12.27,14.11-.73,6.36,1.79,11.64,7.08,15.44,3.5,2.5,7.18,3.19,11.1,1.06a16.06,16.06,0,0,0,8.32-11.1Zm-29-120.47c-24.6-.17-46.07,21.34-46.82,45.23-.92,29.42,24.45,49.28,46.77,49,26.12-.37,47.25-21.39,47.17-47.34C1842.05,428.68,1821.57,407,1795,406.76Zm3.12-18.56,2.76-1.32c4.16-2.2,8.27-4.55,12.81-.67.27.23,1.76-.28,2-.75,1.84-4.6,3.13-9.19,2.19-14.39a26.62,26.62,0,0,0-6.68-14c-4.67-5-10.35-8.16-17.27-7.54-11.17,1-19,9.33-21.14,18.93-1.58,7-.92,14.14,3.48,20.39,6.27,9,16.46,13.47,25.85,9.53a72.9,72.9,0,0,0,7.28-4.05Z" transform="translate(-70.08 -28)" fill="#030203"/>
        <path d="M1923.94,576.57l28.39-44.66c-8.32-2.88-14.71-7.21-17.34-15.63s-.23-15.56,5.6-21.86c-4-.7-8.08-1.18-12-2.17-15-3.74-27.3-11.55-35.91-24.65-3.62-5.52-6.44-11.41-7.11-18-.56-5.36-1.24-10.85-.63-16.14a47.31,47.31,0,0,1,8.51-21.76c7.57-10.83,17.86-17.86,30.21-22.07.57-.19,1.15-.39,1.71-.61a2.56,2.56,0,0,0,.48-.33,36.88,36.88,0,0,1-12.1-10.63,27.57,27.57,0,0,1-4.89-22.28c3.22-15.11,13.69-23.3,28.36-26,12.49-2.32,24.23-.09,34.23,8.38a29.57,29.57,0,0,1,9.84,15.88c3.59,14.41-4,27.76-15.58,34a10.77,10.77,0,0,0-.91.58c25.6,9.52,42.41,26.1,41,55.17-1.07,21.52-13.93,35.69-33,45,1.84,1,3.61,1.84,5.23,2.89,6.27,4.19,10,9.87,10.58,17.6.18,2.48,1.37,4.88,2.16,7.28,1.36,4.17,2.76,8.28,4.15,12.49s2.84,8.59,4.23,12.87,2.71,8.55,4.11,12.8c1.68,5,3.44,10.11,5.11,15.14.87,2.6,1.6,5.25,2.49,8.15-4.43.38-8.51.78-12.6,1-.46,0-1.23-.73-1.42-1.27q-2.76-7.89-5.33-15.82c-1.38-4.25-2.59-8.56-4-12.81-1.67-5.06-3.49-10.12-5.2-15.13-.76-2.25-1.42-4.59-2-6.28-4.51,1.6-8.83,3.09-13.09,4.71a4,4,0,0,0-1.71,1.62L1938,577.23c-.39.6-1.24,1.38-1.79,1.31C1932.21,578,1928.25,577.29,1923.94,576.57Zm68.28-136.23c.32-25.83-21.82-47.25-46.89-47.23s-46.82,21-47,46.95c-.17,26.3,22.82,47.16,46.65,47.27,24.55.13,47.47-20.87,47.24-47Zm-26.66-66.8c1-3.26,2.21-6.13,2.63-9.12a24.14,24.14,0,0,0-3.55-16.66c-4.24-6.64-10-11.27-18.09-11.78-12.64-.81-22.51,10.24-24.07,21.14-1.35,9.49,1.9,17.52,9.2,23.83,8.13,7.07,20.22,6.89,27.47-.46l-10.76-5.91c3-1.38,5.46-2.44,7.84-3.67a3.66,3.66,0,0,1,4.19,0,56.3,56.3,0,0,0,5.13,2.63ZM1974.83,510a17.15,17.15,0,0,0-6.58-13.24c-4.52-3.68-9.07-3.53-13.74-.24-7.86,5.52-9,18-2.1,25.06,5.14,5.24,11.11,5.84,16.44,1.17a17.29,17.29,0,0,0,6-12.76Z" transform="translate(-70.08 -28)" fill="#020203"/>
        <path d="M1994.12,241.6c-8,5.36-15.55,10.37-23.06,15.35q-12.33,8.18-24.73,16.3a2.91,2.91,0,0,1-2.24.24c-3.24-1.08-6.44-2.31-10-3.68l12-8,40.85-27.24c2.63-1.75,5.28-3.49,8-5.14a4.21,4.21,0,0,1,2-.36c2.92,0,5.84,0,8.75.11a6.47,6.47,0,0,1,3.07.77q11.57,7.53,23,15.23l35.91,23.9c.23.15.43.34.84.67-3.56,1.37-6.93,2.75-10.35,3.92a2.49,2.49,0,0,1-1.84-.49q-22.46-14.88-44.85-29.79c-.74-.49-1.54-.92-2.62-1.5-.06,1.08-.14,1.84-.14,2.67,0,7.82-.08,15.63,0,23.44,0,2-.46,2.88-2.64,2.76-3.14-.17-6.28-.13-9.42,0-1.91.07-2.66-.43-2.63-2.54.13-7.89.06-15.78.06-23.66A22.83,22.83,0,0,0,1994.12,241.6Z" transform="translate(-70.08 -28)" fill="#019241"/>
        <path d="M1937.52,317.58c3.81-2.55,7.22-4.85,10.64-7.12l46.55-30.89a38.29,38.29,0,0,1,3.37-2.28,3.32,3.32,0,0,1,2.33-.35,12.78,12.78,0,0,0,8.71,0,4,4,0,0,1,2.9.75c7.88,5.17,15.69,10.45,23.55,15.63q16.38,10.88,32.81,21.73c1.13.74,2.23,1.53,3.68,2.54-3.75,1.38-7.25,2.71-10.79,3.93a2.32,2.32,0,0,1-1.6-.52q-22.5-14.94-45-29.92c-.85-.56-1.84-1-3-1.64v29h-13.79V289.22c-3.68,2.45-7,4.6-10.3,6.8q-18.68,12.42-37.37,24.73a4,4,0,0,1-3.05.28C1944.08,320.07,1941.12,318.88,1937.52,317.58Z" transform="translate(-70.08 -28)" fill="#00923f"/>
        <path d="M1886.51,139.53v64.35H1714.75V112h444.72v92H2121V139.53Z" transform="translate(-70.08 -28)" fill="#018cc5" opacity="0"/>
        <path d="M1720.33,104.62c3.48-3,6.69-5.85,9.93-8.64,12.53-10.8,25.06-21.63,37.7-32.35a6.68,6.68,0,0,1,4-1.48q165.49-.1,331-.12a6.1,6.1,0,0,1,4.2,1.71q23.34,20.16,46.7,40.27c.09.09.09.28.2.61Z" transform="translate(-70.08 -28)" fill="#018cc5" opacity="0"/>
        <path d="M1997.08,203.58h13.74c-.32-4.72-.66-9.3-.92-13.9-.15-2.68-.18-5.35-.22-8-.1-4.9-.1-9.8-.25-14.71-.2-6.62-.53-13.24-.78-19.86a2.55,2.55,0,0,1,.18-.67H2107v57.51H1900.51V146.46a22.13,22.13,0,0,1,2.3-.24h89.4c2,0,2.67.92,2.69,2.76.07,6.12.13,12.25.31,18.39q.36,13.37.92,26.75C1996.28,197.15,1996.75,200.32,1997.08,203.58Z" transform="translate(-70.08 -28)" fill="#018cc5" opacity="0"/>
        <path d="M2062.09,469.2c.19-25.75,21.51-47.19,47-47.22,25.88,0,47.23,21.48,47.15,47.17-.07,26.11-21.76,46.89-47,47C2083.27,516.17,2062.45,494.38,2062.09,469.2Zm54.49,5.13a86.93,86.93,0,0,0,8.39-5,18.06,18.06,0,0,0,5.8-20.71c-2.23-5.51-6.33-9.19-11.88-11.44-9.33-3.68-18.39-3.37-26.88,2.06a18.45,18.45,0,0,0-7.27,23.38c2.94,6.68,8.64,10,15.48,11.79a5.47,5.47,0,0,1,3,1.64c4.77,6.67,9.38,13.46,14.11,20.17a2.16,2.16,0,0,0,1.68.84c4-.59,8-1.32,12-2Z" transform="translate(-70.08 -28)" fill="#018cc5" opacity="0"/>
        <path d="M2129.06,402.79c-4.35-4.42-8.48-4.24-12.8-1.29a29.73,29.73,0,0,1-4,1.92l10.87,5.84a19.18,19.18,0,0,1-10,5.24c-9.19,1.78-16.14-2.15-21.65-9.09a24.14,24.14,0,0,1-5.42-17.56c1-11,9.33-22.51,22.56-23.15,7.94-.39,14,3.83,18.69,10,4.59,6,5.4,12.93,4.46,20.1C2131.5,397.36,2130.16,399.73,2129.06,402.79Zm-22.67-17.93c5.31,1.2,10.41,2.36,15.54,3.46a2.08,2.08,0,0,0,1.65-.43c1.65-1.75,3.2-3.6,5-5.67-3.68-.81-7-1.52-10.29-2.28-6.77-1.54-6.76-1.55-11,3.68A7.15,7.15,0,0,0,2106.39,384.86Z" transform="translate(-70.08 -28)" fill="#018cc5" opacity="0"/>
        <path d="M2138.45,538.4a15.63,15.63,0,0,1-5.51,12.93c-4.85,4.43-10,4.54-15.1.37a16.77,16.77,0,0,1-2.4-23.58c.33-.41.68-.79,1-1.17,5.56-5.85,13.12-5.45,18.17.92C2137.11,531,2138.93,534.5,2138.45,538.4Z" transform="translate(-70.08 -28)" fill="#018cc5" opacity="0"/>
        <path d="M1795,406.76c26.56.27,47,21.92,47.12,46.89.08,25.94-21.05,47-47.17,47.34-22.32.31-47.71-19.54-46.77-49C1748.94,428.1,1770.41,406.59,1795,406.76Zm7.51,52.3c2.61-1.46,4.91-2.59,7-4a18.32,18.32,0,0,0,5.21-25.37,19.17,19.17,0,0,0-1.9-2.41c-4.07-4.38-9.2-6.53-15.23-7.36-7.35-1-14.06.11-20.22,4.2a18.46,18.46,0,0,0-5.91,25c3.2,5.35,8.13,8.09,13.87,9.84a7.26,7.26,0,0,1,3.48,1.84c4.54,6.32,8.86,12.81,13.31,19.2.57.8,1.58,2,2.25,1.93,4.1-.53,8.15-1.36,12.53-2.15Z" transform="translate(-70.08 -28)" fill="#018cc5" opacity="0"/>
        <path d="M1798.13,388.21l11.22,6.11a75,75,0,0,1-7.28,4.05c-9.39,3.94-19.58-.57-25.85-9.53-4.37-6.25-5.06-13.42-3.48-20.39,2.16-9.6,9.94-17.92,21.14-18.93,6.92-.62,12.59,2.58,17.27,7.54a26.62,26.62,0,0,1,6.68,14c.92,5.16-.32,9.79-2.19,14.39-.19.47-1.68,1-1.94.75-4.53-3.88-8.66-1.52-12.82.66C1800.06,387.31,1799.23,387.68,1798.13,388.21Zm-6-18.59c5.52,1.27,10.45,2.38,15.35,3.48.44.1,1.12.27,1.34.06,1.83-1.9,3.67-3.87,5.7-6.11-5.52-1.25-10.45-2.37-15.36-3.43-.55-.12-1.4-.18-1.71.14-1.73,1.75-3.33,3.63-5.32,5.86Z" transform="translate(-70.08 -28)" fill="#018cc5" opacity="0"/>
        <path d="M1824,527.2a16,16,0,0,1-8.35,11c-3.91,2.12-7.6,1.44-11.09-1.06-5.31-3.79-7.82-9.06-7.09-15.43.68-6,4.46-12.49,12.27-14.11,2.84-.59,5.32.63,7.36,2.08a17,17,0,0,1,6.86,10C1824,522.26,1824,524.75,1824,527.2Z" transform="translate(-70.08 -28)" fill="#018cc5" opacity="0"/>
        <path d="M1824,527.2v-7.41A7.53,7.53,0,0,1,1824,527.2Z" transform="translate(-70.08 -28)" fill="#42304e"/>
        <path d="M1992.22,440.34c.23,26.12-22.69,47.12-47.27,47-23.83-.11-46.82-21-46.65-47.27.18-25.92,22.07-46.89,47-46.95C1970.4,393.08,1992.54,414.51,1992.22,440.34Zm-39.65,4.87c.92-.35,1.57-.63,2.27-.92,7.67-2.9,15.46-11.54,12.73-22.26a18.88,18.88,0,0,0-8.77-11.95c-9.44-5.58-19.4-5.83-29.28-.67-10.12,5.27-14,18.39-6.51,27.93,3.61,4.6,8.43,6.87,13.79,8.46a4,4,0,0,1,2.09,1c4.7,6.67,9.29,13.42,14,20.11.45.64,1.44,1.42,2.07,1.34,4-.53,7.89-1.29,12-2a4.7,4.7,0,0,0-.35-1.1c-4.6-6.55-9.19-13.12-14-20Z" transform="translate(-70.08 -28)" fill="#018cc5" opacity="0"/>
        <path d="M1965.55,373.54q-2.64-1.21-5.13-2.67a3.66,3.66,0,0,0-4.19,0c-2.38,1.26-4.87,2.31-7.84,3.68l10.7,5.9c-7.2,7.35-19.3,7.52-27.47.46-7.27-6.32-10.52-14.35-9.19-23.83,1.55-10.89,11.43-21.94,24.07-21.15,8.13.53,13.84,5.14,18.08,11.78a24.16,24.16,0,0,1,3.55,16.67C1967.76,367.4,1966.51,370.28,1965.55,373.54Zm-1-20.12c-5.2-1.18-10.38-2.38-15.58-3.5a2.06,2.06,0,0,0-1.63.45c-1.65,1.75-3.19,3.61-5,5.64,3.13.72,6,1.41,8.85,2,2.59.56,5.52,2,7.69,1.27s3.68-3.57,5.52-5.51c0,0,0-.12.11-.35Z" transform="translate(-70.08 -28)" fill="#018cc5" opacity="0"/>
        <path d="M1974.82,510a17.27,17.27,0,0,1-6,12.75c-5.33,4.68-11.3,4.07-16.44-1.16-6.91-7-5.76-19.53,2.1-25.07,4.66-3.29,9.19-3.44,13.74.24A17.18,17.18,0,0,1,1974.82,510Z" transform="translate(-70.08 -28)" fill="#018cc5" opacity="0"/>
        <path d="M2116.58,474.33,2131,495c-4.07.71-8,1.43-12,2a2.16,2.16,0,0,1-1.68-.84c-4.72-6.71-9.33-13.5-14.11-20.17a5.47,5.47,0,0,0-3-1.64c-6.84-1.76-12.54-5.11-15.48-11.79a18.45,18.45,0,0,1,7.27-23.38c8.51-5.43,17.56-5.78,26.88-2.06a20.25,20.25,0,0,1,11.88,11.44,18.05,18.05,0,0,1-5.79,20.71A85.55,85.55,0,0,1,2116.58,474.33Zm1.65-19.49c0-4.91-2.26-8.67-6.14-11.53-2.84-2.09-5.68-2.13-8.69-.24a14.09,14.09,0,0,0-2.11,22c4.34,4.09,8.07,4.19,12.43.12A13.26,13.26,0,0,0,2118.23,454.84Z" transform="translate(-70.08 -28)" fill="#010101"/>
        <path d="M2106.39,384.86c.43-.65.6-1,.83-1.28,4.3-5.18,4.3-5.17,11-3.67,3.32.75,6.64,1.47,10.29,2.28-1.84,2.07-3.35,3.91-5,5.66a2,2,0,0,1-1.64.43C2116.79,387.22,2111.7,386.06,2106.39,384.86Z" transform="translate(-70.08 -28)" fill="#040305"/>
        <path d="M1802.52,459.06,1817,479.81c-4.38.79-8.43,1.62-12.53,2.15-.67.08-1.69-1.13-2.25-1.93-4.45-6.39-8.78-12.88-13.31-19.2-.69-.92-2.23-1.45-3.48-1.84-5.74-1.75-10.67-4.49-13.88-9.84a18.47,18.47,0,0,1,5.92-25c6.14-4.08,12.87-5.2,20.22-4.2,6,.82,11.16,3,15.23,7.36a18.31,18.31,0,0,1-.86,25.86h0a18.73,18.73,0,0,1-2.44,1.92C1807.43,456.48,1805.13,457.6,1802.52,459.06Zm-19.3-21.93c-.19,1.75-.41,3.52-.52,5.28,0,.23.51.5.78.75a11.06,11.06,0,0,0,6.2,8.68c1.27.67,2.92,1.43,4.18,1.16a12.74,12.74,0,0,0,9.8-10.12c1.16-6.43-1.83-13-6.65-15.36-2-1-4.19-1.62-6.31-.44-4,2.21-7,5.25-7.49,10Z" transform="translate(-70.08 -28)" fill="#020102"/>
        <path d="M1792.1,369.62c2-2.23,3.59-4.1,5.32-5.87.31-.31,1.16-.26,1.71-.14,4.91,1.06,9.8,2.18,15.36,3.43-2.06,2.24-3.85,4.22-5.7,6.11-.22.21-.92,0-1.34-.06C1802.55,372,1797.66,370.91,1792.1,369.62Z" transform="translate(-70.08 -28)" fill="#040305"/>
        <path d="M1952.56,445.21c4.77,6.84,9.36,13.41,13.93,20a5.2,5.2,0,0,1,.34,1.1c-4,.7-7.95,1.45-11.95,2-.63.08-1.62-.7-2.07-1.35-4.68-6.68-9.27-13.43-14-20.1a4.05,4.05,0,0,0-2.1-1c-5.35-1.59-10.11-3.85-13.79-8.45-7.46-9.51-3.56-22.68,6.51-27.93,9.89-5.17,19.84-4.91,29.28.67a18.82,18.82,0,0,1,8.77,11.95c2.76,10.71-5,19.35-12.73,22.26Zm1.49-18.93c.47-3.68-1.16-7-3.58-9.72-2.94-3.32-6.44-4.77-10.57-2.43-7.36,4.17-9.58,15.18-3.15,21.63,2.25,2.25,4.6,4.28,8.2,3.37,4.6-1.11,9.49-6.84,9.11-12.87Z" transform="translate(-70.08 -28)" fill="#020203"/>
        <path d="M1964.54,353.44a1.89,1.89,0,0,1-.11.38c-1.84,1.93-3.32,4.79-5.52,5.52s-5.1-.71-7.69-1.27c-2.87-.61-5.73-1.3-8.85-2,1.76-2,3.31-3.89,5-5.65A2.09,2.09,0,0,1,1949,350C1954.16,351,1959.34,352.24,1964.54,353.44Z" transform="translate(-70.08 -28)" fill="#040305"/>
        <path d="M2118.23,454.84a13.28,13.28,0,0,1-4.51,10.35c-4.36,4.07-8.09,4-12.43-.12a14,14,0,0,1-.47-19.86,13.86,13.86,0,0,1,2.58-2.13c3-1.89,5.86-1.84,8.69.24A13.93,13.93,0,0,1,2118.23,454.84Z" transform="translate(-70.08 -28)" fill="#018cc5" opacity="0"/>
        <path d="M1783.21,437.1c.55-4.8,3.51-7.84,7.48-10.05,2.12-1.18,4.33-.54,6.31.44,4.8,2.38,7.8,8.95,6.66,15.37a12.75,12.75,0,0,1-9.81,10.11c-1.26.27-2.91-.49-4.18-1.16a11,11,0,0,1-6.19-8.68Z" transform="translate(-70.08 -28)" fill="#018cc5" opacity="0"/>
        <path d="M1783.21,437.1l.26,6c-.28-.25-.79-.51-.79-.74C1782.8,440.65,1783.06,438.88,1783.21,437.1Z" transform="translate(-70.08 -28)" fill="#735585"/>
        <path d="M1954.06,426.28c.4,6-4.5,11.71-9.08,12.87-3.68.92-6-1.12-8.2-3.37-6.44-6.44-4.18-17.47,3.14-21.64,4.1-2.32,7.63-.92,10.58,2.44C1952.89,419.28,1954.51,422.61,1954.06,426.28Z" transform="translate(-70.08 -28)" fill="#018cc5" opacity="0"/>
      </g>
    </g>
    <g id="tur4">
      <g>
        <path d="M3803.34,658.21H3188.13a46,46,0,0,1-46.05-46.05V75.31a46,46,0,0,1,46.05-46h615.21a46.05,46.05,0,0,1,46,46.05V612.16A46.05,46.05,0,0,1,3803.34,658.21ZM3796,32.86H3195.45a46,46,0,0,0-46,46.05V608.57a46,46,0,0,0,46,46H3796a46.05,46.05,0,0,0,46.05-46V78.91A46.05,46.05,0,0,0,3796,32.86Z" transform="translate(-70.08 -28)" fill="#0a070c"/>
        <path d="M3842.07,78.88V608.53A46.05,46.05,0,0,1,3796,654.58H3195.45a46,46,0,0,1-46-46.05V78.88a46,46,0,0,1,46-46H3796A46,46,0,0,1,3842.07,78.88ZM3592.23,350.46c-3.68,2.92-7.69,5.92-11.49,9.14a7.33,7.33,0,0,1-5.13,1.84q-140.91-.06-281.82,0h-2.52a5.93,5.93,0,0,0,2.15,1.53l70.1,32c27.55,12.62,55,25.37,82.67,37.81a32.33,32.33,0,0,1,12.35,10c1.43,1.85,2.94,3.69,2,6.52a25.61,25.61,0,0,0-1.53,7.48,94.08,94.08,0,0,0,.77,13.63c.53,4,1.84,7.89,2.62,11.86a10.38,10.38,0,0,1-.07,4.54c-.59,2.21-1.71,4.27-2.48,6.44-3.34,9.38-8.15,18-13.37,26.44A276.1,276.1,0,0,1,3419.27,556a5.06,5.06,0,0,1-4.22,2q-45.24-.15-90.48-.17h-2.85v7c97.08-.11,194,1,290.87.1v-6.75h-12.53l-71.84.19a4.55,4.55,0,0,1-3.94-1.7c-1.56-2-3.28-3.8-4.92-5.68-16.58-19-31.06-39.26-40.88-62.63a13.38,13.38,0,0,1-.92-6.32c.51-4.78,1.69-9.48,2.22-14.25.26-2.28-.44-4.61-.53-7a31.83,31.83,0,0,0-2.71-11.32c-.69-1.62-1.66-3.28-.17-5.19,2-2.53,2.77-6,6-7.56q18.91-9.15,37.86-18.18,35.76-17.1,71.53-34.15,20.47-9.78,41-19.53c2-.92,3.91-2,5.87-3l-.13-.46H3595.1c2.21-1.84,4.08-3.14,5.72-4.72,2.45-2.32,4.86-2.76,8.29-2a167.13,167.13,0,0,0,65.07,1.84c14.15-2.28,27.8-6.24,40.22-13.64,8.22-4.9,15.55-10.75,19.26-20a23,23,0,0,0-.92-19.68c-4.27-8.42-11.4-14-19.41-18.5-15.93-9-33.34-12.94-51.34-14.57a170,170,0,0,0-45.38,1.76c-14.48,2.58-28.47,6.64-41,14.73-8.86,5.73-16.35,12.53-18.66,23.64a21.83,21.83,0,0,0,1.74,13.39c3,7.12,8.37,12.47,14.81,16.49C3579.6,343.85,3586,347,3592.23,350.46ZM3428.36,168c1.43-.73,2.89-1.35,4.22-2.19a18,18,0,0,0,3.68-2.83c4.26-4.56,4.61-9.76-1-13.64a32.75,32.75,0,0,0-5.93-3.23c-13.15-5.46-26.8-4.67-40.52-3a3,3,0,0,0-2.77,3.08c-.24,3.56-.49,7.11-.87,10.66-.51,4.89-1.35,9.75-1.65,14.65-.32,5.27-.25,10.58-.2,15.86a3.09,3.09,0,0,0,1.47,2,8.49,8.49,0,0,0,3.73,1.49c4.61.18,9.21.19,13.75,0,9.8-.32,19.58-1,29-3.83,4.35-1.29,8.67-2.77,12.11-6,2.32-2.16,2.31-4.61,0-6.72a9.65,9.65,0,0,0-2.76-1.84C3436.73,171,3432.64,169.53,3428.36,168Zm-127.71-51.28c2.29,0,4.61.16,6.89,0,10.72-.92,20.7-3.77,29.23-10.71,4.74-3.86,8.59-8.45,9.57-14.55,1.19-7.37-1.11-13.06-8.22-17-7.28-4-15.38-4.73-23.49-5.2-11.63-.67-23.13-.2-34,4.49-7.79,3.35-14.92,7.71-19.15,15.46-3.75,6.87-3.44,12.59,2.41,17.82a28.85,28.85,0,0,0,6.87,4.22C3280.19,115.7,3290.34,116.77,3300.65,116.68ZM3587.2,174.1c3.09-.67,5.53-1.12,7.91-1.73,4.8-1.22,9.55-2.69,13.51-5.8,2-1.55,3.83-3.68,2.76-6.36a16.48,16.48,0,0,0-4.13-5.87c-4.11-3.75-9.42-5.33-14.57-7.15-9.21-3.25-18.69-3.86-28.28-4a69.93,69.93,0,0,0-10.73.4,5,5,0,0,0-3.49,2.91,11.66,11.66,0,0,0,.18,6.57c1.42,3.85-.24,7.37-.5,11-.25,3.44-1.41,6.83-1.48,10.26a118.39,118.39,0,0,0,.86,13.18,3.23,3.23,0,0,0,1.23,2c2.36,1.84,8.23,1.73,10.45-.11a2.9,2.9,0,0,0,1-1.84c.06-2.68,0-5.37-.17-8.05a25.67,25.67,0,0,0-.7-3.49,14.12,14.12,0,0,1,1.84,0,142.31,142.31,0,0,1,31.37,8.23c4,1.59,7.89,3.57,11.9,5.15,4.18,1.65,8.24.52,10.29-2.87a19.38,19.38,0,0,0-3.43-2.56c-5-2.24-10-4.42-15.05-6.39C3594.67,176.22,3591.22,175.35,3587.2,174.1ZM3460.43,94.6c6.88-3.62,13.48-6.91,19.9-10.53,5.62-3.16,11.11-6.58,16.51-10.13,2.33-1.52,2-3.15-.58-4.16a10.76,10.76,0,0,0-9.7.72q-14.31,8.23-28.68,16.34c-1.92,1.08-4,1.92-6.45,3.1.33-2.26.62-3.81.78-5.35.34-3.39.66-6.79.92-10.19.14-2.05.27-4.18-2.16-5.19a9.48,9.48,0,0,0-8.19,0,4.42,4.42,0,0,0-2.16,3c-.48,8.38-.68,16.77-1,25.15-.19,4.55-.54,9.1-.74,13.65a9.15,9.15,0,0,0,.31,3.37c.92,2.61,3.74,4,7.48,4,4-.06,5-.92,5-4.89V99.12c2.37,1.14,4.33,2,6.27,3,8.74,4.36,17.23,9.32,26.71,11.92a76.69,76.69,0,0,0,13.05,2c1.91.19,4-.92,4.16-3,.12-1.75-1.84-2.52-3.42-2.76-7-1-13.35-4.11-19.69-7C3472.66,100.51,3466.72,97.59,3460.43,94.6ZM3663.33,116a19.34,19.34,0,0,0,2.39-.33c3.43-.84,4.1-2.59,2.21-5.53-1.67-2.59-3.44-5.15-4.87-7.88a95.26,95.26,0,0,1-4-8.88q-2.58-6.16-5-12.38c-1-2.56-1.78-5.22-2.93-7.7-1.55-3.36-6.93-4.42-10.64-1.85-6.89,4.86-13.53,10.06-20.33,15-5.19,3.85-8.88,9.77-15.8,11.31a1.85,1.85,0,0,0-1.55,2.09,1.68,1.68,0,0,0,.41.92c.24.35-.15,1.38-.55,1.85-2.32,2.76-4.76,5.43-7.09,8.19-1.09,1.3-1.26,2.58.45,3.69a9.56,9.56,0,0,0,11.17-1.18,42.67,42.67,0,0,0,5.36-5.66c2.86-4.15,6.52-5.93,11.62-6.12,7.72-.31,15.4-1.38,23.1-2.12a1.84,1.84,0,0,1,2.27,1.26,1,1,0,0,1,.06.23,45.5,45.5,0,0,0,3.68,8.29C3655.45,112.92,3658.28,115.94,3663.33,116Zm-196.17,60.32a4.49,4.49,0,0,1-.37.52c-2.49,2.81-5,5.59-7.48,8.45-1,1.2-1.61,2.48.14,3.74,2.81,2,8.7,1.77,11.1-.73,3.08-3.21,6-6.6,9.06-9.8a5.36,5.36,0,0,1,3-1.61q14.16-1.55,28.37-2.77a3.05,3.05,0,0,1,2.22,1.54c1.66,3.2,2.83,6.69,4.75,9.72,3.11,4.93,8.46,6.51,12.89,4.32,2-1,2.43-2.17,1.08-4.09a61,61,0,0,1-7.24-12.89c-2.82-7.25-5.85-14.42-8.68-21.67-1.78-4.53-2.89-6.65-8.21-6.26a9.61,9.61,0,0,0-4.74,2c-7.7,5.75-15.27,11.66-22.92,17.5-3.73,2.85-6.44,7.1-11.69,7.87-2.09.27-2.36,2-1.23,4.18ZM3703,109.2c-4.5.21-8.62.32-12.74.6a16.53,16.53,0,0,0-4.86,1,3.19,3.19,0,0,0-1.68,2.26,2.8,2.8,0,0,0,1.68,2,26.67,26.67,0,0,0,6.71.92c4.83-.07,9.65-.61,14.46-.72,9-.22,18.09-.22,27.12-.45a13.41,13.41,0,0,0,5.24-1.23c2-.92,2.05-2.53.16-3.68a8.45,8.45,0,0,0-4-1.26c-4.67-.13-9.35,0-14,0h-5.28c.25-11-1.68-21.8,1.16-32.44,5.69.31,11.27.67,16.86.88a19.46,19.46,0,0,0,5.89-.55c1.09-.3,1.84-1.63,2.82-2.49-.92-.92-1.75-2.21-2.89-2.77a11.54,11.54,0,0,0-4.28-.64l-45.28-1a15.06,15.06,0,0,0-5.21.62c-1.1.39-1.84,1.71-2.76,2.62.86.85,1.59,2.14,2.62,2.48a18.71,18.71,0,0,0,5.42.68c4.6.08,9.12,0,14.22,0-3,11-1.14,21.87-1.31,33.15ZM3230.14,69.6a52.53,52.53,0,0,0-27.63,7.59c-6.7,3.91-13.2,8.15-17.43,15-3.89,6.25-3.55,12.23,2.87,16.57a35.53,35.53,0,0,0,10.49,5.13c16.18,4.29,31.66,1.19,46.67-5.34.84-.37,1.94-1.66,1.84-2.37a4,4,0,0,0-2.15-2.43c-3.24-1.59-6.37-.34-9.55.59-5.76,1.69-11.5,3.62-17.4,4.68-6.64,1.19-13.26.54-19.12-3.41-3.37-2.26-4.16-5.92-2.56-9.67a22.73,22.73,0,0,1,7.7-9c8.29-6.21,17-11.35,28-10.81a9.26,9.26,0,0,1,6.85,2.84c2.4,2.53,7.54,2.9,10.31.84.66-.5,1.52-1.44,1.44-2.09a28.5,28.5,0,0,0-1.42-6.45,3.5,3.5,0,0,0-2.45-2,49,49,0,0,0-7,.35,24.65,24.65,0,0,1-2.84.44c-2.23-.08-4.44-.3-6.65-.46Zm154.33,46.16c12.77,0,25.1-2.62,34.41-7.05a4.08,4.08,0,0,0,2.15-2.66c.06-.74-1.25-1.84-2.2-2.36-3.25-1.63-6.36-.28-9.54.65-5.77,1.69-11.51,3.59-17.41,4.61-6.23,1.11-12.45.49-18.17-2.88-5-3-5.32-7.28-2.76-11.68,2.91-5,7.63-8.28,12.39-11.33,7.37-4.8,15.27-7.93,24.28-6.89a7.06,7.06,0,0,1,4.19,1.84c2.58,2.86,5.68,3.31,9.11,2.76,2.23-.38,4.26-1.66,3.83-5.13-.71-5.74-3.68-7.88-9.36-6.44-.67.16-1.29.46-2,.6a7.87,7.87,0,0,1-2.42.29c-19-2.13-34.75,4.69-48.28,17.58a21.67,21.67,0,0,0-5.85,10c-1.07,3.79,1.39,8.62,5.87,11.72C3369.94,114.38,3378.13,115.65,3384.47,115.76Zm155.87-39.67c.81,5.14,1.71,9.9,2.27,14.69s.73,9.4,1.08,14.1c.07,1,.26,2,.31,2.94a7.37,7.37,0,0,1-.1,2.48c-.55,1.84-.48,3.49,1.61,4a19.24,19.24,0,0,0,6.26.8c3.31-.29,5-2.36,4.79-5.67-.28-5.62-.75-11.23-1.14-16.86a5.66,5.66,0,0,0-.13-.92l-2.09-15.58h3c9,.19,18.08.47,27.13.52a17.29,17.29,0,0,0,6.39-1.19c1.92-.76,2-2.65.16-3.68a9.44,9.44,0,0,0-4.27-1.28c-7-.32-13.93-.52-20.91-.66q-24.36-.52-48.73-.87a13.86,13.86,0,0,0-5.08,1.09,2.82,2.82,0,0,0-1.31,2.27,3.27,3.27,0,0,0,1.57,2.06,6.39,6.39,0,0,0,2.83.82c4.27.37,8.54.78,12.83.92C3531.4,76.22,3536,76.09,3540.34,76.09Zm223.51,35.66a19.28,19.28,0,0,1,0-2.15c.8-5.76,1.94-11.48,2.35-17.26.46-6.72.2-13.49.42-20.26a3,3,0,0,0-2.29-3.41c-2.77-.92-5.6-1.08-8.19.47a3.53,3.53,0,0,0-1.57,2.41c-.36,6.16-.47,12.33-.8,18.49-.3,5.52-.78,11-1.21,16.63,0,.43-.31.85-.38,1.28-1,5.43-1,8.75,6.27,9.62a33.92,33.92,0,0,0,6.45.35q18.1-1.29,36.21-2.77a54.32,54.32,0,0,0,8.08-1.64c1.21-.29,2.47-.68,2.56-2.41s-1.23-2.48-2.5-2.76a20.37,20.37,0,0,0-5.88-.35c-8.23.92-16.43,2.07-24.65,2.91-4.87.59-9.78.63-14.86.92Z" transform="translate(-70.08 -28)" fill="#018cc5" opacity="0"/>
        <path d="M3592.23,350.46c-6.28-3.46-12.63-6.61-18.61-10.36-6.45-4-11.78-9.36-14.81-16.48-1.79-4.21-2.76-8.56-1.73-13.39,2.3-11.12,9.8-17.91,18.66-23.65,12.48-8.07,26.47-12.13,40.94-14.73a170.38,170.38,0,0,1,45.38-1.76c18,1.63,35.41,5.53,51.34,14.57,8,4.53,15.15,10.08,19.41,18.5a23,23,0,0,1,.92,19.68c-3.68,9.21-11.05,15.1-19.26,20-12.42,7.37-26.08,11.36-40.22,13.65a167.08,167.08,0,0,1-65.06-1.85c-3.47-.81-5.88-.35-8.29,2-1.65,1.57-3.53,2.91-5.73,4.71h43.38l.13.46c-2,1-3.9,2-5.88,3l-41,19.52q-35.77,17.07-71.52,34.15-19,9.09-37.89,18.19c-3.17,1.53-4,5-6,7.56-1.49,1.91-.52,3.59.16,5.19a31.41,31.41,0,0,1,2.71,11.33c.09,2.33.79,4.7.54,7-.54,4.78-1.71,9.48-2.22,14.25a13.26,13.26,0,0,0,.92,6.32c9.82,23.33,24.34,43.63,40.87,62.63,1.65,1.84,3.35,3.68,4.93,5.68a4.53,4.53,0,0,0,3.94,1.7q35.92-.13,71.84-.19h12.52v6.75c-96.85.92-193.78-.2-290.86-.1v-6.94h2.84q45.26.06,90.48.17a5.07,5.07,0,0,0,4.23-2,275.71,275.71,0,0,0,27.22-36.31c5.22-8.41,10-17.07,13.38-26.45.77-2.16,1.84-4.23,2.47-6.44a10.34,10.34,0,0,0,.08-4.53c-.78-4-2.09-7.87-2.63-11.87a94.07,94.07,0,0,1-.76-13.63,25.29,25.29,0,0,1,1.53-7.48c.92-2.76-.59-4.69-2-6.52a32.4,32.4,0,0,0-12.35-10c-27.63-12.44-55.12-25.19-82.68-37.81q-35-16-70.09-32a5.85,5.85,0,0,1-2.15-1.53h284.33a7.31,7.31,0,0,0,5.13-1.84C3584.53,356.38,3588.52,353.38,3592.23,350.46Zm11.92,18.24-.11-.32H3326.4c1.15.59,1.77.92,2.4,1.22l25,11.5,69.34,31.73q21.93,10,43.91,20a4,4,0,0,0,2.89,0q14.55-6.75,29-13.7,32-15.3,64-30.62l41.19-19.8ZM3470.51,502.11a182.39,182.39,0,0,1-17.07,29.14c-6.55,8.92-13.29,17.7-20,26.71h76.94C3495,540.79,3481.37,522.7,3470.51,502.11Zm156.63-224.72c-4.88,1-9.56,1.73-14.15,2.86-12.06,3-23.51,7.37-33,15.71-5.17,4.56-8.68,10.13-9.51,17.43l67.58-2.46Zm30.22,37.51c13.38,6.91,26.21,13.56,39.06,20.15,2.41,1.23,5.08,3.27,7.37,3,2.48-.3,4.75-2.76,7-4.54,5-3.93,9.05-8.84,10.39-15.09,1.44-6.72-.39-13-5-18.34a2.62,2.62,0,0,0-3.23-1c-9.28,2.69-18.59,5.28-27.88,7.92Zm50.86-22.44c-20.89-13.18-43.45-16.4-67.38-16.06l10.51,32.23Zm-83.91,57.78c23.64,3.22,46.4,1.72,69.07-6.72-4.87-2.5-9.14-4.66-13.39-6.86q-15-7.76-29.93-15.54c-1.17-.61-1.84-.49-2.76.7-3.06,4-6.38,7.72-9.53,11.61-4.35,5.45-8.74,10.95-13.45,16.81Zm11.05-32.31-63.55,2.32c1.29,4.69,4.08,8.09,7.27,11.1,8.59,8.1,19.16,12.46,30.3,15.66a2.69,2.69,0,0,0,3.39-1.05c5.68-7.08,11.49-14,17.23-21.1,1.76-2.15,3.42-4.4,5.35-6.94Z" transform="translate(-70.08 -28)" fill="#030203"/>
        <path d="M3428.36,168c4.29,1.57,8.37,3,12.39,4.55a9.52,9.52,0,0,1,2.76,1.84c2.35,2.09,2.37,4.61,0,6.72-3.43,3.18-7.76,4.65-12.11,6-9.47,2.76-19.24,3.52-29,3.83-4.6.15-9.21.13-13.75,0a8.49,8.49,0,0,1-3.68-1.49,3,3,0,0,1-1.47-2c-.06-5.28-.13-10.58.2-15.86.3-4.9,1.13-9.76,1.65-14.65.37-3.54.62-7.1.87-10.65A3,3,0,0,1,3389,143c13.68-1.67,27.33-2.46,40.52,3a32.8,32.8,0,0,1,5.93,3.24c5.62,3.86,5.26,9.08,1,13.64a18.38,18.38,0,0,1-3.73,2.82C3431.25,166.61,3429.79,167.23,3428.36,168Zm-31.4-2.42h8c6.38-.1,12.68-.72,18.27-4.13a8.23,8.23,0,0,0,3.39-3.82c1-2.93-.3-4.49-4.25-6.28-7.72-3.5-15.83-3.35-24-2.82Zm-1.74,19c2.63,0,4.83.09,7,0,8.29-.43,16.52-.84,24.43-3.51a69,69,0,0,0,6.61-3l-.16-.92c-11.8-4.82-24.24-5.41-37.15-5Z" transform="translate(-70.08 -28)" fill="#030204"/>
        <path d="M3300.65,116.68c-10.31.09-20.46-1-29.92-5.46a28.85,28.85,0,0,1-6.87-4.22c-5.85-5.23-6.15-10.94-2.41-17.82,4.23-7.75,11.36-12.11,19.15-15.46,10.9-4.69,22.4-5.17,34-4.49,8.12.47,16.21,1.2,23.49,5.2,7.12,3.91,9.41,9.59,8.22,17-1,6.11-4.83,10.69-9.57,14.55-8.53,6.94-18.51,9.84-29.23,10.71C3305.26,116.84,3302.94,116.68,3300.65,116.68Zm10.19-41.9c-5.77.67-10.89.8-15.76,1.92-9.11,2.11-17,6.39-21.72,15-1.59,2.93-2.57,6.38-.41,9.45a14,14,0,0,0,5,4.54,49.16,49.16,0,0,0,38.54,2.15c7.49-2.6,13.87-7,16.49-15.21,1.91-6,.43-12.26-5.62-14.23C3321.86,76.62,3316,75.86,3310.84,74.78Z" transform="translate(-70.08 -28)" fill="#030204"/>
        <path d="M3587.2,174.1c4,1.25,7.47,2.13,10.77,3.4,5.08,2,10.08,4.15,15.05,6.39a19,19,0,0,1,3.43,2.56c-2,3.39-6.09,4.52-10.28,2.87-4-1.58-7.89-3.56-11.9-5.15a142.4,142.4,0,0,0-31.38-8.23,14.12,14.12,0,0,0-1.84,0,25.69,25.69,0,0,1,.71,3.49c.14,2.68.22,5.37.16,8a2.9,2.9,0,0,1-1,1.84c-2.23,1.84-8.09,1.91-10.44.11a3.2,3.2,0,0,1-1.24-2,118.39,118.39,0,0,1-.86-13.18c.07-3.42,1.23-6.81,1.48-10.26.27-3.63,1.93-7.13.5-11a11.66,11.66,0,0,1-.18-6.57,5,5,0,0,1,3.49-2.91,69.93,69.93,0,0,1,10.73-.4c9.59.17,19.12.78,28.29,4,5.14,1.84,10.44,3.4,14.57,7.15a16.67,16.67,0,0,1,4.12,5.87c1.07,2.66-.78,4.82-2.76,6.36-4,3.1-8.7,4.61-13.5,5.8C3592.72,173,3590.28,173.43,3587.2,174.1Zm-23.94-24.48-1.07,18.95a.75.75,0,0,0,.41.12c7.57-.33,15.15-.45,22.69-1.1a25.12,25.12,0,0,0,12.13-4.31c1.72-1.17,2.2-2.69.6-4a31.87,31.87,0,0,0-6.91-4.77c-8.84-4.08-18.34-4.89-27.82-4.86Z" transform="translate(-70.08 -28)" fill="#030204"/>
        <path d="M3460.43,94.6c6.25,3,12.22,5.91,18.25,8.71,6.35,3,12.65,6,19.69,7,1.58.23,3.55,1,3.43,2.76-.15,2.11-2.25,3.21-4.16,3a77.72,77.72,0,0,1-13-2c-9.49-2.59-18-7.56-26.71-11.91-1.93-.93-3.9-1.85-6.27-3v14.41c0,3.92-.92,4.82-5,4.89-3.75,0-6.57-1.35-7.48-4a9.15,9.15,0,0,1-.31-3.37c.2-4.55.54-9.1.74-13.65.35-8.38.55-16.78,1-25.15a4.42,4.42,0,0,1,2.15-3.09,9.47,9.47,0,0,1,8.2-.08c2.43,1,2.3,3.14,2.16,5.19-.26,3.4-.56,6.8-.92,10.19-.16,1.56-.45,3.09-.78,5.35,2.46-1.18,4.51-2,6.45-3.09q14.37-8.1,28.68-16.31a10.73,10.73,0,0,1,9.7-.73c2.6,1,2.91,2.63.58,4.16-5.4,3.54-10.89,6.94-16.51,10.13C3473.91,87.67,3467.31,91,3460.43,94.6Z" transform="translate(-70.08 -28)" fill="#030204"/>
        <path d="M3663.33,116c-5.08,0-7.88-3.07-10-6.72a45.81,45.81,0,0,1-3.68-8.29,1.85,1.85,0,0,0-2.1-1.54h-.23c-7.7.74-15.39,1.84-23.1,2.12-5.1.2-8.75,2-11.62,6.12-1.46,2.11-3.54,3.8-5.36,5.66-2.69,2.76-7.9,3.26-11.17,1.18-1.71-1.09-1.54-2.36-.45-3.69,2.33-2.76,4.77-5.42,7.09-8.19.4-.47.78-1.49.55-1.84a1.84,1.84,0,0,1,.23-2.6,1.8,1.8,0,0,1,.91-.41c6.9-1.54,10.59-7.47,15.8-11.3,6.8-5,13.44-10.18,20.33-15,3.68-2.61,9.09-1.56,10.64,1.85,1.15,2.48,1.92,5.14,2.93,7.7,1.63,4.14,3.29,8.29,5,12.38,1.25,3,2.46,6,4,8.88s3.21,5.28,4.87,7.88c1.89,3,1.23,4.71-2.21,5.53A19.34,19.34,0,0,1,3663.33,116Zm-38.68-21,21.18-2.14a5.85,5.85,0,0,0-.11-1.39c-1.22-3-2.45-6-3.8-9-.11-.24-1.33-.31-1.72,0-1.76,1.23-3.43,2.59-5.11,4L3624.69,95Z" transform="translate(-70.08 -28)" fill="#030203"/>
        <path d="M3467.17,176.31c-1.13-2.2-.86-3.87,1.23-4.18,5.26-.78,8-5,11.69-7.88,7.65-5.82,15.22-11.72,22.92-17.5a9.7,9.7,0,0,1,4.74-2c5.31-.38,6.45,1.73,8.21,6.26,2.83,7.24,5.86,14.41,8.68,21.67a61,61,0,0,0,7.24,12.89c1.36,1.93,1,3.08-1.08,4.09-4.44,2.2-9.79.62-12.89-4.32-1.92-3-3.08-6.52-4.75-9.72a3,3,0,0,0-2.22-1.53q-14.21,1.21-28.37,2.76a5.42,5.42,0,0,0-3,1.61c-3.09,3.2-6,6.59-9.06,9.8-2.4,2.5-8.29,2.76-11.1.73-1.75-1.26-1.18-2.55-.14-3.74,2.45-2.86,5-5.64,7.48-8.45A6.13,6.13,0,0,0,3467.17,176.31Zm37.76-20.26-16.72,13.59,21.68-2.2Z" transform="translate(-70.08 -28)" fill="#030203"/>
        <path d="M3703,109.2c.17-11.24-1.69-22.1,1.3-33.06-5.1,0-9.67.06-14.23,0a18.36,18.36,0,0,1-5.42-.67c-1-.34-1.76-1.62-2.62-2.49.92-.92,1.68-2.23,2.76-2.61a15.06,15.06,0,0,1,5.21-.62q22.65.42,45.28,1a11.14,11.14,0,0,1,4.28.64c1.14.53,1.94,1.84,2.89,2.76-.92.87-1.73,2.19-2.82,2.5a19.45,19.45,0,0,1-5.89.54c-5.59-.19-11.17-.56-16.85-.92-2.85,10.64-.92,21.44-1.16,32.44H3721c4.68,0,9.36-.14,14,0a8.45,8.45,0,0,1,4,1.26c1.9,1.17,1.85,2.76-.16,3.68a13.58,13.58,0,0,1-5.23,1.23c-9,.24-18.09.24-27.13.45-4.82.12-9.64.64-14.46.72a26.74,26.74,0,0,1-6.71-.92,2.8,2.8,0,0,1-1.68-2,3.21,3.21,0,0,1,1.68-2.27,16.84,16.84,0,0,1,4.86-1C3694.39,109.52,3698.51,109.41,3703,109.2Z" transform="translate(-70.08 -28)" fill="#040305"/>
        <path d="M3230.16,69.58c2.21.16,4.43.38,6.65.44a27.07,27.07,0,0,0,2.84-.45,49,49,0,0,1,7-.32,3.45,3.45,0,0,1,2.41,2,28,28,0,0,1,1.43,6.45c.07.65-.79,1.59-1.45,2.09-2.76,2.06-7.91,1.69-10.3-.84a9.28,9.28,0,0,0-6.86-2.84c-11-.54-19.7,4.6-28,10.81-3.22,2.4-6.07,5.17-7.71,9s-.8,7.36,2.57,9.67c5.86,4,12.48,4.6,19.12,3.4,5.89-1,11.63-3,17.39-4.68,3.18-.92,6.32-2.18,9.56-.59a4,4,0,0,1,2.14,2.43c.1.71-1,2-1.84,2.37-15,6.52-30.48,9.62-46.67,5.35a36,36,0,0,1-10.49-5.13c-6.44-4.35-6.75-10.33-2.87-16.58,4.24-6.82,10.73-11.05,17.43-15A52.56,52.56,0,0,1,3230.16,69.58Z" transform="translate(-70.08 -28)" fill="#030204"/>
        <path d="M3384.47,115.76c-6.34-.11-14.53-1.43-21.75-6.45-4.48-3.09-6.94-7.93-5.87-11.71a21.62,21.62,0,0,1,5.87-9.93C3376.24,74.78,3392,67.94,3411,70.06a8,8,0,0,0,2.43-.29c.66-.14,1.29-.44,2-.6,5.66-1.4,8.65.75,9.36,6.45.44,3.46-1.6,4.75-3.83,5.13-3.44.59-6.53.13-9.11-2.77a7,7,0,0,0-4.19-1.84c-9-1-16.89,2.1-24.27,6.89-4.77,3.09-9.49,6.29-12.4,11.34-2.53,4.39-2.25,8.7,2.76,11.68,5.71,3.37,12,4,18.17,2.87,5.9-1,11.64-3,17.41-4.61,3.17-.92,6.29-2.28,9.54-.65.92.48,2.26,1.62,2.2,2.37a4,4,0,0,1-2.15,2.65C3409.57,113.14,3397.24,115.76,3384.47,115.76Z" transform="translate(-70.08 -28)" fill="#030204"/>
        <path d="M3540.34,76.1c-4.37,0-9,.12-13.52,0-4.29-.14-8.56-.54-12.83-.92a6.36,6.36,0,0,1-2.83-.82,3.28,3.28,0,0,1-1.58-2.06A2.83,2.83,0,0,1,3510.9,70a13.86,13.86,0,0,1,5.08-1.09q24.36.33,48.73.86c7,.15,13.95.35,20.91.67a9.48,9.48,0,0,1,4.27,1.28c1.85,1.07,1.76,3-.16,3.68a17.49,17.49,0,0,1-6.39,1.19c-9.05-.06-18.08-.33-27.13-.53h-3l2.09,15.59c0,.3.1.6.13.92.4,5.62.86,11.23,1.14,16.86.17,3.31-1.48,5.38-4.79,5.67a19.24,19.24,0,0,1-6.26-.8c-2.09-.53-2.17-2.18-1.61-4a7.65,7.65,0,0,0,.1-2.48c-.05-1-.24-2-.31-3-.36-4.69-.54-9.42-1.08-14.1S3541.15,81.22,3540.34,76.1Z" transform="translate(-70.08 -28)" fill="#040304"/>
        <path d="M3763.86,111.76c5.09-.26,10-.32,14.85-.82,8.24-.83,16.42-2,24.65-2.91a20.35,20.35,0,0,1,5.88.35c1.27.24,2.58.93,2.5,2.77s-1.35,2.12-2.56,2.41a54.32,54.32,0,0,1-8.08,1.64q-18.09,1.56-36.21,2.76a33.11,33.11,0,0,1-6.45-.35c-7.25-.92-7.27-4.19-6.27-9.61.15-.42.28-.85.39-1.28.42-5.53.92-11,1.2-16.64.33-6.16.44-12.34.8-18.49a3.52,3.52,0,0,1,1.57-2.4c2.59-1.56,5.41-1.4,8.19-.47a3,3,0,0,1,2.29,3.41c-.22,6.74,0,13.51-.42,20.26-.4,5.78-1.55,11.5-2.35,17.26A18.59,18.59,0,0,0,3763.86,111.76Z" transform="translate(-70.08 -28)" fill="#030204"/>
        <path d="M3604.14,368.71,3563,388.48q-32,15.31-64,30.62-14.48,6.93-29,13.7a3.9,3.9,0,0,1-2.89,0q-22-9.9-43.91-20L3353.81,381q-12.53-5.73-25-11.49c-.63-.3-1.25-.64-2.4-1.23H3604Z" transform="translate(-70.08 -28)" fill="#fc071c"/>
        <path d="M3470.51,502.11c10.86,20.57,24.53,38.68,39.83,55.8H3433.4c6.75-9,13.48-17.74,20-26.7A182,182,0,0,0,3470.51,502.11Z" transform="translate(-70.08 -28)" fill="#018cc5" opacity="0"/>
        <path d="M3627.14,277.39l10.88,33.5-67.55,2.42c.83-7.3,4.33-12.89,9.51-17.42,9.5-8.37,21-12.74,33-15.72C3617.58,279.08,3622.26,278.31,3627.14,277.39Z" transform="translate(-70.08 -28)" fill="#fcfc00"/>
        <path d="M3657.36,314.9c9.57-2.76,18.64-5.32,27.71-7.9,9.29-2.64,18.6-5.23,27.88-7.92a2.63,2.63,0,0,1,3.23,1c4.6,5.37,6.44,11.62,5,18.34-1.34,6.26-5.37,11.16-10.39,15.09-2.21,1.73-4.48,4.24-7,4.54-2.3.29-5-1.76-7.37-3C3683.57,328.46,3670.75,321.8,3657.36,314.9Z" transform="translate(-70.08 -28)" fill="#fcfc00"/>
        <path d="M3708.23,292.45l-56.88,16.14-10.51-32.24C3664.79,276.06,3687.35,279.24,3708.23,292.45Z" transform="translate(-70.08 -28)" fill="#fbfb00"/>
        <path d="M3624.32,350.24c4.71-5.86,9.08-11.36,13.51-16.81,3.15-3.89,6.45-7.65,9.52-11.61.92-1.19,1.61-1.31,2.77-.7l29.93,15.54c4.24,2.2,8.51,4.36,13.39,6.86C3670.72,352,3648,353.46,3624.32,350.24Z" transform="translate(-70.08 -28)" fill="#fbfb00"/>
        <path d="M3635.35,317.92c-1.94,2.53-3.59,4.79-5.36,7-5.73,7-11.55,14-17.23,21.1a2.69,2.69,0,0,1-3.39,1c-11.14-3.23-21.71-7.59-30.3-15.66-3.19-3-6-6.45-7.27-11.11Z" transform="translate(-70.08 -28)" fill="#fbfb00"/>
        <path d="M3397,165.55l1.42-17.09c8.12-.54,16.23-.69,23.95,2.81,4,1.79,5.27,3.36,4.25,6.29a8.28,8.28,0,0,1-3.39,3.82c-5.59,3.41-11.89,4-18.27,4.12C3402.42,165.59,3399.9,165.55,3397,165.55Z" transform="translate(-70.08 -28)" fill="#018cc5" opacity="0"/>
        <path d="M3395.22,184.59,3396,172c12.9-.36,25.35.23,37.15,5.05l.16.92a67.72,67.72,0,0,1-6.61,3c-7.91,2.67-16.18,3.09-24.43,3.51C3400.05,184.68,3397.85,184.59,3395.22,184.59Z" transform="translate(-70.08 -28)" fill="#018cc5" opacity="0"/>
        <path d="M3310.84,74.78c5.14,1.08,11,1.84,16.57,3.6,6.05,2,7.54,8.29,5.63,14.23-2.61,8.17-9,12.62-16.49,15.21a49.16,49.16,0,0,1-38.54-2.15,14,14,0,0,1-5-4.54c-2.16-3.08-1.18-6.52.41-9.45,4.67-8.59,12.61-12.9,21.72-15C3300,75.58,3305.06,75.45,3310.84,74.78Z" transform="translate(-70.08 -28)" fill="#018cc5" opacity="0"/>
        <path d="M3563.29,149.61c9.48,0,19,.78,27.84,4.85a31.57,31.57,0,0,1,6.9,4.77c1.61,1.36,1.13,2.87-.59,4a25.16,25.16,0,0,1-12.13,4.31c-7.54.66-15.13.78-22.69,1.1a.75.75,0,0,1-.41-.12Z" transform="translate(-70.08 -28)" fill="#018cc5" opacity="0"/>
        <path d="M3624.69,95c3.68-3.05,7.09-5.82,10.48-8.57,1.67-1.36,3.33-2.77,5.1-4,.41-.28,1.62-.22,1.72,0,1.36,3,2.58,6,3.81,9a5.93,5.93,0,0,1,.11,1.39Z" transform="translate(-70.08 -28)" fill="#018cc5" opacity="0"/>
        <path d="M3505,156l4.94,11.39-21.68,2.21Z" transform="translate(-70.08 -28)" fill="#018cc5" opacity="0"/>
      </g>
    </g>
    <g id="tur5">
      <g>
        <path d="M2420.22,28h616.37a46.13,46.13,0,0,1,46.13,46.13V612.07a46.13,46.13,0,0,1-46.13,46.14H2420.22a46.14,46.14,0,0,1-46.14-46.14V74.13A46.13,46.13,0,0,1,2420.22,28ZM3075.4,608.44V77.77a46.14,46.14,0,0,0-46.14-46.14H2427.55a46.14,46.14,0,0,0-46.14,46.14V608.44a46.13,46.13,0,0,0,46.14,46.13h601.71A46.13,46.13,0,0,0,3075.4,608.44Z" transform="translate(-70.08 -28)" fill="#0a070c"/>
        <path d="M3029.26,654.57H2427.55a46.13,46.13,0,0,1-46.14-46.13V77.77a46.14,46.14,0,0,1,46.14-46.14h601.71a46.14,46.14,0,0,1,46.14,46.14V608.44A46.13,46.13,0,0,1,3029.26,654.57Zm15.57-532.73H2412V265.48h13.84V217.11h31l-15.37,47.69,13.5,1.07a19.55,19.55,0,0,0,1.05-2.28c2.56-7.82,5.12-15.68,7.57-23.49.34-1.11.69-1.84,1.78-1.31,1.3.59,2.91,1.19,3.62,2.29,5.09,7.77,10,15.69,15,23.49.32.5,1,1.14,1.51,1.07,4.12-.53,8.23-1.21,12.58-1.84l-16-25.12c9.69-4.61,12.84-11.63,8-21.59h71.37V265.5h13.9V217.15h38.91l-15.35,47.68c4.47.35,8.44.71,12.42.92a2.09,2.09,0,0,0,1.7-1.06c1.64-4.61,3.15-9.33,4.67-14,1.32-4.08,2.61-8.17,4.11-12.85,1.71,1.21,3.48,1.85,4.32,3.14,5,7.61,9.87,15.39,14.84,23.07.48.74,1.6,1.66,2.32,1.57,4-.45,8-1.19,12.17-1.84-.57-.87-1-1.52-1.44-2.2l-12.32-19.7c-1.94-3.12-1.95-3.2,1.1-5,5.91-3.46,9.23-11.07,5.41-18l-1-1.78h74.09V263.2c0,1.84.51,2.64,2.48,2.53a88.83,88.83,0,0,1,9.23-.06c2.21.12,2.77-.72,2.71-2.77-.07-14.37,0-28.75,0-43.14v-2.6h74.85c-4.52,7.31-3.69,15.91,7.6,21.7l-15.86,24.91c4.22.66,8.22,1.35,12.24,1.84.56.08,1.45-.61,1.85-1.19,4.88-7.46,9.83-14.88,14.44-22.52,1.38-2.29,3.09-3,5.47-3.34.44,1.54.82,3.06,1.3,4.56,2.1,6.46,4.19,12.92,6.39,19.29.42,1.22,1.36,3.22,2.05,3.22,4.18,0,8.36-.48,12.85-.82l-15.31-47.67h32.84V263c0,2.18.68,2.84,2.77,2.72a75.11,75.11,0,0,1,8.75-.08c2.23.13,2.9-.61,2.89-2.85-.09-14.3,0-28.6,0-42.91v-2.82H2968c-2.25,4.2-3.18,8.31-1.5,12.71s5.2,6.95,9.31,8.84l-16.24,25.14c4.35.66,8.2,1.33,12.07,1.79a2.75,2.75,0,0,0,2.12-1.12c2-2.92,3.79-6,5.68-9,3.06-4.86,6.19-9.68,9.23-14.58a4.92,4.92,0,0,1,4.17-2.17c.42,0,1,1.7,1.48,2.63a1.64,1.64,0,0,1,.21.39c1.43,4.25,2.84,8.49,4.26,12.74l3.79,11.43,13.6-1.22-15.33-47.63h30.3v48.35h13.71ZM2997.06,582.2,2996,532.37a19.23,19.23,0,0,0,8.54,6.46c8,3.26,16.26,3.61,24.63,2.12,5-.92,9.74-2.45,13.41-6.21,3.22-3.29,3.29-7.26-.07-10.43a20.81,20.81,0,0,0-5.75-3.84c-8.44-3.69-17.24-4-26.14-2.12-5.61,1.18-10.85,3.13-14.36,8.61-.11-.92-.22-1.44-.24-2-.29-14.1-.64-28.19-.84-42.29q-.54-37.4-.92-74.8c-.09-6.92-.06-13.84-.1-20.75,0-.66-.08-1.31-.11-1.67H2854.81v2.76c.27,14.57.6,29.12.83,43.68q.51,32.3.92,64.66c.31,22.55.67,45.11.92,67.66.16,15.07.11,30.14.17,45.22,0,3.12.08,3.21,3.26,3.2l75-.3q29.16-.09,58.34-.16h2.94V591.1c2.51,1.5,4.87,3.29,7.52,4.43,7.94,3.4,16.25,3.62,24.62,2.11,4.88-.92,9.58-2.42,13.2-6.12,3.35-3.4,3.42-7.28-.08-10.56a20.66,20.66,0,0,0-5.54-3.75c-7.49-3.39-15.4-3.82-23.43-2.68C3007.38,575.39,3001.71,577.16,2997.06,582.2ZM2412,79.32c.76,0,1.44.12,2.12.12h94.53c2.13,0,2.77-.67,2.77-2.77-.09-9.91,0-19.83,0-29.74,0-3.08,0-3.09-3.07-3.09H2412Zm633.65.12V44c-.69,0-1.23-.07-1.75-.07h-95c-2.08,0-2.6.76-2.58,2.76.07,10,0,20,0,30,0,2.92,0,2.93,3,2.93h96.29Zm-490.26.69v-.52h55.71c1.3,0,2-.58,1.84-2-.06-.68,0-1.38,0-2.08,0-3.19,0-3.2-3.18-3.2h-52.11c-.78,0-1.55-.07-2.33-.11v-.41l63.67-24c-2.85-1.91-5.23-3.59-7.73-5.12a2.85,2.85,0,0,0-2.11,0c-9.1,3.37-18.18,6.79-27.26,10.15l-39.25,14.77c-4.77,1.84-9.52,3.69-14.14,5.41.82,1,2.12,1.94,2.11,2.83s-1.27,1.84-2.09,2.94l19.23,7.25q30.6,11.58,61.15,23.07c.69.26,1.68.56,2.17.26,2.59-1.59,5.08-3.36,7.94-5.31Zm288.41-.58H2901l.06.49-63.94,24.08c2.76,1.79,5,3.39,7.45,4.83a3,3,0,0,0,2.26.25c7.32-2.66,14.62-5.41,21.91-8.15l36.05-13.54L2927.46,79c-.59-1.06-1.51-2-1.5-2.9s.92-2,1.44-3.09l-28.28-10.6q-26.05-9.81-52.15-19.6a2.78,2.78,0,0,0-2.12,0c-2.52,1.54-4.94,3.25-7.68,5.09l63.9,24.08-.08.47h-57.21Zm-324.64,387.2,63.91,24-.15.67h-57.48v3.94c0,3.11,0,3.11,3.18,3.11h54.28l.07.45-63.74,24c2.42,1.64,4.41,2.84,6.22,4.25a4.06,4.06,0,0,0,4.38.64q17.52-6.69,35.16-13.27l35.61-13.32c3-1.13,6-2.34,9.16-3.56-2.84-2.77-2.84-2.77-.18-5.63-.65-.3-1.21-.63-1.85-.86l-35.61-13.39c-14.2-5.35-28.39-10.74-42.61-16.05a3.79,3.79,0,0,0-2.77,0C2524.34,463.12,2522.09,464.77,2519.17,466.75Zm502.31-38.44c1.71-.18,4.62-.28,7.51-.82,5-.93,9.89-2.48,13.61-6.29,3.12-3.18,3.23-7.25,0-10.31a21.07,21.07,0,0,0-5.73-3.88c-7.48-3.4-15.4-3.82-23.43-2.72-5.18.71-10.15,2.13-14.25,5.59-1.79,1.51-3.19,3.28-3.26,5.85-.09,3.75,2.23,5.92,5,7.7,5.9,3.75,12.55,4.65,20.55,4.86Zm0,56.74a71.57,71.57,0,0,0,7.45-.81c5-.92,9.88-2.43,13.62-6.25,3.22-3.29,3.31-7.26,0-10.41a21.55,21.55,0,0,0-5.73-3.86c-7.38-3.38-15.24-3.76-23.18-2.7-5.25.69-10.3,2.14-14.43,5.66-1.75,1.5-3.24,3.26-3.27,5.85,0,3.69,2.32,5.9,5,7.65,5.8,3.75,12.44,4.61,20.48,4.85Z" transform="translate(-70.08 -28)" fill="#018cc5" opacity="0"/>
        <path d="M3044.83,121.84V265.47h-13.71V217.12h-30.31l15.34,47.63-13.6,1.21-3.79-11.44-4.26-12.73a2.19,2.19,0,0,0-.21-.4c-.5-.92-1.06-2.65-1.48-2.63a5,5,0,0,0-4.17,2.18c-3,4.89-6.13,9.72-9.23,14.58-1.85,3-3.69,6-5.68,9a2.75,2.75,0,0,1-2.12,1.12c-3.87-.46-7.72-1.13-12.07-1.79l16-25.17c-4.1-1.84-7.6-4.31-9.31-8.84s-.74-8.51,1.51-12.7h-77.18v45.74c0,2.23-.64,3-2.89,2.85a75.13,75.13,0,0,0-8.75.07c-2.11.13-2.77-.53-2.77-2.71.09-14.3,0-28.6,0-42.91v-2.95h-32.86l15.32,47.67c-4.49.34-8.67.82-12.86.82-.69,0-1.63-2-2-3.22-2.21-6.4-4.29-12.85-6.4-19.29-.49-1.49-.87-3-1.3-4.56-2.38.33-4.1,1.05-5.47,3.34-4.61,7.64-9.56,15.06-14.44,22.52a2.6,2.6,0,0,1-1.85,1.19c-4-.51-8-1.19-12.24-1.84l15.86-24.92c-11.32-5.78-12.11-14.38-7.59-21.69h-74.85v45.74c0,2.07-.49,2.9-2.72,2.77a88.62,88.62,0,0,0-9.22.06c-2,.1-2.49-.64-2.49-2.54.07-14.37,0-28.75,0-43.13v-2.92H2646.9l1,1.77c3.83,7,.51,14.53-5.41,18-3,1.78-3,1.84-1.1,5q6.14,9.87,12.32,19.7c.43.67.87,1.33,1.44,2.2-4.14.66-8.14,1.39-12.17,1.84-.72.08-1.84-.83-2.31-1.58-5-7.66-9.79-15.43-14.84-23.06-.84-1.28-2.61-1.93-4.33-3.14-1.49,4.68-2.77,8.76-4.11,12.84-1.52,4.69-3,9.37-4.66,14a2.14,2.14,0,0,1-1.71,1.06c-4-.21-7.95-.57-12.41-.92l15.34-47.68H2575v48.35h-13.89V217.06h-71.38c4.85,10,1.7,17-8,21.59l16.22,25.1c-4.35.67-8.47,1.35-12.59,1.85-.46,0-1.19-.59-1.5-1.07-5-7.84-9.89-15.69-15-23.5-.72-1.09-2.32-1.69-3.62-2.28-1.08-.5-1.44.2-1.78,1.31-2.44,7.85-5,15.68-7.56,23.49a23.51,23.51,0,0,1-1,2.28l-13.5-1.07,15.36-47.7h-31v48.37H2412V121.84Zm-469.6,6.94v2.67c0,25.29.09,50.59,0,75.89,0,2.21.71,2.69,2.77,2.68q30.45-.11,60.9,0c2,0,2.77-.46,2.77-2.68-.09-20.07-.06-40.14-.06-60.21v-2.77h13.92v65.51H2721V128.78Zm300.87.14H2734.93v78c0,3.06,0,3.07,3,3.07h57.21c.82,0,1.64-.07,2.7-.11V149.33c0-4.06,0-4.06,4.18-4.06h6.92c3.24,0,3.24,0,3.24,3.15v61.36h64Zm93.2,16.46v64.48h61.62v-81H2890.79v81c.5,0,.8.11,1.1.11h61.35c1.85,0,2.1-.76,2.09-2.37q-.06-29.74,0-59.5v-2.77Zm-408-16.61h-135.5v81h58.25V146.83c0-2,.49-2.76,2.58-2.66,2.92.14,5.84,0,8.76,0s3,0,3,3.1v62.54h62.92Zm-82.95,95.65a8.4,8.4,0,0,0-3.81-6.46,2.78,2.78,0,0,0-2.57,0,8.72,8.72,0,0,0-2.21,12.14,8.46,8.46,0,0,0,2.09,2.13,2.26,2.26,0,0,0,3-.1c2.44-1.77,3.4-4.13,3.46-7.67Zm353.39.79a8,8,0,0,0-3.69-7.22,2.78,2.78,0,0,0-2.54-.12c-4.89,3.54-5.37,10.47-.28,14.29a2.37,2.37,0,0,0,3.27-.13,8.07,8.07,0,0,0,3.21-6.77Zm-206.17,0a36.67,36.67,0,0,0,1.42,4.61c1.37,3,4.29,3.79,6.2,1.63,3.7-4.16,3.58-9-.44-13.08-1.39-1.4-2.68-1.22-4-.05a9,9,0,0,0-3.26,7ZM2990,225.1a48.64,48.64,0,0,0-3.53-6.54c-1.17-1.55-2.77-1.54-4.44,0a9.13,9.13,0,0,0-.45,12.57c2.06,2.24,3.36,2.31,5.27-.19,1.3-1.57,2-3.63,3.14-5.76Z" transform="translate(-70.08 -28)" fill="#040305"/>
        <path d="M2997.06,582.2c4.61-5,10.32-6.82,16.35-7.67,8-1.14,15.94-.71,23.44,2.68a20.77,20.77,0,0,1,5.53,3.75c3.5,3.28,3.43,7.16.09,10.56-3.63,3.7-8.31,5.25-13.21,6.12-8.36,1.51-16.68,1.29-24.62-2.11a69.44,69.44,0,0,1-7.52-4.43v21.06h-2.94l-58.34.16q-37.47.12-74.94.3c-3.19,0-3.25-.08-3.27-3.2-.05-15.07,0-30.14-.17-45.22-.23-22.55-.59-45.11-.92-67.66q-.45-32.3-.92-64.66c-.23-14.56-.56-29.11-.83-43.67v-2.77H2994c0,.36.11,1,.12,1.67,0,6.92,0,13.84.09,20.75q.44,37.39.92,74.8c.2,14.1.55,28.19.84,42.29a16.79,16.79,0,0,0,.24,2c3.51-5.47,8.74-7.43,14.36-8.61,8.9-1.84,17.7-1.57,26.14,2.12a20.63,20.63,0,0,1,5.75,3.85c3.36,3.16,3.29,7.13.07,10.42-3.69,3.76-8.44,5.33-13.41,6.21-8.37,1.49-16.61,1.14-24.63-2.12a19.23,19.23,0,0,1-8.54-6.46ZM2869.73,442.81h111.72c-.33-3.88-.82-7.28-.93-10.68-.15-9.61-.14-19.21-.19-28.81V392.37H2868.61Zm111.41,57V450.14H2869.4l1.1,49.69Zm1.09,55.21v-6.14c0-13.22-.15-26.44-.09-39.68,0-2.09-.67-2.6-2.61-2.57-8.45.13-16.91.16-25.36.18q-40.59.1-81.2.15h-2V555Zm.81,50.34c.06-.78.11-1.15.11-1.52,0-11.68,0-23.35-.17-35.06a56.49,56.49,0,0,0-.84-6.62H2871.56v43.18Zm37.14-70c2.84-.86,5.74-1.35,8.31-2.6,3.61-1.77,3.6-4.61.05-6.46a16.48,16.48,0,0,0-16.42.09c-3.07,1.65-3.11,4.72,0,6.28,2.38,1.22,5.18,1.77,8,2.7Zm2.08,45.55c-4.8.19-8.06.49-10.78,2.69-2.21,1.79-2.22,3.53-.05,5.33,4.17,3.47,13.63,3.53,17.9.12,2.4-1.92,2.53-4.07-.16-5.54a39.59,39.59,0,0,0-6.93-2.6Z" transform="translate(-70.08 -28)" fill="#030204"/>
        <path d="M2412,79.35V43.89h96.33c3.06,0,3.06,0,3.07,3.09,0,9.91-.06,19.83,0,29.74,0,2.11-.63,2.77-2.77,2.77q-47.26-.09-94.53,0C2413.45,79.47,2412.77,79.39,2412,79.35Zm84.89-28.3h-71v7h71Zm-71.05,21.22h70.94v-6.9h-70.94Z" transform="translate(-70.08 -28)" fill="#08060a"/>
        <path d="M3045.66,79.47h-96.27c-3,0-3,0-3-2.93v-30c0-2,.5-2.77,2.59-2.77q47.49.08,95,0a17,17,0,0,1,1.75.08ZM2960.86,58h71V51h-71Zm0,14.29h71V65.37h-71Z" transform="translate(-70.08 -28)" fill="#08060a"/>
        <path d="M2555.4,80.13l63.66,24c-2.86,1.95-5.34,3.69-7.93,5.31-.49.3-1.49,0-2.17-.26q-30.61-11.51-61.17-23.07l-19.23-7.25c.82-1.07,2.08-2,2.1-2.94s-1.28-1.85-2.12-2.83c4.62-1.77,9.38-3.62,14.15-5.41l39.25-14.77c9.08-3.41,18.16-6.83,27.26-10.15a2.76,2.76,0,0,1,2.11,0c2.49,1.52,4.88,3.2,7.72,5.11l-63.66,24v.41c.77,0,1.55.11,2.32.11h52.15c3.17,0,3.17,0,3.18,3.2,0,.7-.06,1.39,0,2.08.13,1.4-.57,2-1.85,2H2555.4Z" transform="translate(-70.08 -28)" fill="#019241"/>
        <path d="M2843.79,79.56V72.4H2901l.08-.47-63.9-24.09c2.77-1.85,5.17-3.56,7.68-5.1a2.78,2.78,0,0,1,2.12,0q26.08,9.76,52.14,19.59l28.28,10.6C2926.85,74,2926,75,2926,76s.92,1.84,1.5,2.89l-22.66,8.59-36.05,13.55q-10.93,4.16-21.91,8.15a3,3,0,0,1-2.26-.25c-2.41-1.44-4.71-3-7.45-4.83L2901,80.05l-.05-.49Z" transform="translate(-70.08 -28)" fill="#019241"/>
        <path d="M2519.17,466.75c2.93-2,5.17-3.6,7.58-5a3.76,3.76,0,0,1,2.76,0c14.22,5.32,28.41,10.71,42.61,16.06q17.8,6.72,35.61,13.39c.6.23,1.16.55,1.85.86-2.65,2.89-2.65,2.89.18,5.62-3.14,1.22-6.13,2.43-9.16,3.57Q2582.82,508,2565,514.6q-17.6,6.6-35.16,13.27a4,4,0,0,1-4.38-.65c-1.84-1.41-3.8-2.61-6.22-4.24L2583,499l-.07-.46h-54.27c-3.18,0-3.18,0-3.18-3.11v-3.95h57.48l.15-.68Z" transform="translate(-70.08 -28)" fill="#019241"/>
        <path d="M3021.47,428.29c-8-.2-14.65-1.1-20.52-4.86-2.76-1.78-5.07-3.95-5-7.7.07-2.57,1.46-4.34,3.26-5.85,4.1-3.47,9.07-4.88,14.24-5.59,8-1.1,16-.69,23.44,2.72a21.07,21.07,0,0,1,5.73,3.88c3.2,3.05,3.1,7.12,0,10.31-3.69,3.8-8.59,5.33-13.62,6.29C3026.12,428,3023.21,428.11,3021.47,428.29Zm.93-17.66c-4.88.19-8.13.49-10.85,2.65-2.3,1.84-2.3,3.59,0,5.43,4.28,3.43,13.59,3.44,17.82,0,2.32-1.85,2.5-3.89,0-5.36a40.85,40.85,0,0,0-7-2.72Z" transform="translate(-70.08 -28)" fill="#030203"/>
        <path d="M3021.47,485c-8-.2-14.68-1.1-20.53-4.87-2.77-1.76-5.09-3.93-5.05-7.65,0-2.58,1.51-4.35,3.26-5.85,4.15-3.52,9.23-5,14.44-5.66,7.93-1.05,15.77-.68,23.17,2.7a21.39,21.39,0,0,1,5.73,3.86c3.35,3.15,3.26,7.12,0,10.42-3.69,3.81-8.6,5.28-13.62,6.24A71.55,71.55,0,0,1,3021.47,485Zm-1-6.45c2.84-.93,5.65-1.44,8.09-2.67,3.43-1.74,3.42-4.53,0-6.38a16.52,16.52,0,0,0-16.61.05c-3,1.64-3.08,4.74,0,6.26,2.62,1.29,5.54,1.84,8.44,2.76Z" transform="translate(-70.08 -28)" fill="#030203"/>
        <path d="M2575.24,128.78H2721v81.08H2655.5V144.34h-13.91v2.77q0,30.1,0,60.21c0,2.21-.7,2.68-2.77,2.68q-30.45-.09-60.9,0c-2,0-2.76-.47-2.76-2.68.05-25.29,0-50.59,0-75.89C2575.23,130.61,2575.24,129.78,2575.24,128.78Z" transform="translate(-70.08 -28)" fill="#018cc5" opacity="0"/>
        <path d="M2876.11,128.92v80.85h-64V148.41c0-3.15,0-3.15-3.24-3.15H2802c-4.18,0-4.18,0-4.18,4.07v60.55c-1.06,0-1.85.11-2.7.11h-57.21c-3,0-3,0-3-3.06V129Z" transform="translate(-70.08 -28)" fill="#018cc5" opacity="0"/>
        <path d="M2969.3,145.38h-14v62.27c0,1.61-.3,2.37-2.1,2.37q-30.66-.08-61.35,0a10.55,10.55,0,0,1-1.1-.12V128.85H3030.9v81h-61.63Z" transform="translate(-70.08 -28)" fill="#018cc5" opacity="0"/>
        <path d="M2561.36,128.81v81h-62.92V147.28c0-3.1,0-3.11-3-3.1s-5.85.17-8.76,0c-2.09-.1-2.59.71-2.58,2.66.06,19.92,0,39.82,0,59.73v3.17h-58.22V128.81Z" transform="translate(-70.08 -28)" fill="#018cc5" opacity="0"/>
        <path d="M2478.4,224.46c-.05,3.54-1,5.9-3.44,7.68a2.26,2.26,0,0,1-3.05.1,8.73,8.73,0,0,1-2-12.18h0A8.63,8.63,0,0,1,2472,218a2.76,2.76,0,0,1,2.56,0A8.37,8.37,0,0,1,2478.4,224.46Z" transform="translate(-70.08 -28)" fill="#018cc5" opacity="0"/>
        <path d="M2831.76,225.26a8.09,8.09,0,0,1-3.22,6.82,2.36,2.36,0,0,1-3.28.13c-5.1-3.82-4.61-10.76.28-14.28a2.75,2.75,0,0,1,2.54.12A8,8,0,0,1,2831.76,225.26Z" transform="translate(-70.08 -28)" fill="#018cc5" opacity="0"/>
        <path d="M2625.59,225.28a9.09,9.09,0,0,1,3.23-6.88c1.26-1.16,2.55-1.35,3.94,0,4,4,4.12,8.93.45,13.08-1.91,2.16-4.84,1.38-6.2-1.62A35.84,35.84,0,0,1,2625.59,225.28Z" transform="translate(-70.08 -28)" fill="#018cc5" opacity="0"/>
        <path d="M2990,225.18c-1.11,2.13-1.84,4.19-3.14,5.85-1.92,2.5-3.21,2.44-5.27.19a9.13,9.13,0,0,1,.45-12.57c1.63-1.54,3.27-1.56,4.44,0A53.32,53.32,0,0,1,2990,225.18Z" transform="translate(-70.08 -28)" fill="#018cc5" opacity="0"/>
        <path d="M2869.71,442.81l-1.1-50.44h111.75v10.95c0,9.6,0,19.21.19,28.81.06,3.4.55,6.8.93,10.68Z" transform="translate(-70.08 -28)" fill="#018cc5" opacity="0"/>
        <path d="M2981.12,499.8H2870.48l-1.1-49.66h111.74Z" transform="translate(-70.08 -28)" fill="#018cc5" opacity="0"/>
        <path d="M2982.2,555H2871V507H2873l81.2-.15q12.68,0,25.35-.18c1.94,0,2.62.48,2.62,2.57-.06,13.22,0,26.44.09,39.68C2982.21,550.78,2982.2,552.68,2982.2,555Z" transform="translate(-70.08 -28)" fill="#018cc5" opacity="0"/>
        <path d="M2983,605.36H2871.56V562.17h110.55a52.69,52.69,0,0,1,.84,6.63c.14,11.68.14,23.35.18,35.06C2983.13,604.23,2983.07,604.58,2983,605.36Z" transform="translate(-70.08 -28)" fill="#018cc5" opacity="0"/>
        <path d="M3020.16,535.33c-2.87-.92-5.67-1.48-8.12-2.77-3.09-1.56-3-4.61,0-6.27a16.46,16.46,0,0,1,16.42-.09c3.53,1.92,3.56,4.71-.06,6.46C3025.89,534,3023,534.46,3020.16,535.33Z" transform="translate(-70.08 -28)" fill="#018cc5" opacity="0"/>
        <path d="M3022.29,580.87a39.58,39.58,0,0,1,6.91,2.57c2.69,1.49,2.55,3.64.15,5.54-4.27,3.41-13.73,3.36-17.9-.11-2.16-1.85-2.16-3.54.06-5.34C3014.18,581.36,3017.43,581.06,3022.29,580.87Z" transform="translate(-70.08 -28)" fill="#018cc5" opacity="0"/>
        <path d="M2496.87,51.05v7h-71v-7Z" transform="translate(-70.08 -28)" fill="#018cc5" opacity="0"/>
        <path d="M2425.85,72.28V65.37h70.94v6.94Z" transform="translate(-70.08 -28)" fill="#018cc5" opacity="0"/>
        <path d="M2960.86,58V51h71v7Z" transform="translate(-70.08 -28)" fill="#018cc5" opacity="0"/>
        <path d="M2960.85,72.3V65.37h71v7Z" transform="translate(-70.08 -28)" fill="#018cc5" opacity="0"/>
        <path d="M3022.36,410.63a40.24,40.24,0,0,1,6.93,2.77c2.54,1.46,2.35,3.48,0,5.36-4.23,3.42-13.55,3.41-17.83,0-2.29-1.85-2.29-3.62,0-5.44C3014.24,411.12,3017.48,410.81,3022.36,410.63Z" transform="translate(-70.08 -28)" fill="#018cc5" opacity="0"/>
        <path d="M3020.44,478.58c-2.9-.92-5.85-1.45-8.44-2.76-3.07-1.52-3-4.62,0-6.26a16.52,16.52,0,0,1,16.61-.05c3.36,1.85,3.38,4.62,0,6.38C3026.12,477.15,3023.32,477.68,3020.44,478.58Z" transform="translate(-70.08 -28)" fill="#018cc5" opacity="0"/>
      </g>
    </g>
  </g>
</svg>
