<svg id="Layer_1" data-name="Layer 1" xmlns="http://www.w3.org/2000/svg" width="530.66" height="104.4" viewBox="0 0 530.66 104.4">
  <title>folket</title>
  <ellipse cx="112.46" cy="41.44" rx="18.3" ry="34.95" fill="none" stroke="#000" stroke-miterlimit="10" stroke-width="5"/>
  <path d="M192,203.22" transform="translate(-79.53 -126.83)" fill="none" stroke="#000" stroke-miterlimit="10" stroke-width="5"/>
  <line x1="112.46" y1="31.52" x2="122.49" y2="36.02" fill="none" stroke="#000" stroke-miterlimit="10" stroke-width="5"/>
  <line x1="117.47" y1="55.2" x2="126.18" y2="64.55" fill="none" stroke="#000" stroke-miterlimit="10" stroke-width="5"/>
  <ellipse cx="214.09" cy="64.12" rx="18.3" ry="34.95" fill="none" stroke="#000" stroke-miterlimit="10" stroke-width="5"/>
  <path d="M293.63,225.91" transform="translate(-79.53 -126.83)" fill="none" stroke="#000" stroke-miterlimit="10" stroke-width="5"/>
  <line x1="214.09" y1="54.21" x2="224.13" y2="58.71" fill="none" stroke="#000" stroke-miterlimit="10" stroke-width="5"/>
  <line x1="219.11" y1="77.89" x2="227.82" y2="87.23" fill="none" stroke="#000" stroke-miterlimit="10" stroke-width="5"/>
  <ellipse cx="20.8" cy="54.21" rx="18.3" ry="34.95" fill="none" stroke="#000" stroke-miterlimit="10" stroke-width="5"/>
  <path d="M100.33,216" transform="translate(-79.53 -126.83)" fill="none" stroke="#000" stroke-miterlimit="10" stroke-width="5"/>
  <line x1="20.8" y1="44.29" x2="30.83" y2="48.79" fill="none" stroke="#000" stroke-miterlimit="10" stroke-width="5"/>
  <line x1="25.82" y1="67.97" x2="34.53" y2="77.32" fill="none" stroke="#000" stroke-miterlimit="10" stroke-width="5"/>
  <ellipse cx="263.04" cy="66.95" rx="18.3" ry="34.95" fill="none" stroke="#000" stroke-miterlimit="10" stroke-width="5"/>
  <path d="M342.58,228.73" transform="translate(-79.53 -126.83)" fill="none" stroke="#000" stroke-miterlimit="10" stroke-width="5"/>
  <line x1="263.04" y1="57.03" x2="273.08" y2="61.54" fill="none" stroke="#000" stroke-miterlimit="10" stroke-width="5"/>
  <line x1="268.06" y1="80.71" x2="276.77" y2="90.06" fill="none" stroke="#000" stroke-miterlimit="10" stroke-width="5"/>
  <ellipse cx="177.72" cy="47.2" rx="18.3" ry="34.95" fill="none" stroke="#000" stroke-miterlimit="10" stroke-width="5"/>
  <path d="M257.25,209" transform="translate(-79.53 -126.83)" fill="none" stroke="#000" stroke-miterlimit="10" stroke-width="5"/>
  <line x1="177.72" y1="37.28" x2="167.69" y2="41.79" fill="none" stroke="#000" stroke-miterlimit="10" stroke-width="5"/>
  <line x1="172.7" y1="60.96" x2="163.99" y2="70.31" fill="none" stroke="#000" stroke-miterlimit="10" stroke-width="5"/>
  <ellipse cx="75.78" cy="52.61" rx="18.3" ry="34.95" fill="none" stroke="#000" stroke-miterlimit="10" stroke-width="5"/>
  <path d="M155.31,214.39" transform="translate(-79.53 -126.83)" fill="none" stroke="#000" stroke-miterlimit="10" stroke-width="5"/>
  <line x1="75.78" y1="42.69" x2="65.75" y2="47.2" fill="none" stroke="#000" stroke-miterlimit="10" stroke-width="5"/>
  <line x1="70.76" y1="66.37" x2="62.05" y2="75.72" fill="none" stroke="#000" stroke-miterlimit="10" stroke-width="5"/>
  <path d="M348.91,204.36" transform="translate(-79.53 -126.83)" fill="none" stroke="#000" stroke-miterlimit="10" stroke-width="5"/>
  <ellipse cx="418.2" cy="37.45" rx="18.3" ry="34.95" fill="none" stroke="#000" stroke-miterlimit="10" stroke-width="5"/>
  <path d="M497.73,199.23" transform="translate(-79.53 -126.83)" fill="none" stroke="#000" stroke-miterlimit="10" stroke-width="5"/>
  <line x1="418.2" y1="27.53" x2="408.17" y2="32.04" fill="none" stroke="#000" stroke-miterlimit="10" stroke-width="5"/>
  <line x1="413.18" y1="51.21" x2="404.47" y2="60.56" fill="none" stroke="#000" stroke-miterlimit="10" stroke-width="5"/>
  <ellipse cx="316.56" cy="60.14" rx="18.3" ry="34.95" fill="none" stroke="#000" stroke-miterlimit="10" stroke-width="5"/>
  <path d="M396.1,221.92" transform="translate(-79.53 -126.83)" fill="none" stroke="#000" stroke-miterlimit="10" stroke-width="5"/>
  <line x1="316.56" y1="50.22" x2="306.53" y2="54.73" fill="none" stroke="#000" stroke-miterlimit="10" stroke-width="5"/>
  <line x1="311.55" y1="73.9" x2="302.83" y2="83.25" fill="none" stroke="#000" stroke-miterlimit="10" stroke-width="5"/>
  <ellipse cx="509.86" cy="50.22" rx="18.3" ry="34.95" fill="none" stroke="#000" stroke-miterlimit="10" stroke-width="5"/>
  <path d="M589.39,212" transform="translate(-79.53 -126.83)" fill="none" stroke="#000" stroke-miterlimit="10" stroke-width="5"/>
  <line x1="509.86" y1="40.3" x2="499.82" y2="44.81" fill="none" stroke="#000" stroke-miterlimit="10" stroke-width="5"/>
  <line x1="504.84" y1="63.98" x2="496.13" y2="73.33" fill="none" stroke="#000" stroke-miterlimit="10" stroke-width="5"/>
  <ellipse cx="352.94" cy="43.22" rx="18.3" ry="34.95" fill="none" stroke="#000" stroke-miterlimit="10" stroke-width="5"/>
  <path d="M432.47,205" transform="translate(-79.53 -126.83)" fill="none" stroke="#000" stroke-miterlimit="10" stroke-width="5"/>
  <line x1="352.94" y1="33.3" x2="362.97" y2="37.8" fill="none" stroke="#000" stroke-miterlimit="10" stroke-width="5"/>
  <line x1="357.95" y1="56.98" x2="366.67" y2="66.33" fill="none" stroke="#000" stroke-miterlimit="10" stroke-width="5"/>
  <ellipse cx="454.88" cy="48.63" rx="18.3" ry="34.95" fill="none" stroke="#000" stroke-miterlimit="10" stroke-width="5"/>
  <path d="M534.41,210.41" transform="translate(-79.53 -126.83)" fill="none" stroke="#000" stroke-miterlimit="10" stroke-width="5"/>
  <line x1="454.88" y1="38.71" x2="464.91" y2="43.22" fill="none" stroke="#000" stroke-miterlimit="10" stroke-width="5"/>
  <line x1="459.89" y1="62.39" x2="468.61" y2="71.74" fill="none" stroke="#000" stroke-miterlimit="10" stroke-width="5"/>
</svg>
